NerdfontsNF.ufo
<glyph name="uni23FB" format="2">
  <advance width="1200"/>
  <unicode hex="23FB"/>
  <note>
uni23FB
</note>
  <outline>
    <contour>
      <point x="508" y="1278" type="curve"/>
      <point x="508" y="1278" type="line"/>
      <point x="508" y="669" type="line" smooth="yes"/>
      <point x="508" y="547"/>
      <point x="693" y="547"/>
      <point x="693" y="669" type="curve" smooth="yes"/>
      <point x="693" y="1278" type="line" smooth="yes"/>
      <point x="693" y="1330"/>
      <point x="652" y="1371"/>
      <point x="599" y="1371" type="curve" smooth="yes"/>
      <point x="549" y="1370"/>
      <point x="508" y="1328"/>
    </contour>
    <contour>
      <point x="600" y="127" type="curve"/>
      <point x="600" y="127" type="line"/>
      <point x="927" y="127"/>
      <point x="1143" y="342"/>
      <point x="1143" y="670" type="curve" smooth="yes"/>
      <point x="1143" y="806"/>
      <point x="1091" y="935"/>
      <point x="1003" y="1033" type="curve" smooth="yes"/>
      <point x="988" y="1051"/>
      <point x="957" y="1065"/>
      <point x="933" y="1065" type="curve" smooth="yes"/>
      <point x="882" y="1065"/>
      <point x="841" y="1024"/>
      <point x="841" y="972" type="curve" smooth="yes"/>
      <point x="841" y="952"/>
      <point x="852" y="924"/>
      <point x="865" y="909" type="curve" smooth="yes"/>
      <point x="927" y="840"/>
      <point x="957" y="761"/>
      <point x="957" y="670" type="curve" smooth="yes"/>
      <point x="957" y="454"/>
      <point x="815" y="313"/>
      <point x="600" y="313" type="curve" smooth="yes"/>
      <point x="384" y="313"/>
      <point x="243" y="454"/>
      <point x="243" y="670" type="curve" smooth="yes"/>
      <point x="243" y="761"/>
      <point x="273" y="840"/>
      <point x="334" y="909" type="curve" smooth="yes"/>
      <point x="348" y="924"/>
      <point x="359" y="952"/>
      <point x="359" y="972" type="curve" smooth="yes"/>
      <point x="359" y="1023"/>
      <point x="319" y="1064"/>
      <point x="268" y="1065" type="curve" smooth="yes"/>
      <point x="242" y="1065"/>
      <point x="212" y="1051"/>
      <point x="197" y="1033" type="curve" smooth="yes"/>
      <point x="108" y="935"/>
      <point x="57" y="806"/>
      <point x="57" y="670" type="curve" smooth="yes"/>
      <point x="57" y="342"/>
      <point x="272" y="127"/>
    </contour>
  </outline>
</glyph>
<glyph name="uni23FC" format="2">
  <advance width="1200"/>
  <unicode hex="23FC"/>
  <note>
uni23FC
</note>
  <outline>
    <contour>
      <point x="599" y="149" type="curve"/>
      <point x="599" y="149" type="line"/>
      <point x="961" y="149"/>
      <point x="1200" y="387"/>
      <point x="1200" y="749" type="curve" smooth="yes"/>
      <point x="1200" y="1110"/>
      <point x="961" y="1348"/>
      <point x="599" y="1348" type="curve" smooth="yes"/>
      <point x="237" y="1348"/>
      <point x="-1" y="1110"/>
      <point x="-1" y="749" type="curve" smooth="yes"/>
      <point x="-1" y="387"/>
      <point x="237" y="149"/>
    </contour>
    <contour>
      <point x="602" y="354" type="curve"/>
      <point x="602" y="354" type="line"/>
      <point x="363" y="351"/>
      <point x="205" y="507"/>
      <point x="205" y="749" type="curve" smooth="yes"/>
      <point x="205" y="986"/>
      <point x="361" y="1143"/>
      <point x="599" y="1143" type="curve" smooth="yes"/>
      <point x="836" y="1143"/>
      <point x="993" y="986"/>
      <point x="993" y="749" type="curve" smooth="yes"/>
      <point x="993" y="514"/>
      <point x="838" y="357"/>
    </contour>
    <contour>
      <point x="599" y="457" type="curve"/>
      <point x="599" y="457" type="line"/>
      <point x="660" y="457"/>
      <point x="701" y="498"/>
      <point x="701" y="560" type="curve" smooth="yes"/>
      <point x="701" y="935" type="line" smooth="yes"/>
      <point x="701" y="1070"/>
      <point x="496" y="1070"/>
      <point x="496" y="935" type="curve" smooth="yes"/>
      <point x="496" y="560" type="line" smooth="yes"/>
      <point x="496" y="498"/>
      <point x="537" y="457"/>
    </contour>
  </outline>
</glyph>
<glyph name="uni23FD" format="2">
  <advance width="1200"/>
  <unicode hex="23FD"/>
  <note>
uni23FD
</note>
  <outline>
    <contour>
      <point x="600" y="147" type="curve"/>
      <point x="600" y="147" type="line"/>
      <point x="662" y="147"/>
      <point x="703" y="188"/>
      <point x="703" y="249" type="curve" smooth="yes"/>
      <point x="703" y="1250" type="line" smooth="yes"/>
      <point x="703" y="1312"/>
      <point x="661" y="1353"/>
      <point x="599" y="1353" type="curve" smooth="yes"/>
      <point x="538" y="1352"/>
      <point x="497" y="1311"/>
      <point x="497" y="1250" type="curve" smooth="yes"/>
      <point x="497" y="249" type="line" smooth="yes"/>
      <point x="497" y="188"/>
      <point x="538" y="147"/>
    </contour>
  </outline>
</glyph>
<glyph name="uni23FE" format="2">
  <advance width="1200"/>
  <unicode hex="23FE"/>
  <note>
uni23FE
</note>
  <outline>
    <contour>
      <point x="782" y="166" type="curve"/>
      <point x="782" y="166" type="line"/>
      <point x="859" y="166"/>
      <point x="956" y="186"/>
      <point x="1025" y="216" type="curve"/>
      <point x="673" y="301"/>
      <point x="441" y="596"/>
      <point x="441" y="959" type="curve" smooth="yes"/>
      <point x="441" y="1079"/>
      <point x="481" y="1227"/>
      <point x="541" y="1332" type="curve"/>
      <point x="320" y="1237"/>
      <point x="175" y="1015"/>
      <point x="175" y="775" type="curve" smooth="yes"/>
      <point x="175" y="408"/>
      <point x="416" y="166"/>
    </contour>
  </outline>
</glyph>
<glyph name="heartBlackSuit" format="2">
  <advance width="1200"/>
  <unicode hex="2665"/>
  <note>
heart
</note>
  <outline>
    <contour>
      <point x="600" y="244" type="curve"/>
      <point x="600" y="244" type="line"/>
      <point x="917" y="502"/>
      <point x="1151" y="694"/>
      <point x="1151" y="979" type="curve" smooth="yes"/>
      <point x="1151" y="1122"/>
      <point x="1060" y="1254"/>
      <point x="876" y="1254" type="curve" smooth="yes"/>
      <point x="795" y="1254"/>
      <point x="727" y="1223"/>
      <point x="677" y="1163" type="curve"/>
      <point x="626" y="1111"/>
      <point x="600" y="1081"/>
      <point x="600" y="1071" type="curve"/>
      <point x="600" y="1081"/>
      <point x="574" y="1111"/>
      <point x="523" y="1163" type="curve"/>
      <point x="473" y="1223"/>
      <point x="406" y="1254"/>
      <point x="324" y="1254" type="curve" smooth="yes"/>
      <point x="140" y="1254"/>
      <point x="49" y="1122"/>
      <point x="49" y="979" type="curve" smooth="yes"/>
      <point x="49" y="691"/>
      <point x="284" y="489"/>
    </contour>
  </outline>
</glyph>
<glyph name="highVoltageSign" format="2">
  <advance width="1200"/>
  <unicode hex="26A1"/>
  <note>
uni26A1
</note>
  <outline>
    <contour>
      <point x="519" y="668" type="line"/>
      <point x="519" y="668" type="line"/>
      <point x="276" y="102" type="line"/>
      <point x="1004" y="830" type="line"/>
      <point x="681" y="830" type="line"/>
      <point x="923" y="1396" type="line"/>
      <point x="196" y="668" type="line"/>
    </contour>
  </outline>
</glyph>
<glyph name="heavyCircle" format="2">
  <advance width="1200"/>
  <unicode hex="2B58"/>
  <note>
uni2B58
</note>
  <outline>
    <contour>
      <point x="582" y="169" type="curve"/>
      <point x="582" y="169" type="line"/>
      <point x="922" y="169"/>
      <point x="1179" y="418"/>
      <point x="1179" y="749" type="curve" smooth="yes"/>
      <point x="1179" y="1079"/>
      <point x="930" y="1328"/>
      <point x="600" y="1328" type="curve" smooth="yes"/>
      <point x="269" y="1328"/>
      <point x="21" y="1079"/>
      <point x="21" y="749" type="curve" smooth="yes"/>
      <point x="21" y="418"/>
      <point x="262" y="169"/>
    </contour>
    <contour>
      <point x="600" y="368" type="curve"/>
      <point x="600" y="368" type="line"/>
      <point x="383" y="368"/>
      <point x="219" y="531"/>
      <point x="219" y="749" type="curve" smooth="yes"/>
      <point x="219" y="966"/>
      <point x="383" y="1130"/>
      <point x="600" y="1130" type="curve" smooth="yes"/>
      <point x="817" y="1130"/>
      <point x="981" y="966"/>
      <point x="981" y="749" type="curve" smooth="yes"/>
      <point x="981" y="531"/>
      <point x="817" y="368"/>
    </contour>
  </outline>
</glyph>
<glyph name="uniE000" format="2">
  <advance width="1200"/>
  <unicode hex="E000"/>
  <note>
uniE000
</note>
  <outline>
    <contour>
      <point x="231" y="200" type="curve"/>
      <point x="231" y="200" type="line"/>
      <point x="357" y="200" type="line"/>
      <point x="357" y="371"/>
      <point x="375" y="609"/>
      <point x="392" y="769" type="curve"/>
      <point x="458" y="773"/>
      <point x="533" y="775"/>
      <point x="614" y="775" type="curve" smooth="yes"/>
      <point x="718" y="775"/>
      <point x="810" y="773"/>
      <point x="890" y="767" type="curve"/>
      <point x="888" y="779"/>
      <point x="880" y="849"/>
      <point x="876" y="866" type="curve"/>
      <point x="823" y="870"/>
      <point x="763" y="872"/>
      <point x="697" y="872" type="curve"/>
      <point x="697" y="966" type="line"/>
      <point x="577" y="966" type="line"/>
      <point x="577" y="871" type="line"/>
      <point x="493" y="871"/>
      <point x="434" y="869"/>
      <point x="403" y="866" type="curve"/>
      <point x="403" y="877"/>
      <point x="423" y="994"/>
      <point x="428" y="1017" type="curve"/>
      <point x="855" y="1017" type="line"/>
      <point x="826" y="1152" type="line"/>
      <point x="453" y="1152" type="line"/>
      <point x="458" y="1180"/>
      <point x="478" y="1246"/>
      <point x="478" y="1246" type="curve"/>
      <point x="348" y="1236" type="line"/>
      <point x="272" y="927"/>
      <point x="243" y="609"/>
    </contour>
    <contour>
      <point x="953" y="200" type="curve"/>
      <point x="953" y="200" type="line"/>
      <point x="1080" y="200" type="line"/>
      <point x="1072" y="395"/>
      <point x="1057" y="579"/>
      <point x="1033" y="755" type="curve"/>
      <point x="1080" y="755"/>
      <point x="1123" y="750"/>
      <point x="1161" y="739" type="curve"/>
      <point x="1161" y="844" type="line"/>
      <point x="1147" y="846"/>
      <point x="1065" y="856"/>
      <point x="1025" y="859" type="curve"/>
      <point x="1003" y="1013" type="line"/>
      <point x="1149" y="1013" type="line"/>
      <point x="1176" y="1066"/>
      <point x="1189" y="1112"/>
      <point x="1191" y="1152" type="curve"/>
      <point x="979" y="1152" type="line"/>
      <point x="964" y="1236" type="line"/>
      <point x="833" y="1246" type="line"/>
      <point x="899" y="1019"/>
      <point x="953" y="565"/>
    </contour>
    <contour>
      <point x="53" y="1013" type="curve"/>
      <point x="53" y="1013" type="line"/>
      <point x="273" y="1013" type="line"/>
      <point x="298" y="1152" type="line"/>
      <point x="9" y="1152" type="line"/>
      <point x="14" y="1105"/>
      <point x="29" y="1059"/>
    </contour>
    <contour>
      <point x="59" y="838" type="curve"/>
      <point x="59" y="838" type="line"/>
      <point x="59" y="740" type="line"/>
      <point x="98" y="743"/>
      <point x="185" y="758"/>
      <point x="234" y="760" type="curve"/>
      <point x="234" y="780"/>
      <point x="238" y="813"/>
      <point x="248" y="859" type="curve"/>
      <point x="159" y="853"/>
      <point x="96" y="847"/>
    </contour>
  </outline>
</glyph>
<glyph name="uniE001" format="2">
  <advance width="1200"/>
  <unicode hex="E001"/>
  <note>
uniE001
</note>
  <outline>
    <contour>
      <point x="599" y="148" type="curve"/>
      <point x="599" y="148" type="line"/>
      <point x="937" y="148"/>
      <point x="1172" y="368"/>
      <point x="1172" y="711" type="curve" smooth="yes"/>
      <point x="1172" y="923"/>
      <point x="1031" y="1068"/>
      <point x="846" y="1068" type="curve" smooth="yes"/>
      <point x="823" y="1068"/>
      <point x="809" y="1065"/>
      <point x="779" y="1056" type="curve"/>
      <point x="800" y="1093"/>
      <point x="823" y="1124"/>
      <point x="847" y="1148" type="curve"/>
      <point x="1094" y="1103" type="line"/>
      <point x="1066" y="1191"/>
      <point x="954" y="1230"/>
      <point x="839" y="1230" type="curve" smooth="yes"/>
      <point x="770" y="1230"/>
      <point x="695" y="1193"/>
      <point x="662" y="1138" type="curve"/>
      <point x="651" y="980" type="line"/>
      <point x="636" y="980" type="line"/>
      <point x="583" y="1350" type="line"/>
      <point x="464" y="1330" type="line"/>
      <point x="521" y="1141" type="line"/>
      <point x="463" y="1206"/>
      <point x="392" y="1239"/>
      <point x="311" y="1239" type="curve" smooth="yes"/>
      <point x="221" y="1239"/>
      <point x="155" y="1218"/>
      <point x="113" y="1176" type="curve" smooth="yes"/>
      <point x="94" y="1157"/>
      <point x="82" y="1136"/>
      <point x="78" y="1115" type="curve"/>
      <point x="249" y="1161" type="line"/>
      <point x="296" y="1161"/>
      <point x="348" y="1131"/>
      <point x="404" y="1071" type="curve"/>
      <point x="377" y="1073"/>
      <point x="360" y="1074"/>
      <point x="353" y="1074" type="curve" smooth="yes"/>
      <point x="168" y="1074"/>
      <point x="27" y="918"/>
      <point x="27" y="696" type="curve" smooth="yes"/>
      <point x="27" y="371"/>
      <point x="263" y="148"/>
    </contour>
    <contour>
      <point x="991" y="540" type="curve"/>
      <point x="991" y="540" type="line"/>
      <point x="927" y="520" type="line"/>
      <point x="925" y="566"/>
      <point x="919" y="611"/>
      <point x="906" y="654" type="curve" smooth="yes"/>
      <point x="880" y="746"/>
      <point x="833" y="810"/>
      <point x="764" y="847" type="curve"/>
      <point x="800" y="937" type="line"/>
      <point x="922" y="937"/>
      <point x="1008" y="822"/>
      <point x="1008" y="669" type="curve" smooth="yes"/>
      <point x="1008" y="588"/>
      <point x="991" y="550"/>
    </contour>
  </outline>
</glyph>
<glyph name="uniE002" format="2">
  <advance width="1200"/>
  <unicode hex="E002"/>
  <note>
uniE002
</note>
  <outline>
    <contour>
      <point x="599" y="148" type="curve"/>
      <point x="599" y="148" type="line"/>
      <point x="718" y="148"/>
      <point x="828" y="175"/>
      <point x="927" y="236" type="curve" smooth="yes"/>
      <point x="975" y="266"/>
      <point x="1018" y="303"/>
      <point x="1055" y="346" type="curve" smooth="yes"/>
      <point x="1127" y="433"/>
      <point x="1172" y="561"/>
      <point x="1172" y="711" type="curve" smooth="yes"/>
      <point x="1172" y="923"/>
      <point x="1031" y="1068"/>
      <point x="846" y="1068" type="curve" smooth="yes"/>
      <point x="826" y="1068"/>
      <point x="810" y="1065"/>
      <point x="800" y="1062" type="curve" smooth="yes"/>
      <point x="779" y="1056" type="line"/>
      <point x="800" y="1093"/>
      <point x="823" y="1124"/>
      <point x="847" y="1148" type="curve"/>
      <point x="1094" y="1103" type="line"/>
      <point x="1087" y="1125"/>
      <point x="1073" y="1146"/>
      <point x="1051" y="1166" type="curve" smooth="yes"/>
      <point x="1004" y="1208"/>
      <point x="934" y="1230"/>
      <point x="839" y="1230" type="curve" smooth="yes"/>
      <point x="789" y="1230"/>
      <point x="744" y="1215"/>
      <point x="706" y="1184" type="curve"/>
      <point x="687" y="1171"/>
      <point x="672" y="1155"/>
      <point x="662" y="1138" type="curve"/>
      <point x="651" y="980" type="line"/>
      <point x="636" y="980" type="line"/>
      <point x="583" y="1350" type="line"/>
      <point x="464" y="1330" type="line"/>
      <point x="521" y="1141" type="line"/>
      <point x="463" y="1206"/>
      <point x="392" y="1239"/>
      <point x="311" y="1239" type="curve" smooth="yes"/>
      <point x="221" y="1239"/>
      <point x="155" y="1218"/>
      <point x="113" y="1176" type="curve" smooth="yes"/>
      <point x="94" y="1157"/>
      <point x="82" y="1136"/>
      <point x="78" y="1115" type="curve"/>
      <point x="249" y="1161" type="line"/>
      <point x="296" y="1161"/>
      <point x="348" y="1131"/>
      <point x="404" y="1071" type="curve"/>
      <point x="377" y="1073"/>
      <point x="360" y="1074"/>
      <point x="353" y="1074" type="curve" smooth="yes"/>
      <point x="168" y="1074"/>
      <point x="27" y="918"/>
      <point x="27" y="696" type="curve" smooth="yes"/>
      <point x="27" y="544"/>
      <point x="82" y="407"/>
      <point x="179" y="308" type="curve" smooth="yes"/>
      <point x="276" y="208"/>
      <point x="425" y="148"/>
    </contour>
    <contour>
      <point x="602" y="255" type="curve"/>
      <point x="602" y="255" type="line"/>
      <point x="446" y="255"/>
      <point x="296" y="344"/>
      <point x="211" y="485" type="curve" smooth="yes"/>
      <point x="168" y="556"/>
      <point x="147" y="631"/>
      <point x="147" y="712" type="curve" smooth="yes"/>
      <point x="147" y="861"/>
      <point x="231" y="955"/>
      <point x="363" y="955" type="curve" smooth="yes"/>
      <point x="424" y="955"/>
      <point x="484" y="936"/>
      <point x="544" y="896" type="curve"/>
      <point x="660" y="896" type="line"/>
      <point x="718" y="936"/>
      <point x="778" y="955"/>
      <point x="841" y="955" type="curve" smooth="yes"/>
      <point x="974" y="955"/>
      <point x="1059" y="861"/>
      <point x="1059" y="712" type="curve" smooth="yes"/>
      <point x="1059" y="554"/>
      <point x="965" y="403"/>
      <point x="824" y="319" type="curve" smooth="yes"/>
      <point x="754" y="276"/>
      <point x="680" y="255"/>
    </contour>
  </outline>
</glyph>
<glyph name="uniE005" format="2">
  <advance width="1200"/>
  <unicode hex="E005"/>
  <note>
uniE005
</note>
  <outline>
    <contour>
      <point x="530" y="1098" type="curve"/>
      <point x="530" y="1098" type="line"/>
      <point x="532" y="1094"/>
      <point x="533" y="1088"/>
      <point x="533" y="1083" type="curve" smooth="yes"/>
      <point x="533" y="1065"/>
      <point x="525" y="1043"/>
      <point x="510" y="1012" type="curve"/>
      <point x="510" y="1012"/>
      <point x="571" y="1057"/>
      <point x="582" y="1066" type="curve" smooth="yes"/>
      <point x="597" y="1081"/>
      <point x="609" y="1103"/>
      <point x="609" y="1129" type="curve" smooth="yes"/>
      <point x="609" y="1152"/>
      <point x="600" y="1178"/>
      <point x="576" y="1207" type="curve" smooth="yes"/>
      <point x="554" y="1233"/>
      <point x="544" y="1259"/>
      <point x="544" y="1286" type="curve" smooth="yes"/>
      <point x="544" y="1292"/>
      <point x="544" y="1298"/>
      <point x="545" y="1304" type="curve" smooth="yes"/>
      <point x="549" y="1320"/>
      <point x="553" y="1333"/>
      <point x="560" y="1343" type="curve"/>
      <point x="535" y="1329"/>
      <point x="515" y="1314"/>
      <point x="499" y="1299" type="curve" smooth="yes"/>
      <point x="474" y="1274"/>
      <point x="461" y="1250"/>
      <point x="461" y="1228" type="curve" smooth="yes"/>
      <point x="461" y="1216"/>
      <point x="464" y="1204"/>
      <point x="471" y="1193" type="curve" smooth="yes"/>
      <point x="494" y="1153"/>
      <point x="521" y="1131"/>
    </contour>
    <contour>
      <point x="384" y="1040" type="curve"/>
      <point x="384" y="1040" type="line"/>
      <point x="390" y="1032"/>
      <point x="393" y="1022"/>
      <point x="397" y="1010" type="curve" smooth="yes"/>
      <point x="399" y="1005"/>
      <point x="399" y="1000"/>
      <point x="399" y="994" type="curve" smooth="yes"/>
      <point x="399" y="974"/>
      <point x="390" y="949"/>
      <point x="372" y="913" type="curve"/>
      <point x="374" y="916"/>
      <point x="462" y="982"/>
      <point x="473" y="995" type="curve" smooth="yes"/>
      <point x="482" y="1008"/>
      <point x="487" y="1025"/>
      <point x="487" y="1043" type="curve" smooth="yes"/>
      <point x="487" y="1071"/>
      <point x="476" y="1103"/>
      <point x="450" y="1135" type="curve" smooth="yes"/>
      <point x="425" y="1165"/>
      <point x="412" y="1196"/>
      <point x="412" y="1228" type="curve" smooth="yes"/>
      <point x="412" y="1234"/>
      <point x="413" y="1240"/>
      <point x="413" y="1247" type="curve"/>
      <point x="416" y="1263"/>
      <point x="422" y="1278"/>
      <point x="431" y="1292" type="curve"/>
      <point x="405" y="1278"/>
      <point x="381" y="1261"/>
      <point x="361" y="1241" type="curve" smooth="yes"/>
      <point x="333" y="1214"/>
      <point x="318" y="1187"/>
      <point x="318" y="1160" type="curve" smooth="yes"/>
      <point x="318" y="1147"/>
      <point x="321" y="1134"/>
      <point x="329" y="1121" type="curve" smooth="yes"/>
      <point x="345" y="1092"/>
      <point x="372" y="1059"/>
    </contour>
    <contour>
      <point x="372" y="913" type="curve"/>
      <point x="372" y="913" type="line"/>
      <point x="372" y="913"/>
      <point x="372" y="913"/>
    </contour>
    <contour>
      <point x="1003" y="808" type="curve"/>
      <point x="1003" y="808" type="line"/>
      <point x="937" y="808"/>
      <point x="878" y="775"/>
      <point x="842" y="722" type="curve"/>
      <point x="842" y="838" type="line" smooth="yes"/>
      <point x="842" y="861"/>
      <point x="830" y="873"/>
      <point x="804" y="873" type="curve" smooth="yes"/>
      <point x="38" y="873" type="line" smooth="yes"/>
      <point x="12" y="873"/>
      <point x="-1" y="861"/>
      <point x="-1" y="838" type="curve" smooth="yes"/>
      <point x="-1" y="560" type="line" smooth="yes"/>
      <point x="-1" y="412"/>
      <point x="83" y="280"/>
      <point x="213" y="209" type="curve" smooth="yes"/>
      <point x="277" y="174"/>
      <point x="347" y="156"/>
      <point x="422" y="156" type="curve" smooth="yes"/>
      <point x="631" y="156"/>
      <point x="806" y="306"/>
      <point x="838" y="507" type="curve"/>
      <point x="874" y="451"/>
      <point x="935" y="418"/>
      <point x="1003" y="418" type="curve" smooth="yes"/>
      <point x="1110" y="418"/>
      <point x="1200" y="504"/>
      <point x="1200" y="611" type="curve" smooth="yes"/>
      <point x="1200" y="719"/>
      <point x="1110" y="808"/>
    </contour>
    <contour>
      <point x="1003" y="542" type="curve"/>
      <point x="1003" y="542" type="line"/>
      <point x="964" y="542"/>
      <point x="930" y="573"/>
      <point x="930" y="611" type="curve" smooth="yes"/>
      <point x="930" y="656"/>
      <point x="964" y="678"/>
      <point x="1000" y="678" type="curve" smooth="yes"/>
      <point x="1035" y="678"/>
      <point x="1071" y="656"/>
      <point x="1071" y="611" type="curve" smooth="yes"/>
      <point x="1071" y="573"/>
      <point x="1042" y="542"/>
    </contour>
  </outline>
</glyph>
<glyph name="uniE006" format="2">
  <advance width="1200"/>
  <unicode hex="E006"/>
  <note>
uniE006
</note>
  <outline>
    <contour>
      <point x="516" y="154" type="curve"/>
      <point x="516" y="154" type="line"/>
      <point x="670" y="154"/>
      <point x="796" y="179"/>
      <point x="894" y="230" type="curve" smooth="yes"/>
      <point x="937" y="253"/>
      <point x="971" y="279"/>
      <point x="996" y="306" type="curve"/>
      <point x="977" y="335"/>
      <point x="955" y="360"/>
      <point x="930" y="381" type="curve" smooth="yes"/>
      <point x="871" y="433"/>
      <point x="792" y="466"/>
      <point x="692" y="481" type="curve"/>
      <point x="638" y="333" type="line"/>
      <point x="617" y="332" type="line"/>
      <point x="617" y="340"/>
      <point x="617" y="350"/>
      <point x="617" y="362" type="curve" smooth="yes"/>
      <point x="616" y="375"/>
      <point x="616" y="385"/>
      <point x="616" y="392" type="curve" smooth="yes"/>
      <point x="616" y="442"/>
      <point x="618" y="493"/>
      <point x="624" y="544" type="curve" smooth="yes"/>
      <point x="627" y="571"/>
      <point x="630" y="594"/>
      <point x="633" y="615" type="curve" smooth="yes"/>
      <point x="638" y="658"/>
      <point x="650" y="717"/>
      <point x="656" y="749" type="curve" smooth="yes"/>
      <point x="662" y="785"/>
      <point x="674" y="831"/>
      <point x="680" y="859" type="curve" smooth="yes"/>
      <point x="684" y="877"/>
      <point x="699" y="928"/>
      <point x="699" y="935" type="curve"/>
      <point x="802" y="836"/>
      <point x="872" y="731"/>
      <point x="907" y="618" type="curve"/>
      <point x="919" y="618" type="line"/>
      <point x="951" y="666"/>
      <point x="967" y="717"/>
      <point x="967" y="767" type="curve" smooth="yes"/>
      <point x="967" y="825"/>
      <point x="948" y="880"/>
      <point x="912" y="932" type="curve" smooth="yes"/>
      <point x="894" y="955"/>
      <point x="876" y="976"/>
      <point x="856" y="996" type="curve"/>
      <point x="915" y="988"/>
      <point x="976" y="931"/>
      <point x="1016" y="865" type="curve" smooth="yes"/>
      <point x="1036" y="834"/>
      <point x="1055" y="794"/>
      <point x="1074" y="746" type="curve"/>
      <point x="1090" y="746" type="line"/>
      <point x="1111" y="800"/>
      <point x="1122" y="849"/>
      <point x="1122" y="896" type="curve" smooth="yes"/>
      <point x="1122" y="980"/>
      <point x="1085" y="1050"/>
      <point x="1013" y="1106" type="curve" smooth="yes"/>
      <point x="978" y="1132"/>
      <point x="942" y="1151"/>
      <point x="906" y="1164" type="curve"/>
      <point x="953" y="1170"/>
      <point x="982" y="1173"/>
      <point x="995" y="1173" type="curve" smooth="yes"/>
      <point x="1063" y="1173"/>
      <point x="1117" y="1160"/>
      <point x="1157" y="1133" type="curve"/>
      <point x="1166" y="1140" type="line"/>
      <point x="1114" y="1246"/>
      <point x="1031" y="1299"/>
      <point x="913" y="1299" type="curve" smooth="yes"/>
      <point x="873" y="1299"/>
      <point x="830" y="1291"/>
      <point x="781" y="1276" type="curve"/>
      <point x="766" y="1273"/>
      <point x="748" y="1265"/>
      <point x="726" y="1255" type="curve"/>
      <point x="638" y="1315"/>
      <point x="552" y="1344"/>
      <point x="468" y="1344" type="curve" smooth="yes"/>
      <point x="389" y="1344"/>
      <point x="313" y="1314"/>
      <point x="239" y="1254" type="curve" smooth="yes"/>
      <point x="209" y="1229"/>
      <point x="184" y="1199"/>
      <point x="161" y="1166" type="curve"/>
      <point x="168" y="1154" type="line"/>
      <point x="228" y="1186"/>
      <point x="285" y="1202"/>
      <point x="338" y="1202" type="curve" smooth="yes"/>
      <point x="378" y="1202"/>
      <point x="418" y="1193"/>
      <point x="461" y="1176" type="curve" smooth="yes"/>
      <point x="479" y="1168"/>
      <point x="495" y="1160"/>
      <point x="507" y="1151" type="curve"/>
      <point x="399" y="1142"/>
      <point x="306" y="1092"/>
      <point x="255" y="1038" type="curve" smooth="yes"/>
      <point x="229" y="1010"/>
      <point x="207" y="981"/>
      <point x="190" y="949" type="curve" smooth="yes"/>
      <point x="155" y="886"/>
      <point x="145" y="842"/>
      <point x="145" y="815" type="curve"/>
      <point x="158" y="815" type="line"/>
      <point x="290" y="921"/>
      <point x="442" y="964"/>
      <point x="568" y="974" type="curve"/>
      <point x="488" y="818"/>
      <point x="435" y="656"/>
      <point x="412" y="490" type="curve"/>
      <point x="293" y="484"/>
      <point x="194" y="452"/>
      <point x="116" y="395" type="curve" smooth="yes"/>
      <point x="81" y="368"/>
      <point x="54" y="339"/>
      <point x="34" y="306" type="curve"/>
      <point x="57" y="279"/>
      <point x="91" y="253"/>
      <point x="136" y="230" type="curve" smooth="yes"/>
      <point x="236" y="179"/>
      <point x="363" y="154"/>
    </contour>
  </outline>
</glyph>
<glyph name="uniE007" format="2">
  <advance width="1200"/>
  <unicode hex="E007"/>
  <note>
uniE007
</note>
  <outline>
    <contour>
      <point x="647" y="145" type="curve"/>
      <point x="647" y="145" type="line"/>
      <point x="716" y="145"/>
      <point x="759" y="189"/>
      <point x="759" y="252" type="curve" smooth="yes"/>
      <point x="759" y="263"/>
      <point x="757" y="276"/>
      <point x="751" y="294" type="curve" smooth="yes"/>
      <point x="746" y="311"/>
      <point x="743" y="323"/>
      <point x="743" y="332" type="curve" smooth="yes"/>
      <point x="743" y="368"/>
      <point x="793" y="392"/>
      <point x="867" y="392" type="curve" smooth="yes"/>
      <point x="948" y="392"/>
      <point x="1010" y="421"/>
      <point x="1010" y="478" type="curve" smooth="yes"/>
      <point x="1010" y="492"/>
      <point x="1004" y="510"/>
      <point x="992" y="531" type="curve" smooth="yes"/>
      <point x="981" y="551"/>
      <point x="975" y="567"/>
      <point x="975" y="577" type="curve" smooth="yes"/>
      <point x="975" y="615"/>
      <point x="1042" y="631"/>
      <point x="1087" y="651" type="curve" smooth="yes"/>
      <point x="1120" y="665"/>
      <point x="1148" y="694"/>
      <point x="1148" y="734" type="curve" smooth="yes"/>
      <point x="1148" y="778"/>
      <point x="1109" y="809"/>
      <point x="1039" y="809" type="curve" smooth="yes"/>
      <point x="946" y="809"/>
      <point x="868" y="827"/>
      <point x="784" y="876" type="curve" smooth="yes"/>
      <point x="701" y="924"/>
      <point x="623" y="1018"/>
      <point x="562" y="1151" type="curve" smooth="yes"/>
      <point x="499" y="1285"/>
      <point x="419" y="1353"/>
      <point x="322" y="1353" type="curve" smooth="yes"/>
      <point x="176" y="1353"/>
      <point x="52" y="1192"/>
      <point x="52" y="967" type="curve" smooth="yes"/>
      <point x="52" y="867"/>
      <point x="83" y="741"/>
      <point x="135" y="620" type="curve" smooth="yes"/>
      <point x="160" y="559"/>
      <point x="191" y="500"/>
      <point x="229" y="443" type="curve" smooth="yes"/>
      <point x="304" y="328"/>
      <point x="387" y="238"/>
      <point x="491" y="184" type="curve" smooth="yes"/>
      <point x="543" y="158"/>
      <point x="595" y="145"/>
    </contour>
    <contour>
      <point x="442" y="904" type="curve"/>
      <point x="442" y="904" type="line"/>
      <point x="409" y="904"/>
      <point x="376" y="936"/>
      <point x="376" y="999" type="curve" smooth="yes"/>
      <point x="376" y="1062"/>
      <point x="409" y="1095"/>
      <point x="442" y="1095" type="curve" smooth="yes"/>
      <point x="474" y="1095"/>
      <point x="507" y="1062"/>
      <point x="507" y="999" type="curve" smooth="yes"/>
      <point x="507" y="936"/>
      <point x="474" y="904"/>
    </contour>
    <contour>
      <point x="212" y="835" type="curve"/>
      <point x="212" y="835" type="line"/>
      <point x="177" y="835"/>
      <point x="152" y="883"/>
      <point x="152" y="949" type="curve" smooth="yes"/>
      <point x="152" y="1028"/>
      <point x="183" y="1067"/>
      <point x="214" y="1067" type="curve" smooth="yes"/>
      <point x="245" y="1067"/>
      <point x="277" y="1028"/>
      <point x="277" y="949" type="curve" smooth="yes"/>
      <point x="277" y="884"/>
      <point x="248" y="835"/>
    </contour>
  </outline>
</glyph>
<glyph name="uniE008" format="2">
  <advance width="1200"/>
  <unicode hex="E008"/>
  <note>
uniE008
</note>
  <outline>
    <contour>
      <point x="591" y="129" type="curve"/>
      <point x="591" y="129" type="line"/>
      <point x="597" y="129"/>
      <point x="606" y="129"/>
      <point x="615" y="129" type="curve" smooth="yes"/>
      <point x="625" y="130"/>
      <point x="633" y="130"/>
      <point x="639" y="130" type="curve"/>
      <point x="639" y="352" type="line" smooth="yes"/>
      <point x="639" y="409"/>
      <point x="627" y="439"/>
      <point x="604" y="439" type="curve" smooth="yes"/>
      <point x="588" y="439"/>
      <point x="569" y="431"/>
      <point x="544" y="415" type="curve" smooth="yes"/>
      <point x="520" y="400"/>
      <point x="495" y="392"/>
      <point x="470" y="392" type="curve" smooth="yes"/>
      <point x="401" y="392"/>
      <point x="343" y="453"/>
      <point x="319" y="521" type="curve" smooth="yes"/>
      <point x="306" y="555"/>
      <point x="300" y="588"/>
      <point x="300" y="621" type="curve" smooth="yes"/>
      <point x="300" y="737"/>
      <point x="374" y="847"/>
      <point x="475" y="847" type="curve" smooth="yes"/>
      <point x="493" y="847"/>
      <point x="516" y="840"/>
      <point x="544" y="825" type="curve" smooth="yes"/>
      <point x="571" y="810"/>
      <point x="591" y="802"/>
      <point x="606" y="802" type="curve" smooth="yes"/>
      <point x="628" y="802"/>
      <point x="639" y="820"/>
      <point x="639" y="856" type="curve" smooth="yes"/>
      <point x="639" y="1171" type="line" smooth="yes"/>
      <point x="639" y="1207"/>
      <point x="634" y="1253"/>
      <point x="624" y="1307" type="curve" smooth="yes"/>
      <point x="619" y="1331"/>
      <point x="614" y="1352"/>
      <point x="609" y="1370" type="curve"/>
      <point x="483" y="1347" type="line"/>
      <point x="543" y="1148" type="line"/>
      <point x="481" y="1217"/>
      <point x="407" y="1252"/>
      <point x="320" y="1252" type="curve" smooth="yes"/>
      <point x="229" y="1252"/>
      <point x="159" y="1230"/>
      <point x="112" y="1186" type="curve" smooth="yes"/>
      <point x="92" y="1168"/>
      <point x="79" y="1146"/>
      <point x="73" y="1121" type="curve"/>
      <point x="255" y="1171" type="line"/>
      <point x="305" y="1171"/>
      <point x="360" y="1138"/>
      <point x="419" y="1073" type="curve"/>
      <point x="392" y="1076"/>
      <point x="374" y="1076"/>
      <point x="365" y="1076" type="curve" smooth="yes"/>
      <point x="270" y="1076"/>
      <point x="183" y="1035"/>
      <point x="121" y="966" type="curve" smooth="yes"/>
      <point x="58" y="897"/>
      <point x="20" y="794"/>
      <point x="20" y="678" type="curve" smooth="yes"/>
      <point x="20" y="516"/>
      <point x="75" y="379"/>
      <point x="172" y="282" type="curve" smooth="yes"/>
      <point x="270" y="186"/>
      <point x="417" y="129"/>
    </contour>
    <contour>
      <point x="726" y="406" type="curve"/>
      <point x="726" y="406" type="line"/>
      <point x="726" y="145" type="line"/>
      <point x="893" y="189"/>
      <point x="1037" y="301"/>
      <point x="1119" y="462" type="curve" smooth="yes"/>
      <point x="1160" y="542"/>
      <point x="1181" y="627"/>
      <point x="1181" y="717" type="curve" smooth="yes"/>
      <point x="1181" y="939"/>
      <point x="1037" y="1082"/>
      <point x="843" y="1082" type="curve" smooth="yes"/>
      <point x="814" y="1082" type="line"/>
      <point x="831" y="1115"/>
      <point x="851" y="1139"/>
      <point x="874" y="1163" type="curve"/>
      <point x="1119" y="1118" type="line"/>
      <point x="1115" y="1142"/>
      <point x="1103" y="1164"/>
      <point x="1086" y="1184" type="curve" smooth="yes"/>
      <point x="1046" y="1229"/>
      <point x="981" y="1252"/>
      <point x="891" y="1252" type="curve" smooth="yes"/>
      <point x="832" y="1252"/>
      <point x="777" y="1234"/>
      <point x="726" y="1199" type="curve"/>
      <point x="726" y="835" type="line" smooth="yes"/>
      <point x="726" y="766"/>
      <point x="684" y="713"/>
      <point x="618" y="713" type="curve" smooth="yes"/>
      <point x="564" y="713"/>
      <point x="532" y="731"/>
      <point x="511" y="745" type="curve" smooth="yes"/>
      <point x="499" y="752"/>
      <point x="489" y="756"/>
      <point x="478" y="756" type="curve" smooth="yes"/>
      <point x="422" y="756"/>
      <point x="389" y="691"/>
      <point x="389" y="621" type="curve" smooth="yes"/>
      <point x="389" y="552"/>
      <point x="419" y="482"/>
      <point x="470" y="482" type="curve" smooth="yes"/>
      <point x="498" y="482"/>
      <point x="565" y="527"/>
      <point x="618" y="527" type="curve" smooth="yes"/>
      <point x="689" y="527"/>
      <point x="726" y="481"/>
    </contour>
  </outline>
</glyph>
<glyph name="uniE009" format="2">
  <advance width="1200"/>
  <unicode hex="E009"/>
  <note>
uniE009
</note>
  <outline>
    <contour>
      <point x="603" y="570" type="curve"/>
      <point x="603" y="570" type="line"/>
      <point x="614" y="570"/>
      <point x="626" y="571"/>
      <point x="638" y="573" type="curve" smooth="yes"/>
      <point x="688" y="579"/>
      <point x="728" y="615"/>
      <point x="730" y="663" type="curve" smooth="yes"/>
      <point x="769" y="1323" type="line"/>
      <point x="431" y="1323" type="line"/>
      <point x="471" y="663" type="line" smooth="yes"/>
      <point x="474" y="616"/>
      <point x="515" y="582"/>
      <point x="563" y="573" type="curve" smooth="yes"/>
      <point x="576" y="571"/>
      <point x="590" y="570"/>
    </contour>
    <contour>
      <point x="602" y="176" type="curve"/>
      <point x="602" y="176" type="line"/>
      <point x="677" y="176"/>
      <point x="738" y="236"/>
      <point x="738" y="314" type="curve" smooth="yes"/>
      <point x="738" y="388"/>
      <point x="676" y="451"/>
      <point x="602" y="451" type="curve" smooth="yes"/>
      <point x="524" y="451"/>
      <point x="462" y="389"/>
      <point x="462" y="314" type="curve" smooth="yes"/>
      <point x="462" y="236"/>
      <point x="524" y="176"/>
    </contour>
  </outline>
</glyph>
<glyph name="uniE00A" format="2">
  <advance width="1200"/>
  <unicode hex="E00A"/>
  <note>
uniE00A
</note>
  <outline>
    <contour>
      <point x="554" y="742" type="line"/>
      <point x="554" y="742" type="line"/>
      <point x="439" y="172" type="line"/>
      <point x="505" y="172" type="line"/>
      <point x="916" y="982" type="line"/>
      <point x="899" y="1008" type="line"/>
      <point x="609" y="921" type="line"/>
      <point x="724" y="1324" type="line"/>
      <point x="362" y="1326" type="line"/>
      <point x="284" y="676" type="line"/>
      <point x="312" y="656" type="line"/>
    </contour>
  </outline>
</glyph>
<glyph name="uniE200" format="2">
  <advance width="1200"/>
  <unicode hex="E200"/>
  <note>
uniE200
</note>
  <outline>
    <contour>
      <point x="830" y="157" type="curve"/>
      <point x="830" y="157" type="line"/>
      <point x="854" y="157"/>
      <point x="875" y="165"/>
      <point x="892" y="181" type="curve" smooth="yes"/>
      <point x="936" y="227" type="line" smooth="yes"/>
      <point x="953" y="243"/>
      <point x="962" y="263"/>
      <point x="962" y="287" type="curve" smooth="yes"/>
      <point x="962" y="312"/>
      <point x="953" y="332"/>
      <point x="936" y="348" type="curve" smooth="yes"/>
      <point x="537" y="749" type="line"/>
      <point x="936" y="1149" type="line" smooth="yes"/>
      <point x="953" y="1166"/>
      <point x="962" y="1186"/>
      <point x="962" y="1210" type="curve" smooth="yes"/>
      <point x="962" y="1234"/>
      <point x="953" y="1254"/>
      <point x="936" y="1270" type="curve" smooth="yes"/>
      <point x="892" y="1316" type="line" smooth="yes"/>
      <point x="875" y="1332"/>
      <point x="854" y="1340"/>
      <point x="830" y="1340" type="curve" smooth="yes"/>
      <point x="805" y="1340"/>
      <point x="785" y="1332"/>
      <point x="769" y="1316" type="curve" smooth="yes"/>
      <point x="313" y="857" type="line"/>
      <point x="311" y="857"/>
      <point x="310" y="857"/>
      <point x="308" y="855" type="curve" smooth="yes"/>
      <point x="265" y="809" type="line" smooth="yes"/>
      <point x="247" y="791"/>
      <point x="238" y="771"/>
      <point x="238" y="749" type="curve" smooth="yes"/>
      <point x="238" y="726"/>
      <point x="247" y="706"/>
      <point x="265" y="688" type="curve" smooth="yes"/>
      <point x="308" y="642" type="line"/>
      <point x="313" y="640" type="line"/>
      <point x="769" y="181" type="line" smooth="yes"/>
      <point x="785" y="165"/>
      <point x="805" y="157"/>
    </contour>
  </outline>
</glyph>
<glyph name="uniE201" format="2">
  <advance width="1200"/>
  <unicode hex="E201"/>
  <note>
uniE201
</note>
  <outline>
    <contour>
      <point x="139" y="592" type="curve"/>
      <point x="139" y="592" type="line"/>
      <point x="970" y="592" type="line" smooth="yes"/>
      <point x="1088" y="592"/>
      <point x="1189" y="689"/>
      <point x="1189" y="812" type="curve" smooth="yes"/>
      <point x="1189" y="934"/>
      <point x="1092" y="1034"/>
      <point x="970" y="1034" type="curve" smooth="yes"/>
      <point x="945" y="1034"/>
      <point x="919" y="1029"/>
      <point x="890" y="1017" type="curve"/>
      <point x="871" y="1152"/>
      <point x="753" y="1254"/>
      <point x="615" y="1254" type="curve" smooth="yes"/>
      <point x="463" y="1254"/>
      <point x="337" y="1128"/>
      <point x="337" y="974" type="curve" smooth="yes"/>
      <point x="337" y="964" type="line"/>
      <point x="335" y="964"/>
      <point x="334" y="965"/>
      <point x="332" y="965" type="curve"/>
      <point x="330" y="966"/>
      <point x="329" y="966"/>
      <point x="327" y="966" type="curve" smooth="yes"/>
      <point x="243" y="966"/>
      <point x="178" y="898"/>
      <point x="178" y="814" type="curve" smooth="yes"/>
      <point x="178" y="812" type="line"/>
      <point x="165" y="817"/>
      <point x="152" y="819"/>
      <point x="139" y="819" type="curve" smooth="yes"/>
      <point x="68" y="819"/>
      <point x="11" y="759"/>
      <point x="11" y="689" type="curve" smooth="yes"/>
      <point x="11" y="624"/>
      <point x="54" y="592"/>
    </contour>
    <contour>
      <point x="776" y="527" type="curve"/>
      <point x="776" y="527" type="line"/>
      <point x="789" y="527"/>
      <point x="796" y="534"/>
      <point x="796" y="546" type="curve" smooth="yes"/>
      <point x="796" y="561"/>
      <point x="789" y="568"/>
      <point x="776" y="568" type="curve" smooth="yes"/>
      <point x="762" y="568"/>
      <point x="755" y="561"/>
      <point x="755" y="546" type="curve" smooth="yes"/>
      <point x="755" y="534"/>
      <point x="762" y="527"/>
    </contour>
    <contour>
      <point x="238" y="505" type="curve"/>
      <point x="238" y="505" type="line"/>
      <point x="251" y="505"/>
      <point x="257" y="512"/>
      <point x="257" y="527" type="curve" smooth="yes"/>
      <point x="257" y="540"/>
      <point x="251" y="546"/>
      <point x="238" y="546" type="curve" smooth="yes"/>
      <point x="223" y="546"/>
      <point x="216" y="540"/>
      <point x="216" y="527" type="curve" smooth="yes"/>
      <point x="216" y="512"/>
      <point x="223" y="505"/>
    </contour>
    <contour>
      <point x="441" y="486" type="curve"/>
      <point x="441" y="486" type="line"/>
      <point x="455" y="486"/>
      <point x="463" y="493"/>
      <point x="463" y="505" type="curve" smooth="yes"/>
      <point x="463" y="520"/>
      <point x="455" y="527"/>
      <point x="441" y="527" type="curve" smooth="yes"/>
      <point x="428" y="527"/>
      <point x="421" y="520"/>
      <point x="421" y="505" type="curve" smooth="yes"/>
      <point x="421" y="493"/>
      <point x="428" y="486"/>
    </contour>
    <contour>
      <point x="933" y="486" type="curve"/>
      <point x="933" y="486" type="line"/>
      <point x="948" y="486"/>
      <point x="955" y="493"/>
      <point x="955" y="505" type="curve" smooth="yes"/>
      <point x="955" y="520"/>
      <point x="948" y="527"/>
      <point x="933" y="527" type="curve" smooth="yes"/>
      <point x="921" y="527"/>
      <point x="914" y="520"/>
      <point x="914" y="505" type="curve" smooth="yes"/>
      <point x="914" y="493"/>
      <point x="921" y="486"/>
    </contour>
    <contour>
      <point x="660" y="404" type="curve"/>
      <point x="660" y="404" type="line"/>
      <point x="675" y="404"/>
      <point x="682" y="410"/>
      <point x="682" y="423" type="curve" smooth="yes"/>
      <point x="682" y="438"/>
      <point x="675" y="445"/>
      <point x="660" y="445" type="curve" smooth="yes"/>
      <point x="648" y="445"/>
      <point x="641" y="438"/>
      <point x="641" y="423" type="curve" smooth="yes"/>
      <point x="641" y="410"/>
      <point x="648" y="404"/>
    </contour>
    <contour>
      <point x="796" y="382" type="curve"/>
      <point x="796" y="382" type="line"/>
      <point x="810" y="382"/>
      <point x="817" y="389"/>
      <point x="817" y="404" type="curve" smooth="yes"/>
      <point x="817" y="417"/>
      <point x="810" y="423"/>
      <point x="796" y="423" type="curve" smooth="yes"/>
      <point x="783" y="423"/>
      <point x="776" y="417"/>
      <point x="776" y="404" type="curve" smooth="yes"/>
      <point x="776" y="389"/>
      <point x="783" y="382"/>
    </contour>
    <contour>
      <point x="349" y="363" type="curve"/>
      <point x="349" y="363" type="line"/>
      <point x="362" y="363"/>
      <point x="368" y="369"/>
      <point x="368" y="382" type="curve" smooth="yes"/>
      <point x="368" y="397"/>
      <point x="362" y="404"/>
      <point x="349" y="404" type="curve" smooth="yes"/>
      <point x="335" y="404"/>
      <point x="327" y="397"/>
      <point x="327" y="382" type="curve" smooth="yes"/>
      <point x="327" y="369"/>
      <point x="335" y="363"/>
    </contour>
    <contour>
      <point x="508" y="341" type="curve"/>
      <point x="508" y="341" type="line"/>
      <point x="521" y="341"/>
      <point x="528" y="348"/>
      <point x="528" y="363" type="curve" smooth="yes"/>
      <point x="528" y="375"/>
      <point x="521" y="382"/>
      <point x="508" y="382" type="curve" smooth="yes"/>
      <point x="494" y="382"/>
      <point x="487" y="375"/>
      <point x="487" y="363" type="curve" smooth="yes"/>
      <point x="487" y="348"/>
      <point x="494" y="341"/>
    </contour>
    <contour>
      <point x="238" y="300" type="curve"/>
      <point x="238" y="300" type="line"/>
      <point x="251" y="300"/>
      <point x="257" y="307"/>
      <point x="257" y="322" type="curve" smooth="yes"/>
      <point x="257" y="334"/>
      <point x="251" y="341"/>
      <point x="238" y="341" type="curve" smooth="yes"/>
      <point x="223" y="341"/>
      <point x="216" y="334"/>
      <point x="216" y="322" type="curve" smooth="yes"/>
      <point x="216" y="307"/>
      <point x="223" y="300"/>
    </contour>
    <contour>
      <point x="660" y="244" type="curve"/>
      <point x="660" y="244" type="line"/>
      <point x="675" y="244"/>
      <point x="682" y="251"/>
      <point x="682" y="264" type="curve" smooth="yes"/>
      <point x="682" y="278"/>
      <point x="675" y="286"/>
      <point x="660" y="286" type="curve" smooth="yes"/>
      <point x="648" y="286"/>
      <point x="641" y="278"/>
      <point x="641" y="264" type="curve" smooth="yes"/>
      <point x="641" y="251"/>
      <point x="648" y="244"/>
    </contour>
  </outline>
</glyph>
<glyph name="uniE202" format="2">
  <advance width="1200"/>
  <unicode hex="E202"/>
  <note>
uniE202
</note>
  <outline>
    <contour>
      <point x="484" y="170" type="curve"/>
      <point x="484" y="170" type="line"/>
      <point x="496" y="165" type="line"/>
      <point x="704" y="165" type="line"/>
      <point x="738" y="170"/>
      <point x="760" y="194"/>
      <point x="769" y="240" type="curve" smooth="yes"/>
      <point x="773" y="256"/>
      <point x="775" y="273"/>
      <point x="775" y="292" type="curve" smooth="yes"/>
      <point x="775" y="324"/>
      <point x="770" y="359"/>
      <point x="760" y="397" type="curve" smooth="yes"/>
      <point x="758" y="406"/>
      <point x="757" y="417"/>
      <point x="757" y="428" type="curve" smooth="yes"/>
      <point x="757" y="455"/>
      <point x="761" y="486"/>
      <point x="769" y="522" type="curve" smooth="yes"/>
      <point x="782" y="590"/>
      <point x="788" y="660"/>
      <point x="788" y="729" type="curve" smooth="yes"/>
      <point x="788" y="784"/>
      <point x="784" y="838"/>
      <point x="776" y="894" type="curve" smooth="yes"/>
      <point x="770" y="945"/>
      <point x="754" y="986"/>
      <point x="727" y="1034" type="curve" smooth="yes"/>
      <point x="713" y="1058"/>
      <point x="706" y="1072"/>
      <point x="704" y="1075" type="curve" smooth="yes"/>
      <point x="685" y="1114"/>
      <point x="673" y="1174"/>
      <point x="673" y="1203" type="curve"/>
      <point x="670" y="1227" type="line"/>
      <point x="687" y="1227" type="line"/>
      <point x="687" y="1259" type="line"/>
      <point x="682" y="1263" type="line"/>
      <point x="682" y="1329" type="line"/>
      <point x="600" y="1333" type="line"/>
      <point x="518" y="1329" type="line"/>
      <point x="518" y="1263" type="line"/>
      <point x="513" y="1259" type="line"/>
      <point x="513" y="1227" type="line"/>
      <point x="530" y="1227" type="line"/>
      <point x="530" y="1171"/>
      <point x="519" y="1120"/>
      <point x="496" y="1075" type="curve" smooth="yes"/>
      <point x="487" y="1056"/>
      <point x="458" y="1011"/>
      <point x="441" y="965" type="curve" smooth="yes"/>
      <point x="433" y="943"/>
      <point x="427" y="920"/>
      <point x="424" y="894" type="curve" smooth="yes"/>
      <point x="416" y="838"/>
      <point x="412" y="784"/>
      <point x="412" y="729" type="curve" smooth="yes"/>
      <point x="412" y="660"/>
      <point x="418" y="590"/>
      <point x="431" y="522" type="curve" smooth="yes"/>
      <point x="439" y="486"/>
      <point x="443" y="455"/>
      <point x="443" y="429" type="curve" smooth="yes"/>
      <point x="443" y="418"/>
      <point x="442" y="408"/>
      <point x="441" y="399" type="curve" smooth="yes"/>
      <point x="432" y="357"/>
      <point x="427" y="321"/>
      <point x="427" y="289" type="curve" smooth="yes"/>
      <point x="427" y="271"/>
      <point x="428" y="255"/>
      <point x="431" y="240" type="curve" smooth="yes"/>
      <point x="441" y="201"/>
      <point x="465" y="173"/>
    </contour>
  </outline>
</glyph>
<glyph name="uniE203" format="2">
  <advance width="1200"/>
  <unicode hex="E203"/>
  <note>
uniE203
</note>
  <outline>
    <contour>
      <point x="243" y="512" type="curve"/>
      <point x="243" y="512" type="line"/>
      <point x="243" y="486" type="line"/>
      <point x="957" y="486" type="line"/>
      <point x="957" y="512" type="line" smooth="yes"/>
      <point x="957" y="564"/>
      <point x="994" y="604"/>
      <point x="1069" y="633" type="curve"/>
      <point x="1069" y="720" type="line" smooth="yes"/>
      <point x="1069" y="791"/>
      <point x="982" y="847"/>
      <point x="873" y="851" type="curve"/>
      <point x="873" y="853" type="line"/>
      <point x="337" y="853" type="line" smooth="yes"/>
      <point x="224" y="853"/>
      <point x="132" y="794"/>
      <point x="132" y="720" type="curve" smooth="yes"/>
      <point x="132" y="633" type="line"/>
      <point x="206" y="604"/>
      <point x="243" y="564"/>
    </contour>
    <contour>
      <point x="11" y="595" type="curve"/>
      <point x="11" y="595" type="line"/>
      <point x="11" y="249" type="line"/>
      <point x="204" y="249" type="line"/>
      <point x="204" y="512" type="line" smooth="yes"/>
      <point x="204" y="570"/>
      <point x="136" y="619"/>
      <point x="42" y="628" type="curve"/>
      <point x="21" y="624"/>
      <point x="11" y="612"/>
    </contour>
    <contour>
      <point x="996" y="512" type="curve"/>
      <point x="996" y="512" type="line"/>
      <point x="996" y="249" type="line"/>
      <point x="1189" y="249" type="line"/>
      <point x="1189" y="595" type="line" smooth="yes"/>
      <point x="1189" y="612"/>
      <point x="1179" y="624"/>
      <point x="1158" y="628" type="curve"/>
      <point x="1064" y="619"/>
      <point x="996" y="570"/>
    </contour>
    <contour>
      <point x="240" y="382" type="curve"/>
      <point x="240" y="382" type="line"/>
      <point x="240" y="249" type="line"/>
      <point x="960" y="249" type="line"/>
      <point x="960" y="382" type="line" smooth="yes"/>
      <point x="960" y="432"/>
      <point x="926" y="457"/>
      <point x="858" y="457" type="curve" smooth="yes"/>
      <point x="342" y="457" type="line" smooth="yes"/>
      <point x="274" y="457"/>
      <point x="240" y="432"/>
    </contour>
  </outline>
</glyph>
<glyph name="uniE204" format="2">
  <advance width="1200"/>
  <unicode hex="E204"/>
  <note>
uniE204
</note>
  <outline>
    <contour>
      <point x="407" y="1029" type="curve"/>
      <point x="407" y="1029" type="line"/>
      <point x="411" y="1029" type="line"/>
      <point x="411" y="1034" type="line"/>
      <point x="410" y="1036"/>
      <point x="409" y="1039"/>
      <point x="409" y="1046" type="curve" smooth="yes"/>
      <point x="409" y="1063" type="line" smooth="yes"/>
      <point x="409" y="1070"/>
      <point x="411" y="1076"/>
      <point x="414" y="1082" type="curve"/>
      <point x="414" y="1087" type="line"/>
      <point x="416" y="1090" type="line"/>
      <point x="418" y="1091"/>
      <point x="419" y="1093"/>
      <point x="419" y="1094" type="curve"/>
      <point x="426" y="1102" type="line" smooth="yes"/>
      <point x="429" y="1105"/>
      <point x="431" y="1106"/>
      <point x="433" y="1106" type="curve"/>
      <point x="436" y="1109"/>
      <point x="438" y="1112"/>
      <point x="438" y="1114" type="curve"/>
      <point x="440" y="1114"/>
      <point x="442" y="1116"/>
      <point x="445" y="1119" type="curve"/>
      <point x="448" y="1119" type="line"/>
      <point x="450" y="1121" type="line" smooth="yes"/>
      <point x="453" y="1124"/>
      <point x="455" y="1126"/>
      <point x="457" y="1126" type="curve"/>
      <point x="462" y="1131" type="line"/>
      <point x="472" y="1138" type="line" smooth="yes"/>
      <point x="484" y="1148"/>
      <point x="494" y="1159"/>
      <point x="501" y="1172" type="curve" smooth="yes"/>
      <point x="510" y="1188"/>
      <point x="516" y="1202"/>
      <point x="518" y="1215" type="curve" smooth="yes"/>
      <point x="519" y="1223"/>
      <point x="520" y="1230"/>
      <point x="520" y="1237" type="curve" smooth="yes"/>
      <point x="520" y="1272"/>
      <point x="501" y="1298"/>
      <point x="469" y="1324" type="curve"/>
      <point x="466" y="1324"/>
      <point x="460" y="1328"/>
      <point x="457" y="1331" type="curve"/>
      <point x="455" y="1331" type="line" smooth="yes"/>
      <point x="453" y="1331"/>
      <point x="452" y="1329"/>
      <point x="452" y="1326" type="curve" smooth="yes"/>
      <point x="452" y="1314" type="line" smooth="yes"/>
      <point x="452" y="1307"/>
      <point x="451" y="1295"/>
      <point x="448" y="1275" type="curve"/>
      <point x="448" y="1269"/>
      <point x="446" y="1263"/>
      <point x="443" y="1256" type="curve" smooth="yes"/>
      <point x="441" y="1253"/>
      <point x="439" y="1250"/>
      <point x="437" y="1246" type="curve"/>
      <point x="434" y="1243"/>
      <point x="433" y="1241"/>
      <point x="433" y="1239" type="curve"/>
      <point x="421" y="1227" type="line"/>
      <point x="418" y="1222"/>
      <point x="413" y="1218"/>
      <point x="407" y="1213" type="curve" smooth="yes"/>
      <point x="402" y="1210" type="line"/>
      <point x="402" y="1208" type="line"/>
      <point x="399" y="1205" type="line"/>
      <point x="397" y="1205" type="line"/>
      <point x="382" y="1191" type="line" smooth="yes"/>
      <point x="379" y="1188"/>
      <point x="375" y="1181"/>
      <point x="368" y="1172" type="curve"/>
      <point x="361" y="1167"/>
      <point x="358" y="1160"/>
      <point x="356" y="1152" type="curve"/>
      <point x="354" y="1151"/>
      <point x="353" y="1149"/>
      <point x="353" y="1148" type="curve" smooth="yes"/>
      <point x="352" y="1144"/>
      <point x="351" y="1142"/>
      <point x="351" y="1140" type="curve"/>
      <point x="349" y="1135" type="line"/>
      <point x="349" y="1131" type="line" smooth="yes"/>
      <point x="349" y="1126"/>
      <point x="348" y="1122"/>
      <point x="346" y="1119" type="curve"/>
      <point x="346" y="1109" type="line" smooth="yes"/>
      <point x="346" y="1104"/>
      <point x="348" y="1097"/>
      <point x="351" y="1087" type="curve"/>
      <point x="351" y="1082"/>
      <point x="352" y="1079"/>
      <point x="353" y="1077" type="curve"/>
      <point x="353" y="1075" type="line"/>
      <point x="355" y="1073"/>
      <point x="356" y="1072"/>
      <point x="356" y="1070" type="curve"/>
      <point x="358" y="1068"/>
      <point x="359" y="1066"/>
      <point x="361" y="1063" type="curve"/>
      <point x="362" y="1060"/>
      <point x="364" y="1058"/>
      <point x="366" y="1056" type="curve" smooth="yes"/>
      <point x="375" y="1046" type="line" smooth="yes"/>
      <point x="377" y="1044"/>
      <point x="380" y="1042"/>
      <point x="385" y="1039" type="curve"/>
      <point x="387" y="1039"/>
      <point x="387" y="1038"/>
      <point x="387" y="1036" type="curve"/>
      <point x="392" y="1034" type="line"/>
      <point x="392" y="1034"/>
      <point x="397" y="1032"/>
    </contour>
    <contour>
      <point x="597" y="1029" type="curve"/>
      <point x="597" y="1029" type="line"/>
      <point x="602" y="1029" type="line"/>
      <point x="602" y="1031"/>
      <point x="602" y="1032"/>
      <point x="600" y="1034" type="curve"/>
      <point x="600" y="1063" type="line" smooth="yes"/>
      <point x="600" y="1070"/>
      <point x="602" y="1076"/>
      <point x="605" y="1082" type="curve"/>
      <point x="605" y="1087" type="line"/>
      <point x="607" y="1090" type="line"/>
      <point x="607" y="1091"/>
      <point x="608" y="1093"/>
      <point x="609" y="1094" type="curve"/>
      <point x="609" y="1096"/>
      <point x="610" y="1097"/>
      <point x="612" y="1097" type="curve"/>
      <point x="612" y="1099"/>
      <point x="612" y="1099"/>
      <point x="614" y="1099" type="curve"/>
      <point x="629" y="1114" type="line"/>
      <point x="631" y="1114"/>
      <point x="633" y="1116"/>
      <point x="636" y="1119" type="curve"/>
      <point x="638" y="1119" type="line"/>
      <point x="641" y="1121" type="line" smooth="yes"/>
      <point x="644" y="1124"/>
      <point x="646" y="1126"/>
      <point x="648" y="1126" type="curve"/>
      <point x="653" y="1131" type="line"/>
      <point x="662" y="1138" type="line" smooth="yes"/>
      <point x="670" y="1144"/>
      <point x="680" y="1155"/>
      <point x="691" y="1172" type="curve" smooth="yes"/>
      <point x="701" y="1188"/>
      <point x="707" y="1202"/>
      <point x="708" y="1215" type="curve"/>
      <point x="710" y="1222"/>
      <point x="710" y="1228"/>
      <point x="710" y="1233" type="curve" smooth="yes"/>
      <point x="710" y="1242"/>
      <point x="709" y="1250"/>
      <point x="706" y="1256" type="curve"/>
      <point x="704" y="1268"/>
      <point x="701" y="1278"/>
      <point x="694" y="1290" type="curve" smooth="yes"/>
      <point x="689" y="1300"/>
      <point x="678" y="1311"/>
      <point x="660" y="1324" type="curve"/>
      <point x="653" y="1327"/>
      <point x="650" y="1329"/>
      <point x="648" y="1331" type="curve"/>
      <point x="643" y="1331" type="line"/>
      <point x="643" y="1314" type="line" smooth="yes"/>
      <point x="643" y="1307"/>
      <point x="641" y="1295"/>
      <point x="638" y="1275" type="curve"/>
      <point x="635" y="1264"/>
      <point x="633" y="1258"/>
      <point x="631" y="1256" type="curve"/>
      <point x="629" y="1251"/>
      <point x="627" y="1246"/>
      <point x="624" y="1239" type="curve"/>
      <point x="597" y="1213" type="line"/>
      <point x="592" y="1210" type="line"/>
      <point x="592" y="1208" type="line"/>
      <point x="590" y="1205" type="line"/>
      <point x="588" y="1205" type="line"/>
      <point x="585" y="1203" type="line" smooth="yes"/>
      <point x="582" y="1200"/>
      <point x="580" y="1198"/>
      <point x="578" y="1198" type="curve"/>
      <point x="576" y="1193" type="line"/>
      <point x="574" y="1193"/>
      <point x="573" y="1193"/>
      <point x="573" y="1191" type="curve"/>
      <point x="568" y="1188"/>
      <point x="563" y="1181"/>
      <point x="556" y="1172" type="curve"/>
      <point x="547" y="1152" type="line"/>
      <point x="545" y="1151"/>
      <point x="544" y="1149"/>
      <point x="544" y="1148" type="curve"/>
      <point x="542" y="1144"/>
      <point x="542" y="1142"/>
      <point x="542" y="1140" type="curve" smooth="yes"/>
      <point x="542" y="1135" type="line"/>
      <point x="539" y="1133"/>
      <point x="537" y="1121"/>
      <point x="537" y="1119" type="curve" smooth="yes"/>
      <point x="537" y="1109" type="line" smooth="yes"/>
      <point x="537" y="1099"/>
      <point x="538" y="1092"/>
      <point x="539" y="1087" type="curve"/>
      <point x="541" y="1087"/>
      <point x="542" y="1085"/>
      <point x="542" y="1082" type="curve" smooth="yes"/>
      <point x="542" y="1079"/>
      <point x="542" y="1077"/>
      <point x="544" y="1077" type="curve"/>
      <point x="547" y="1075" type="line"/>
      <point x="547" y="1067"/>
      <point x="550" y="1062"/>
      <point x="556" y="1056" type="curve" smooth="yes"/>
      <point x="566" y="1046" type="line" smooth="yes"/>
      <point x="569" y="1043"/>
      <point x="573" y="1041"/>
      <point x="576" y="1039" type="curve"/>
      <point x="578" y="1036" type="line"/>
      <point x="580" y="1035"/>
      <point x="595" y="1029"/>
    </contour>
    <contour>
      <point x="600" y="331" type="curve"/>
      <point x="600" y="331" type="line"/>
      <point x="925" y="331"/>
      <point x="1186" y="595"/>
      <point x="1186" y="921" type="curve"/>
      <point x="13" y="921" type="line"/>
      <point x="13" y="595"/>
      <point x="274" y="331"/>
    </contour>
    <contour>
      <point x="13" y="266" type="line"/>
      <point x="13" y="266" type="line"/>
      <point x="13" y="167" type="line"/>
      <point x="1186" y="167" type="line"/>
      <point x="1186" y="266" type="line"/>
    </contour>
  </outline>
</glyph>
<glyph name="uniE205" format="2">
  <advance width="1200"/>
  <unicode hex="E205"/>
  <note>
uniE205
</note>
  <outline>
    <contour>
      <point x="1089" y="161" type="curve"/>
      <point x="1089" y="161" type="line"/>
      <point x="1097" y="161"/>
      <point x="1101" y="166"/>
      <point x="1104" y="175" type="curve"/>
      <point x="1104" y="177" type="line" smooth="yes"/>
      <point x="1104" y="188"/>
      <point x="1099" y="194"/>
      <point x="1089" y="196" type="curve" smooth="yes"/>
      <point x="1031" y="209"/>
      <point x="981" y="268"/>
      <point x="978" y="329" type="curve" smooth="yes"/>
      <point x="975" y="403"/>
      <point x="915" y="479"/>
      <point x="841" y="496" type="curve"/>
      <point x="838" y="498" type="line"/>
      <point x="806" y="506"/>
      <point x="780" y="522"/>
      <point x="761" y="546" type="curve" smooth="yes"/>
      <point x="739" y="575"/>
      <point x="727" y="604"/>
      <point x="727" y="631" type="curve" smooth="yes"/>
      <point x="724" y="691"/>
      <point x="695" y="738"/>
      <point x="640" y="773" type="curve"/>
      <point x="637" y="776"/>
      <point x="632" y="780"/>
      <point x="626" y="783" type="curve" smooth="yes"/>
      <point x="611" y="791"/>
      <point x="597" y="796"/>
      <point x="585" y="798" type="curve"/>
      <point x="527" y="814"/>
      <point x="477" y="872"/>
      <point x="474" y="933" type="curve"/>
      <point x="471" y="955"/>
      <point x="466" y="974"/>
      <point x="459" y="991" type="curve" smooth="yes"/>
      <point x="438" y="1036"/>
      <point x="408" y="1068"/>
      <point x="367" y="1087" type="curve"/>
      <point x="367" y="1090"/>
      <point x="368" y="1093"/>
      <point x="370" y="1094" type="curve"/>
      <point x="387" y="1117"/>
      <point x="395" y="1139"/>
      <point x="395" y="1161" type="curve" smooth="yes"/>
      <point x="395" y="1193"/>
      <point x="378" y="1226"/>
      <point x="346" y="1259" type="curve" smooth="yes"/>
      <point x="299" y="1306"/>
      <point x="232" y="1335"/>
      <point x="177" y="1335" type="curve" smooth="yes"/>
      <point x="154" y="1335"/>
      <point x="132" y="1329"/>
      <point x="116" y="1317" type="curve"/>
      <point x="102" y="1300"/>
      <point x="96" y="1278"/>
      <point x="96" y="1253" type="curve" smooth="yes"/>
      <point x="96" y="1200"/>
      <point x="125" y="1133"/>
      <point x="172" y="1085" type="curve" smooth="yes"/>
      <point x="204" y="1054"/>
      <point x="236" y="1038"/>
      <point x="267" y="1038" type="curve" smooth="yes"/>
      <point x="285" y="1038"/>
      <point x="303" y="1044"/>
      <point x="322" y="1053" type="curve" smooth="yes"/>
      <point x="343" y="1061" type="line"/>
      <point x="382" y="1046"/>
      <point x="410" y="1019"/>
      <point x="428" y="979" type="curve"/>
      <point x="433" y="971"/>
      <point x="437" y="955"/>
      <point x="440" y="933" type="curve" smooth="yes"/>
      <point x="440" y="930" type="line" smooth="yes"/>
      <point x="443" y="856"/>
      <point x="503" y="780"/>
      <point x="578" y="764" type="curve" smooth="yes"/>
      <point x="589" y="762"/>
      <point x="600" y="758"/>
      <point x="611" y="752" type="curve" smooth="yes"/>
      <point x="616" y="749" type="line" smooth="yes"/>
      <point x="619" y="747"/>
      <point x="623" y="745"/>
      <point x="626" y="742" type="curve" smooth="yes"/>
      <point x="629" y="739"/>
      <point x="635" y="735"/>
      <point x="638" y="735" type="curve"/>
      <point x="643" y="730" type="line" smooth="yes"/>
      <point x="672" y="701"/>
      <point x="688" y="668"/>
      <point x="691" y="631" type="curve" smooth="yes"/>
      <point x="694" y="589"/>
      <point x="708" y="554"/>
      <point x="734" y="525" type="curve" smooth="yes"/>
      <point x="759" y="494"/>
      <point x="791" y="473"/>
      <point x="831" y="462" type="curve" smooth="yes"/>
      <point x="892" y="449"/>
      <point x="941" y="390"/>
      <point x="945" y="329" type="curve" smooth="yes"/>
      <point x="948" y="252"/>
      <point x="1008" y="179"/>
      <point x="1082" y="162" type="curve"/>
      <point x="1085" y="162"/>
      <point x="1087" y="161"/>
    </contour>
  </outline>
</glyph>
<glyph name="uniE206" format="2">
  <advance width="1200"/>
  <unicode hex="E206"/>
  <note>
uniE206
</note>
  <outline>
    <contour>
      <point x="556" y="159" type="curve"/>
      <point x="556" y="159" type="line"/>
      <point x="289" y="201"/>
      <point x="88" y="432"/>
      <point x="88" y="705" type="curve" smooth="yes"/>
      <point x="88" y="995"/>
      <point x="310" y="1233"/>
      <point x="597" y="1256" type="curve" smooth="yes"/>
      <point x="600" y="1256" type="line"/>
      <point x="602" y="1258" type="line"/>
      <point x="628" y="1258"/>
      <point x="641" y="1271"/>
      <point x="641" y="1297" type="curve" smooth="yes"/>
      <point x="641" y="1299" type="line" smooth="yes"/>
      <point x="641" y="1321"/>
      <point x="622" y="1340"/>
      <point x="600" y="1340" type="curve"/>
      <point x="597" y="1338" type="line"/>
      <point x="592" y="1338" type="line" smooth="yes"/>
      <point x="267" y="1331"/>
      <point x="8" y="1070"/>
      <point x="8" y="749" type="curve" smooth="yes"/>
      <point x="8" y="440"/>
      <point x="247" y="182"/>
    </contour>
    <contour>
      <point x="600" y="157" type="curve"/>
      <point x="600" y="157" type="line"/>
      <point x="925" y="157"/>
      <point x="1191" y="423"/>
      <point x="1191" y="749" type="curve" smooth="yes"/>
      <point x="1191" y="1058"/>
      <point x="952" y="1312"/>
      <point x="643" y="1338" type="curve"/>
      <point x="910" y="1296"/>
      <point x="1111" y="1067"/>
      <point x="1111" y="790" type="curve" smooth="yes"/>
      <point x="1111" y="500"/>
      <point x="889" y="261"/>
      <point x="602" y="239" type="curve" smooth="yes"/>
      <point x="597" y="239" type="line" smooth="yes"/>
      <point x="571" y="236"/>
      <point x="559" y="222"/>
      <point x="559" y="198" type="curve" smooth="yes"/>
      <point x="559" y="176"/>
      <point x="577" y="157"/>
    </contour>
  </outline>
</glyph>
<glyph name="uniE207" format="2">
  <advance width="1200"/>
  <unicode hex="E207"/>
  <note>
uniE207
</note>
  <outline>
    <contour>
      <point x="252" y="160" type="curve"/>
      <point x="252" y="160" type="line"/>
      <point x="268" y="160"/>
      <point x="281" y="165"/>
      <point x="293" y="174" type="curve" smooth="yes"/>
      <point x="312" y="191"/>
      <point x="322" y="208"/>
      <point x="322" y="226" type="curve" smooth="yes"/>
      <point x="322" y="240"/>
      <point x="316" y="254"/>
      <point x="305" y="269" type="curve" smooth="yes"/>
      <point x="272" y="309"/>
      <point x="255" y="365"/>
      <point x="255" y="395" type="curve" smooth="yes"/>
      <point x="255" y="403"/>
      <point x="256" y="410"/>
      <point x="259" y="413" type="curve"/>
      <point x="275" y="413"/>
      <point x="288" y="412"/>
      <point x="300" y="409" type="curve" smooth="yes"/>
      <point x="324" y="402"/>
      <point x="363" y="395"/>
      <point x="418" y="387" type="curve"/>
      <point x="444" y="379"/>
      <point x="496" y="372"/>
      <point x="575" y="368" type="curve" smooth="yes"/>
      <point x="582" y="367"/>
      <point x="588" y="367"/>
      <point x="595" y="367" type="curve" smooth="yes"/>
      <point x="828" y="367"/>
      <point x="1027" y="589"/>
      <point x="1068" y="879" type="curve" smooth="yes"/>
      <point x="1072" y="911"/>
      <point x="1075" y="942"/>
      <point x="1075" y="972" type="curve" smooth="yes"/>
      <point x="1075" y="1196"/>
      <point x="940" y="1338"/>
      <point x="763" y="1338" type="curve" smooth="yes"/>
      <point x="584" y="1338"/>
      <point x="451" y="1271"/>
      <point x="451" y="1084" type="curve" smooth="yes"/>
      <point x="451" y="1073"/>
      <point x="451" y="1062"/>
      <point x="452" y="1051" type="curve"/>
      <point x="389" y="1073"/>
      <point x="350" y="1117"/>
      <point x="334" y="1181" type="curve" smooth="yes"/>
      <point x="324" y="1215"/>
      <point x="303" y="1231"/>
      <point x="272" y="1231" type="curve" smooth="yes"/>
      <point x="265" y="1231"/>
      <point x="259" y="1231"/>
      <point x="252" y="1230" type="curve"/>
      <point x="222" y="1222"/>
      <point x="203" y="1195"/>
      <point x="203" y="1166" type="curve" smooth="yes"/>
      <point x="203" y="1160"/>
      <point x="204" y="1154"/>
      <point x="206" y="1148" type="curve" smooth="yes"/>
      <point x="244" y="1000"/>
      <point x="362" y="928"/>
      <point x="481" y="906" type="curve"/>
      <point x="495" y="859"/>
      <point x="502" y="813"/>
      <point x="502" y="768" type="curve" smooth="yes"/>
      <point x="502" y="731"/>
      <point x="498" y="695"/>
      <point x="488" y="660" type="curve" smooth="yes"/>
      <point x="486" y="655" type="line"/>
      <point x="486" y="653" type="line"/>
      <point x="468" y="593"/>
      <point x="413" y="556"/>
      <point x="319" y="541" type="curve"/>
      <point x="300" y="546"/>
      <point x="282" y="548"/>
      <point x="265" y="548" type="curve" smooth="yes"/>
      <point x="214" y="548"/>
      <point x="176" y="528"/>
      <point x="150" y="486" type="curve" smooth="yes"/>
      <point x="133" y="456"/>
      <point x="125" y="422"/>
      <point x="125" y="386" type="curve" smooth="yes"/>
      <point x="125" y="318"/>
      <point x="154" y="244"/>
      <point x="201" y="187" type="curve" smooth="yes"/>
      <point x="214" y="169"/>
      <point x="230" y="160"/>
    </contour>
  </outline>
</glyph>
<glyph name="uniE208" format="2">
  <advance width="1200"/>
  <unicode hex="E208"/>
  <note>
uniE208
</note>
  <outline>
    <contour>
      <point x="175" y="721" type="curve"/>
      <point x="175" y="721" type="line"/>
      <point x="940" y="721" type="line" smooth="yes"/>
      <point x="1053" y="721"/>
      <point x="1143" y="811"/>
      <point x="1143" y="924" type="curve" smooth="yes"/>
      <point x="1143" y="1037"/>
      <point x="1053" y="1129"/>
      <point x="940" y="1129" type="curve" smooth="yes"/>
      <point x="921" y="1129"/>
      <point x="897" y="1125"/>
      <point x="868" y="1115" type="curve"/>
      <point x="848" y="1240"/>
      <point x="740" y="1332"/>
      <point x="614" y="1332" type="curve" smooth="yes"/>
      <point x="472" y="1332"/>
      <point x="356" y="1216"/>
      <point x="356" y="1074" type="curve"/>
      <point x="358" y="1071" type="line"/>
      <point x="358" y="1064" type="line"/>
      <point x="355" y="1066"/>
      <point x="352" y="1067"/>
      <point x="349" y="1067" type="curve" smooth="yes"/>
      <point x="271" y="1067"/>
      <point x="209" y="1004"/>
      <point x="209" y="927" type="curve" smooth="yes"/>
      <point x="209" y="924" type="line"/>
      <point x="199" y="929"/>
      <point x="187" y="931"/>
      <point x="175" y="931" type="curve" smooth="yes"/>
      <point x="110" y="931"/>
      <point x="57" y="878"/>
      <point x="57" y="811" type="curve" smooth="yes"/>
      <point x="57" y="751"/>
      <point x="96" y="721"/>
    </contour>
    <contour>
      <point x="385" y="168" type="line"/>
      <point x="385" y="168" type="line"/>
      <point x="387" y="166" type="line"/>
      <point x="718" y="569" type="line" smooth="yes"/>
      <point x="720" y="572"/>
      <point x="722" y="574"/>
      <point x="722" y="575" type="curve" smooth="yes"/>
      <point x="722" y="578"/>
      <point x="719" y="579"/>
      <point x="713" y="579" type="curve" smooth="yes"/>
      <point x="655" y="579" type="line" smooth="yes"/>
      <point x="649" y="579"/>
      <point x="647" y="581"/>
      <point x="647" y="585" type="curve" smooth="yes"/>
      <point x="647" y="587"/>
      <point x="647" y="589"/>
      <point x="648" y="591" type="curve" smooth="yes"/>
      <point x="682" y="663" type="line"/>
      <point x="685" y="666"/>
      <point x="687" y="669"/>
      <point x="687" y="671" type="curve" smooth="yes"/>
      <point x="687" y="674"/>
      <point x="682" y="675"/>
      <point x="675" y="675" type="curve" smooth="yes"/>
      <point x="525" y="675" type="line" smooth="yes"/>
      <point x="517" y="675"/>
      <point x="510" y="671"/>
      <point x="506" y="663" type="curve" smooth="yes"/>
      <point x="409" y="468" type="line" smooth="yes"/>
      <point x="407" y="465"/>
      <point x="407" y="463"/>
      <point x="407" y="461" type="curve" smooth="yes"/>
      <point x="407" y="458"/>
      <point x="410" y="456"/>
      <point x="416" y="456" type="curve" smooth="yes"/>
      <point x="486" y="456" type="line" smooth="yes"/>
      <point x="492" y="456"/>
      <point x="495" y="454"/>
      <point x="495" y="450" type="curve" smooth="yes"/>
      <point x="495" y="448"/>
      <point x="495" y="446"/>
      <point x="494" y="444" type="curve" smooth="yes"/>
    </contour>
  </outline>
</glyph>
<glyph name="uniE209" format="2">
  <advance width="1200"/>
  <unicode hex="E209"/>
  <note>
uniE209
</note>
  <outline>
    <contour>
      <point x="702" y="153" type="curve"/>
      <point x="702" y="153" type="line"/>
      <point x="725" y="153"/>
      <point x="746" y="174"/>
      <point x="746" y="196" type="curve" smooth="yes"/>
      <point x="746" y="580" type="line"/>
      <point x="770" y="587" type="line"/>
      <point x="961" y="213" type="line" smooth="yes"/>
      <point x="969" y="197"/>
      <point x="983" y="189"/>
      <point x="1002" y="189" type="curve" smooth="yes"/>
      <point x="1005" y="189"/>
      <point x="1012" y="191"/>
      <point x="1021" y="194" type="curve"/>
      <point x="1039" y="203"/>
      <point x="1048" y="215"/>
      <point x="1048" y="229" type="curve" smooth="yes"/>
      <point x="1048" y="237"/>
      <point x="1045" y="245"/>
      <point x="1040" y="254" type="curve" smooth="yes"/>
      <point x="850" y="631" type="line"/>
      <point x="874" y="650"/>
      <point x="893" y="674"/>
      <point x="908" y="703" type="curve"/>
      <point x="913" y="702"/>
      <point x="919" y="701"/>
      <point x="925" y="701" type="curve" smooth="yes"/>
      <point x="954" y="701"/>
      <point x="982" y="719"/>
      <point x="1009" y="754" type="curve"/>
      <point x="1115" y="718" type="line"/>
      <point x="1120" y="717"/>
      <point x="1125" y="716"/>
      <point x="1129" y="716" type="curve" smooth="yes"/>
      <point x="1152" y="716"/>
      <point x="1168" y="732"/>
      <point x="1181" y="766" type="curve" smooth="yes"/>
      <point x="1187" y="782"/>
      <point x="1190" y="796"/>
      <point x="1190" y="807" type="curve" smooth="yes"/>
      <point x="1190" y="826"/>
      <point x="1181" y="840"/>
      <point x="1164" y="848" type="curve"/>
      <point x="1057" y="887" type="line"/>
      <point x="1060" y="943"/>
      <point x="1044" y="979"/>
      <point x="1007" y="995" type="curve"/>
      <point x="326" y="1246" type="line"/>
      <point x="313" y="1293"/>
      <point x="287" y="1324"/>
      <point x="246" y="1338" type="curve" smooth="yes"/>
      <point x="233" y="1343"/>
      <point x="220" y="1345"/>
      <point x="205" y="1345" type="curve" smooth="yes"/>
      <point x="134" y="1345"/>
      <point x="61" y="1281"/>
      <point x="29" y="1191" type="curve" smooth="yes"/>
      <point x="16" y="1157"/>
      <point x="10" y="1123"/>
      <point x="10" y="1092" type="curve" smooth="yes"/>
      <point x="10" y="1018"/>
      <point x="43" y="958"/>
      <point x="99" y="937" type="curve" smooth="yes"/>
      <point x="112" y="933"/>
      <point x="125" y="930"/>
      <point x="140" y="930" type="curve" smooth="yes"/>
      <point x="169" y="930"/>
      <point x="195" y="938"/>
      <point x="217" y="954" type="curve"/>
      <point x="478" y="860" type="line"/>
      <point x="473" y="844"/>
      <point x="471" y="826"/>
      <point x="471" y="807" type="curve" smooth="yes"/>
      <point x="471" y="735"/>
      <point x="498" y="676"/>
      <point x="553" y="631" type="curve"/>
      <point x="362" y="254" type="line" smooth="yes"/>
      <point x="358" y="246"/>
      <point x="357" y="238"/>
      <point x="357" y="231" type="curve" smooth="yes"/>
      <point x="357" y="216"/>
      <point x="365" y="203"/>
      <point x="381" y="194" type="curve"/>
      <point x="391" y="191"/>
      <point x="398" y="189"/>
      <point x="403" y="189" type="curve" smooth="yes"/>
      <point x="421" y="189"/>
      <point x="434" y="197"/>
      <point x="442" y="213" type="curve" smooth="yes"/>
      <point x="632" y="587" type="line"/>
      <point x="635" y="584"/>
      <point x="654" y="580"/>
      <point x="657" y="580" type="curve"/>
      <point x="657" y="196" type="line" smooth="yes"/>
      <point x="657" y="174"/>
      <point x="677" y="153"/>
    </contour>
    <contour>
      <point x="139" y="1018" type="curve"/>
      <point x="139" y="1018" type="line"/>
      <point x="136" y="1018"/>
      <point x="133" y="1018"/>
      <point x="130" y="1020" type="curve"/>
      <point x="110" y="1027"/>
      <point x="99" y="1053"/>
      <point x="99" y="1087" type="curve" smooth="yes"/>
      <point x="99" y="1109"/>
      <point x="104" y="1134"/>
      <point x="113" y="1160" type="curve" smooth="yes"/>
      <point x="133" y="1218"/>
      <point x="176" y="1256"/>
      <point x="205" y="1256" type="curve" smooth="yes"/>
      <point x="215" y="1256" type="line"/>
      <point x="233" y="1248"/>
      <point x="246" y="1220"/>
      <point x="246" y="1183" type="curve" smooth="yes"/>
      <point x="246" y="1163"/>
      <point x="242" y="1140"/>
      <point x="234" y="1116" type="curve" smooth="yes"/>
      <point x="211" y="1058"/>
      <point x="168" y="1018"/>
    </contour>
    <contour>
      <point x="771" y="664" type="curve"/>
      <point x="771" y="664" type="line"/>
      <point x="767" y="664"/>
      <point x="764" y="664"/>
      <point x="760" y="665" type="curve"/>
      <point x="718" y="668"/>
      <point x="699" y="707"/>
      <point x="699" y="750" type="curve" smooth="yes"/>
      <point x="699" y="804"/>
      <point x="728" y="863"/>
      <point x="777" y="863" type="curve" smooth="yes"/>
      <point x="780" y="863"/>
      <point x="784" y="863"/>
      <point x="787" y="863" type="curve"/>
      <point x="827" y="856"/>
      <point x="845" y="816"/>
      <point x="845" y="773" type="curve" smooth="yes"/>
      <point x="845" y="721"/>
      <point x="817" y="664"/>
    </contour>
  </outline>
</glyph>
<glyph name="uniE20A" format="2">
  <advance width="1200"/>
  <unicode hex="E20A"/>
  <note>
uniE20A
</note>
  <outline>
    <contour>
      <point x="600" y="159" type="curve"/>
      <point x="600" y="159" type="line"/>
      <point x="709" y="159"/>
      <point x="796" y="242"/>
      <point x="796" y="355" type="curve" smooth="yes"/>
      <point x="796" y="420"/>
      <point x="770" y="472"/>
      <point x="718" y="512" type="curve"/>
      <point x="718" y="1222" type="line" smooth="yes"/>
      <point x="718" y="1299"/>
      <point x="659" y="1337"/>
      <point x="600" y="1337" type="curve" smooth="yes"/>
      <point x="541" y="1337"/>
      <point x="482" y="1299"/>
      <point x="482" y="1222" type="curve" smooth="yes"/>
      <point x="482" y="512" type="line"/>
      <point x="431" y="473"/>
      <point x="405" y="421"/>
      <point x="405" y="355" type="curve" smooth="yes"/>
      <point x="405" y="242"/>
      <point x="491" y="159"/>
    </contour>
    <contour>
      <point x="600" y="198" type="curve"/>
      <point x="600" y="198" type="line"/>
      <point x="513" y="198"/>
      <point x="443" y="268"/>
      <point x="443" y="355" type="curve" smooth="yes"/>
      <point x="443" y="416"/>
      <point x="469" y="462"/>
      <point x="520" y="493" type="curve"/>
      <point x="520" y="1222" type="line" smooth="yes"/>
      <point x="520" y="1273"/>
      <point x="560" y="1298"/>
      <point x="600" y="1298" type="curve" smooth="yes"/>
      <point x="640" y="1298"/>
      <point x="680" y="1273"/>
      <point x="680" y="1222" type="curve" smooth="yes"/>
      <point x="680" y="493" type="line"/>
      <point x="731" y="462"/>
      <point x="757" y="416"/>
      <point x="757" y="355" type="curve" smooth="yes"/>
      <point x="757" y="268"/>
      <point x="687" y="198"/>
    </contour>
    <contour>
      <point x="600" y="237" type="curve"/>
      <point x="600" y="237" type="line"/>
      <point x="659" y="237"/>
      <point x="718" y="277"/>
      <point x="718" y="355" type="curve" smooth="yes"/>
      <point x="718" y="410"/>
      <point x="692" y="447"/>
      <point x="639" y="466" type="curve"/>
      <point x="639" y="867" type="line" smooth="yes"/>
      <point x="639" y="893"/>
      <point x="626" y="906"/>
      <point x="600" y="906" type="curve" smooth="yes"/>
      <point x="574" y="906"/>
      <point x="562" y="893"/>
      <point x="562" y="867" type="curve" smooth="yes"/>
      <point x="562" y="466" type="line"/>
      <point x="508" y="447"/>
      <point x="482" y="410"/>
      <point x="482" y="355" type="curve" smooth="yes"/>
      <point x="482" y="277"/>
      <point x="541" y="237"/>
    </contour>
  </outline>
</glyph>
<glyph name="uniE20B" format="2">
  <advance width="1200"/>
  <unicode hex="E20B"/>
  <note>
uniE20B
</note>
  <outline>
    <contour>
      <point x="600" y="159" type="curve"/>
      <point x="600" y="159" type="line"/>
      <point x="709" y="159"/>
      <point x="796" y="246"/>
      <point x="796" y="355" type="curve" smooth="yes"/>
      <point x="796" y="421"/>
      <point x="770" y="473"/>
      <point x="718" y="512" type="curve"/>
      <point x="718" y="1219" type="line" smooth="yes"/>
      <point x="718" y="1299"/>
      <point x="661" y="1337"/>
      <point x="602" y="1337" type="curve" smooth="yes"/>
      <point x="542" y="1337"/>
      <point x="482" y="1297"/>
      <point x="482" y="1219" type="curve" smooth="yes"/>
      <point x="482" y="512" type="line"/>
      <point x="431" y="473"/>
      <point x="405" y="421"/>
      <point x="405" y="355" type="curve" smooth="yes"/>
      <point x="405" y="246"/>
      <point x="491" y="159"/>
    </contour>
    <contour>
      <point x="600" y="198" type="curve"/>
      <point x="600" y="198" type="line"/>
      <point x="513" y="198"/>
      <point x="443" y="271"/>
      <point x="443" y="355" type="curve" smooth="yes"/>
      <point x="443" y="416"/>
      <point x="469" y="462"/>
      <point x="520" y="493" type="curve"/>
      <point x="520" y="1219" type="line" smooth="yes"/>
      <point x="520" y="1261"/>
      <point x="555" y="1299"/>
      <point x="600" y="1299" type="curve" smooth="yes"/>
      <point x="642" y="1299"/>
      <point x="677" y="1265"/>
      <point x="677" y="1219" type="curve" smooth="yes"/>
      <point x="677" y="493" type="line"/>
      <point x="731" y="464"/>
      <point x="757" y="418"/>
      <point x="757" y="355" type="curve" smooth="yes"/>
      <point x="757" y="271"/>
      <point x="687" y="198"/>
    </contour>
    <contour>
      <point x="600" y="240" type="curve"/>
      <point x="600" y="240" type="line"/>
      <point x="659" y="240"/>
      <point x="718" y="278"/>
      <point x="718" y="355" type="curve" smooth="yes"/>
      <point x="718" y="410"/>
      <point x="692" y="447"/>
      <point x="639" y="466" type="curve"/>
      <point x="639" y="1128" type="line" smooth="yes"/>
      <point x="639" y="1155"/>
      <point x="626" y="1169"/>
      <point x="600" y="1169" type="curve" smooth="yes"/>
      <point x="574" y="1169"/>
      <point x="562" y="1155"/>
      <point x="562" y="1128" type="curve" smooth="yes"/>
      <point x="562" y="466" type="line"/>
      <point x="508" y="447"/>
      <point x="482" y="410"/>
      <point x="482" y="355" type="curve" smooth="yes"/>
      <point x="482" y="278"/>
      <point x="541" y="240"/>
    </contour>
  </outline>
</glyph>
<glyph name="uniE20C" format="2">
  <advance width="1200"/>
  <unicode hex="E20C"/>
  <note>
uniE20C
</note>
  <outline>
    <contour>
      <point x="600" y="155" type="curve"/>
      <point x="600" y="155" type="line"/>
      <point x="709" y="155"/>
      <point x="798" y="243"/>
      <point x="798" y="353" type="curve" smooth="yes"/>
      <point x="798" y="420"/>
      <point x="772" y="473"/>
      <point x="718" y="510" type="curve"/>
      <point x="718" y="1224" type="line" smooth="yes"/>
      <point x="718" y="1303"/>
      <point x="661" y="1341"/>
      <point x="602" y="1341" type="curve" smooth="yes"/>
      <point x="542" y="1341"/>
      <point x="482" y="1302"/>
      <point x="482" y="1224" type="curve" smooth="yes"/>
      <point x="482" y="512" type="line"/>
      <point x="429" y="472"/>
      <point x="402" y="418"/>
      <point x="402" y="353" type="curve" smooth="yes"/>
      <point x="402" y="243"/>
      <point x="491" y="155"/>
    </contour>
    <contour>
      <point x="600" y="193" type="curve"/>
      <point x="600" y="193" type="line"/>
      <point x="513" y="193"/>
      <point x="441" y="266"/>
      <point x="441" y="353" type="curve" smooth="yes"/>
      <point x="441" y="414"/>
      <point x="467" y="459"/>
      <point x="520" y="490" type="curve"/>
      <point x="520" y="1224" type="line" smooth="yes"/>
      <point x="520" y="1277"/>
      <point x="560" y="1303"/>
      <point x="600" y="1303" type="curve" smooth="yes"/>
      <point x="640" y="1303"/>
      <point x="680" y="1277"/>
      <point x="680" y="1224" type="curve" smooth="yes"/>
      <point x="680" y="490" type="line"/>
      <point x="731" y="459"/>
      <point x="757" y="414"/>
      <point x="757" y="353" type="curve" smooth="yes"/>
      <point x="760" y="266"/>
      <point x="687" y="193"/>
    </contour>
    <contour>
      <point x="600" y="235" type="curve"/>
      <point x="600" y="235" type="line"/>
      <point x="659" y="235"/>
      <point x="718" y="274"/>
      <point x="718" y="353" type="curve" smooth="yes"/>
      <point x="718" y="408"/>
      <point x="692" y="444"/>
      <point x="639" y="464" type="curve"/>
      <point x="639" y="609" type="line" smooth="yes"/>
      <point x="639" y="635"/>
      <point x="626" y="647"/>
      <point x="600" y="647" type="curve" smooth="yes"/>
      <point x="574" y="647"/>
      <point x="562" y="635"/>
      <point x="562" y="609" type="curve" smooth="yes"/>
      <point x="562" y="464" type="line"/>
      <point x="508" y="444"/>
      <point x="482" y="408"/>
      <point x="482" y="353" type="curve" smooth="yes"/>
      <point x="482" y="274"/>
      <point x="541" y="235"/>
    </contour>
  </outline>
</glyph>
<glyph name="uniE20D" format="2">
  <advance width="1200"/>
  <unicode hex="E20D"/>
  <note>
uniE20D
</note>
  <outline>
    <contour>
      <point x="1129" y="156" type="curve"/>
      <point x="1129" y="156" type="line"/>
      <point x="1162" y="156"/>
      <point x="1192" y="187"/>
      <point x="1192" y="220" type="curve" smooth="yes"/>
      <point x="1192" y="234"/>
      <point x="1187" y="249"/>
      <point x="1174" y="261" type="curve" smooth="yes"/>
      <point x="689" y="749" type="line"/>
      <point x="1174" y="1234" type="line"/>
      <point x="1186" y="1248"/>
      <point x="1192" y="1263"/>
      <point x="1192" y="1277" type="curve" smooth="yes"/>
      <point x="1192" y="1312"/>
      <point x="1161" y="1341"/>
      <point x="1129" y="1341" type="curve" smooth="yes"/>
      <point x="1114" y="1341"/>
      <point x="1100" y="1336"/>
      <point x="1087" y="1321" type="curve"/>
      <point x="602" y="836" type="line"/>
      <point x="117" y="1321" type="line"/>
      <point x="104" y="1336"/>
      <point x="89" y="1342"/>
      <point x="74" y="1342" type="curve" smooth="yes"/>
      <point x="41" y="1342"/>
      <point x="9" y="1310"/>
      <point x="9" y="1277" type="curve" smooth="yes"/>
      <point x="9" y="1262"/>
      <point x="14" y="1248"/>
      <point x="27" y="1234" type="curve" smooth="yes"/>
      <point x="513" y="749" type="line"/>
      <point x="27" y="261" type="line" smooth="yes"/>
      <point x="15" y="250"/>
      <point x="8" y="235"/>
      <point x="8" y="218" type="curve" smooth="yes"/>
      <point x="8" y="200"/>
      <point x="15" y="186"/>
      <point x="27" y="174" type="curve" smooth="yes"/>
      <point x="39" y="163"/>
      <point x="53" y="158"/>
      <point x="71" y="158" type="curve" smooth="yes"/>
      <point x="90" y="158"/>
      <point x="105" y="163"/>
      <point x="117" y="174" type="curve" smooth="yes"/>
      <point x="602" y="660" type="line"/>
      <point x="1087" y="174" type="line" smooth="yes"/>
      <point x="1100" y="162"/>
      <point x="1114" y="156"/>
    </contour>
  </outline>
</glyph>
<glyph name="uniE20E" format="2">
  <advance width="1200"/>
  <unicode hex="E20E"/>
  <note>
uniE20E
</note>
  <outline>
    <contour>
      <point x="315" y="1167" type="curve"/>
      <point x="315" y="1167" type="line"/>
      <point x="315" y="904" type="line"/>
      <point x="885" y="904" type="line"/>
      <point x="885" y="1167" type="line" smooth="yes"/>
      <point x="885" y="1266"/>
      <point x="805" y="1345"/>
      <point x="709" y="1345" type="curve" smooth="yes"/>
      <point x="491" y="1345" type="line" smooth="yes"/>
      <point x="392" y="1345"/>
      <point x="315" y="1266"/>
    </contour>
    <contour>
      <point x="354" y="153" type="curve"/>
      <point x="354" y="153" type="line"/>
      <point x="846" y="153" type="line" smooth="yes"/>
      <point x="859" y="153"/>
      <point x="870" y="158"/>
      <point x="878" y="167" type="curve"/>
      <point x="882" y="175"/>
      <point x="885" y="183"/>
      <point x="885" y="190" type="curve" smooth="yes"/>
      <point x="885" y="195"/>
      <point x="884" y="199"/>
      <point x="882" y="203" type="curve" smooth="yes"/>
      <point x="861" y="261"/>
      <point x="823" y="305"/>
      <point x="767" y="334" type="curve"/>
      <point x="767" y="440" type="line"/>
      <point x="896" y="467"/>
      <point x="936" y="563"/>
      <point x="989" y="674" type="curve"/>
      <point x="1013" y="674" type="line" smooth="yes"/>
      <point x="1051" y="674"/>
      <point x="1080" y="703"/>
      <point x="1080" y="742" type="curve" smooth="yes"/>
      <point x="1080" y="781"/>
      <point x="1063" y="802"/>
      <point x="1027" y="807" type="curve"/>
      <point x="173" y="807" type="line"/>
      <point x="137" y="802"/>
      <point x="120" y="781"/>
      <point x="120" y="742" type="curve" smooth="yes"/>
      <point x="120" y="703"/>
      <point x="149" y="674"/>
      <point x="185" y="674" type="curve" smooth="yes"/>
      <point x="211" y="674" type="line"/>
      <point x="257" y="575"/>
      <point x="272" y="542"/>
      <point x="330" y="491" type="curve" smooth="yes"/>
      <point x="359" y="465"/>
      <point x="393" y="447"/>
      <point x="433" y="438" type="curve"/>
      <point x="433" y="334" type="line"/>
      <point x="377" y="305"/>
      <point x="339" y="261"/>
      <point x="317" y="203" type="curve" smooth="yes"/>
      <point x="316" y="199"/>
      <point x="315" y="195"/>
      <point x="315" y="190" type="curve" smooth="yes"/>
      <point x="315" y="183"/>
      <point x="317" y="175"/>
      <point x="322" y="167" type="curve"/>
      <point x="330" y="158"/>
      <point x="341" y="153"/>
    </contour>
  </outline>
</glyph>
<glyph name="uniE20F" format="2">
  <advance width="1200"/>
  <unicode hex="E20F"/>
  <note>
uniE20F
</note>
  <outline>
    <contour>
      <point x="1027" y="164" type="curve"/>
      <point x="1027" y="164" type="line"/>
      <point x="1072" y="164"/>
      <point x="1111" y="180"/>
      <point x="1143" y="212" type="curve" smooth="yes"/>
      <point x="1174" y="244"/>
      <point x="1189" y="282"/>
      <point x="1189" y="325" type="curve" smooth="yes"/>
      <point x="1189" y="369"/>
      <point x="1174" y="407"/>
      <point x="1143" y="439" type="curve" smooth="yes"/>
      <point x="559" y="1023" type="line"/>
      <point x="561" y="1032"/>
      <point x="561" y="1043"/>
      <point x="561" y="1056" type="curve" smooth="yes"/>
      <point x="561" y="1070"/>
      <point x="561" y="1085"/>
      <point x="559" y="1103" type="curve"/>
      <point x="547" y="1164"/>
      <point x="522" y="1215"/>
      <point x="481" y="1255" type="curve" smooth="yes"/>
      <point x="425" y="1309"/>
      <point x="359" y="1335"/>
      <point x="285" y="1335" type="curve" smooth="yes"/>
      <point x="279" y="1335"/>
      <point x="273" y="1335"/>
      <point x="267" y="1335" type="curve" smooth="yes"/>
      <point x="241" y="1333"/>
      <point x="228" y="1318"/>
      <point x="228" y="1300" type="curve" smooth="yes"/>
      <point x="228" y="1289"/>
      <point x="233" y="1276"/>
      <point x="245" y="1265" type="curve" smooth="yes"/>
      <point x="349" y="1161" type="line" smooth="yes"/>
      <point x="361" y="1148"/>
      <point x="368" y="1133"/>
      <point x="368" y="1116" type="curve" smooth="yes"/>
      <point x="368" y="1099"/>
      <point x="361" y="1084"/>
      <point x="349" y="1071" type="curve" smooth="yes"/>
      <point x="283" y="1004" type="line" smooth="yes"/>
      <point x="271" y="991"/>
      <point x="256" y="985"/>
      <point x="239" y="985" type="curve" smooth="yes"/>
      <point x="222" y="985"/>
      <point x="207" y="991"/>
      <point x="194" y="1004" type="curve" smooth="yes"/>
      <point x="85" y="1112" type="line" smooth="yes"/>
      <point x="73" y="1125"/>
      <point x="60" y="1130"/>
      <point x="47" y="1130" type="curve" smooth="yes"/>
      <point x="30" y="1130"/>
      <point x="15" y="1118"/>
      <point x="13" y="1093" type="curve" smooth="yes"/>
      <point x="11" y="1080"/>
      <point x="11" y="1067"/>
      <point x="11" y="1055" type="curve" smooth="yes"/>
      <point x="11" y="982"/>
      <point x="38" y="919"/>
      <point x="93" y="864" type="curve" smooth="yes"/>
      <point x="139" y="817"/>
      <point x="196" y="791"/>
      <point x="262" y="787" type="curve"/>
      <point x="273" y="785"/>
      <point x="283" y="785"/>
      <point x="293" y="785" type="curve" smooth="yes"/>
      <point x="309" y="785"/>
      <point x="323" y="786"/>
      <point x="337" y="789" type="curve"/>
      <point x="914" y="212" type="line" smooth="yes"/>
      <point x="946" y="180"/>
      <point x="984" y="164"/>
    </contour>
    <contour>
      <point x="723" y="939" type="line"/>
      <point x="723" y="939" type="line"/>
      <point x="788" y="873" type="line"/>
      <point x="967" y="1052" type="line"/>
      <point x="1005" y="1059" type="line" smooth="yes"/>
      <point x="1033" y="1064"/>
      <point x="1060" y="1088"/>
      <point x="1087" y="1132" type="curve" smooth="yes"/>
      <point x="1148" y="1224" type="line" smooth="yes"/>
      <point x="1170" y="1255"/>
      <point x="1180" y="1277"/>
      <point x="1180" y="1291" type="curve" smooth="yes"/>
      <point x="1180" y="1295"/>
      <point x="1179" y="1298"/>
      <point x="1177" y="1301" type="curve"/>
      <point x="1162" y="1313" type="line"/>
      <point x="1150" y="1327" type="line" smooth="yes"/>
      <point x="1147" y="1330"/>
      <point x="1144" y="1331"/>
      <point x="1139" y="1331" type="curve" smooth="yes"/>
      <point x="1125" y="1331"/>
      <point x="1103" y="1320"/>
      <point x="1073" y="1298" type="curve" smooth="yes"/>
      <point x="981" y="1238" type="line" smooth="yes"/>
      <point x="940" y="1211"/>
      <point x="915" y="1184"/>
      <point x="909" y="1158" type="curve" smooth="yes"/>
      <point x="902" y="1117" type="line"/>
    </contour>
    <contour>
      <point x="146" y="164" type="curve"/>
      <point x="146" y="164" type="line"/>
      <point x="181" y="164"/>
      <point x="217" y="177"/>
      <point x="242" y="202" type="curve" smooth="yes"/>
      <point x="542" y="502" type="line"/>
      <point x="544" y="502"/>
      <point x="544" y="502"/>
      <point x="544" y="504" type="curve"/>
      <point x="397" y="651" type="line"/>
      <point x="351" y="695" type="line"/>
      <point x="351" y="693"/>
      <point x="350" y="692"/>
      <point x="349" y="692" type="curve"/>
      <point x="49" y="393" type="line" smooth="yes"/>
      <point x="24" y="366"/>
      <point x="11" y="331"/>
      <point x="11" y="296" type="curve" smooth="yes"/>
      <point x="11" y="262"/>
      <point x="23" y="228"/>
      <point x="49" y="202" type="curve" smooth="yes"/>
      <point x="75" y="177"/>
      <point x="110" y="164"/>
    </contour>
  </outline>
</glyph>
<glyph name="uniE210" format="2">
  <advance width="1200"/>
  <unicode hex="E210"/>
  <note>
uniE210
</note>
  <outline>
    <contour>
      <point x="786" y="154" type="curve"/>
      <point x="786" y="154" type="line"/>
      <point x="801" y="154"/>
      <point x="821" y="163"/>
      <point x="841" y="179" type="curve" smooth="yes"/>
      <point x="882" y="213" type="line" smooth="yes"/>
      <point x="972" y="286"/>
      <point x="1008" y="428"/>
      <point x="1008" y="540" type="curve" smooth="yes"/>
      <point x="1008" y="566"/>
      <point x="1007" y="590"/>
      <point x="1003" y="611" type="curve" smooth="yes"/>
      <point x="988" y="698" type="line"/>
      <point x="1051" y="778"/>
      <point x="1084" y="878"/>
      <point x="1084" y="973" type="curve" smooth="yes"/>
      <point x="1084" y="1038"/>
      <point x="1068" y="1102"/>
      <point x="1037" y="1154" type="curve" smooth="yes"/>
      <point x="996" y="1227"/>
      <point x="947" y="1283"/>
      <point x="887" y="1323" type="curve" smooth="yes"/>
      <point x="866" y="1336"/>
      <point x="845" y="1343"/>
      <point x="825" y="1343" type="curve" smooth="yes"/>
      <point x="806" y="1343"/>
      <point x="786" y="1336"/>
      <point x="766" y="1323" type="curve" smooth="yes"/>
      <point x="670" y="1265" type="line"/>
      <point x="647" y="1253"/>
      <point x="624" y="1246"/>
      <point x="600" y="1246" type="curve" smooth="yes"/>
      <point x="576" y="1246"/>
      <point x="552" y="1253"/>
      <point x="530" y="1265" type="curve" smooth="yes"/>
      <point x="433" y="1323" type="line" smooth="yes"/>
      <point x="414" y="1336"/>
      <point x="394" y="1343"/>
      <point x="374" y="1343" type="curve" smooth="yes"/>
      <point x="354" y="1343"/>
      <point x="334" y="1336"/>
      <point x="312" y="1323" type="curve" smooth="yes"/>
      <point x="253" y="1283"/>
      <point x="203" y="1227"/>
      <point x="163" y="1154" type="curve" smooth="yes"/>
      <point x="131" y="1102"/>
      <point x="116" y="1038"/>
      <point x="116" y="973" type="curve" smooth="yes"/>
      <point x="116" y="878"/>
      <point x="148" y="778"/>
      <point x="211" y="698" type="curve"/>
      <point x="202" y="643"/>
      <point x="200" y="648"/>
      <point x="195" y="572" type="curve" smooth="yes"/>
      <point x="195" y="558"/>
      <point x="194" y="543"/>
      <point x="194" y="529" type="curve" smooth="yes"/>
      <point x="194" y="502"/>
      <point x="196" y="475"/>
      <point x="199" y="449" type="curve" smooth="yes"/>
      <point x="209" y="372"/>
      <point x="250" y="271"/>
      <point x="317" y="213" type="curve"/>
      <point x="384" y="179"/>
      <point x="339" y="176"/>
      <point x="413" y="157" type="curve" smooth="yes"/>
      <point x="416" y="156"/>
      <point x="419" y="156"/>
      <point x="422" y="156" type="curve" smooth="yes"/>
      <point x="438" y="156"/>
      <point x="442" y="173"/>
      <point x="446" y="199" type="curve"/>
      <point x="447" y="202"/>
      <point x="447" y="206"/>
      <point x="447" y="210" type="curve" smooth="yes"/>
      <point x="447" y="225"/>
      <point x="443" y="245"/>
      <point x="436" y="271" type="curve"/>
      <point x="429" y="284"/>
      <point x="426" y="307"/>
      <point x="426" y="335" type="curve" smooth="yes"/>
      <point x="426" y="378"/>
      <point x="433" y="432"/>
      <point x="443" y="482" type="curve" smooth="yes"/>
      <point x="459" y="564"/>
      <point x="519" y="641"/>
      <point x="600" y="647" type="curve"/>
      <point x="680" y="641"/>
      <point x="740" y="564"/>
      <point x="757" y="482" type="curve" smooth="yes"/>
      <point x="766" y="432"/>
      <point x="773" y="378"/>
      <point x="773" y="335" type="curve" smooth="yes"/>
      <point x="773" y="307"/>
      <point x="770" y="284"/>
      <point x="764" y="271" type="curve"/>
      <point x="756" y="242"/>
      <point x="753" y="220"/>
      <point x="753" y="202" type="curve" smooth="yes"/>
      <point x="753" y="169"/>
      <point x="766" y="154"/>
    </contour>
  </outline>
</glyph>
<glyph name="uniE211" format="2">
  <advance width="1200"/>
  <unicode hex="E211"/>
  <note>
uniE211
</note>
  <outline>
    <contour>
      <point x="567" y="297" type="curve"/>
      <point x="567" y="297" type="line"/>
      <point x="573" y="297"/>
      <point x="579" y="301"/>
      <point x="584" y="310" type="curve"/>
      <point x="590" y="315"/>
      <point x="596" y="317"/>
      <point x="600" y="317" type="curve"/>
      <point x="617" y="310" type="line"/>
      <point x="622" y="302"/>
      <point x="628" y="298"/>
      <point x="633" y="298" type="curve" smooth="yes"/>
      <point x="638" y="298"/>
      <point x="644" y="300"/>
      <point x="649" y="303" type="curve"/>
      <point x="654" y="310" type="line" smooth="yes"/>
      <point x="680" y="346"/>
      <point x="692" y="424"/>
      <point x="692" y="472" type="curve"/>
      <point x="695" y="508" type="line" smooth="yes"/>
      <point x="696" y="528"/>
      <point x="697" y="546"/>
      <point x="697" y="562" type="curve" smooth="yes"/>
      <point x="697" y="603"/>
      <point x="692" y="632"/>
      <point x="685" y="651" type="curve" smooth="yes"/>
      <point x="678" y="667" type="line" smooth="yes"/>
      <point x="673" y="679"/>
      <point x="670" y="690"/>
      <point x="670" y="701" type="curve" smooth="yes"/>
      <point x="670" y="713"/>
      <point x="673" y="723"/>
      <point x="678" y="733" type="curve" smooth="yes"/>
      <point x="683" y="745" type="line"/>
      <point x="708" y="771"/>
      <point x="736" y="812"/>
      <point x="745" y="834" type="curve"/>
      <point x="755" y="849" type="line" smooth="yes"/>
      <point x="777" y="877"/>
      <point x="791" y="944"/>
      <point x="794" y="986" type="curve" smooth="yes"/>
      <point x="796" y="1018" type="line" smooth="yes"/>
      <point x="803" y="1072"/>
      <point x="881" y="1109"/>
      <point x="938" y="1119" type="curve" smooth="yes"/>
      <point x="984" y="1124" type="line"/>
      <point x="1021" y="1124"/>
      <point x="1051" y="1118"/>
      <point x="1072" y="1106" type="curve" smooth="yes"/>
      <point x="1094" y="1094"/>
      <point x="1106" y="1081"/>
      <point x="1107" y="1068" type="curve"/>
      <point x="1112" y="1049" type="line"/>
      <point x="1112" y="1023"/>
      <point x="1090" y="1011"/>
      <point x="1074" y="1008" type="curve"/>
      <point x="1062" y="1008" type="line"/>
      <point x="1047" y="1012"/>
      <point x="1034" y="1014"/>
      <point x="1024" y="1014" type="curve" smooth="yes"/>
      <point x="1011" y="1014"/>
      <point x="1002" y="1011"/>
      <point x="996" y="1008" type="curve" smooth="yes"/>
      <point x="987" y="1003" type="line"/>
      <point x="1050" y="974"/>
      <point x="1074" y="938"/>
      <point x="1074" y="908" type="curve" smooth="yes"/>
      <point x="1074" y="891"/>
      <point x="1067" y="877"/>
      <point x="1054" y="865" type="curve" smooth="yes"/>
      <point x="1028" y="841" type="line"/>
      <point x="1036" y="839"/>
      <point x="1044" y="839"/>
      <point x="1052" y="839" type="curve" smooth="yes"/>
      <point x="1101" y="839"/>
      <point x="1131" y="873"/>
      <point x="1136" y="906" type="curve" smooth="yes"/>
      <point x="1139" y="935" type="line"/>
      <point x="1171" y="948"/>
      <point x="1187" y="982"/>
      <point x="1187" y="1008" type="curve" smooth="yes"/>
      <point x="1187" y="1025" type="line" smooth="yes"/>
      <point x="1187" y="1063"/>
      <point x="1167" y="1101"/>
      <point x="1151" y="1114" type="curve"/>
      <point x="1141" y="1126" type="line" smooth="yes"/>
      <point x="1103" y="1174"/>
      <point x="1040" y="1196"/>
      <point x="1001" y="1196" type="curve" smooth="yes"/>
      <point x="975" y="1196" type="line" smooth="yes"/>
      <point x="914" y="1193"/>
      <point x="852" y="1175"/>
      <point x="830" y="1162" type="curve" smooth="yes"/>
      <point x="813" y="1153" type="line" smooth="yes"/>
      <point x="794" y="1144"/>
      <point x="773" y="1141"/>
      <point x="756" y="1141" type="curve" smooth="yes"/>
      <point x="748" y="1141"/>
      <point x="741" y="1142"/>
      <point x="736" y="1143" type="curve" smooth="yes"/>
      <point x="724" y="1146" type="line"/>
      <point x="704" y="1155"/>
      <point x="657" y="1160"/>
      <point x="625" y="1160" type="curve" smooth="yes"/>
      <point x="600" y="1160" type="line" smooth="yes"/>
      <point x="539" y="1160"/>
      <point x="498" y="1155"/>
      <point x="477" y="1146" type="curve" smooth="yes"/>
      <point x="467" y="1142"/>
      <point x="456" y="1141"/>
      <point x="445" y="1141" type="curve" smooth="yes"/>
      <point x="427" y="1141"/>
      <point x="408" y="1145"/>
      <point x="388" y="1153" type="curve"/>
      <point x="349" y="1177"/>
      <point x="296" y="1191"/>
      <point x="226" y="1196" type="curve" smooth="yes"/>
      <point x="219" y="1197"/>
      <point x="211" y="1197"/>
      <point x="204" y="1197" type="curve" smooth="yes"/>
      <point x="145" y="1197"/>
      <point x="97" y="1173"/>
      <point x="60" y="1126" type="curve"/>
      <point x="28" y="1098"/>
      <point x="13" y="1060"/>
      <point x="13" y="1014" type="curve" smooth="yes"/>
      <point x="13" y="975"/>
      <point x="29" y="949"/>
      <point x="62" y="935" type="curve"/>
      <point x="62" y="911"/>
      <point x="66" y="888"/>
      <point x="97" y="858" type="curve" smooth="yes"/>
      <point x="110" y="845"/>
      <point x="128" y="839"/>
      <point x="149" y="839" type="curve" smooth="yes"/>
      <point x="156" y="839"/>
      <point x="165" y="839"/>
      <point x="173" y="841" type="curve"/>
      <point x="160" y="848"/>
      <point x="128" y="887"/>
      <point x="128" y="916" type="curve" smooth="yes"/>
      <point x="128" y="941"/>
      <point x="155" y="975"/>
      <point x="214" y="1003" type="curve"/>
      <point x="209" y="1008"/>
      <point x="192" y="1013"/>
      <point x="172" y="1013" type="curve" smooth="yes"/>
      <point x="162" y="1013"/>
      <point x="150" y="1011"/>
      <point x="139" y="1008" type="curve"/>
      <point x="108" y="1008"/>
      <point x="92" y="1022"/>
      <point x="89" y="1049" type="curve"/>
      <point x="89" y="1059"/>
      <point x="99" y="1085"/>
      <point x="118" y="1100" type="curve" smooth="yes"/>
      <point x="134" y="1112"/>
      <point x="171" y="1124"/>
      <point x="217" y="1124" type="curve" smooth="yes"/>
      <point x="223" y="1124"/>
      <point x="251" y="1118"/>
      <point x="279" y="1112" type="curve" smooth="yes"/>
      <point x="300" y="1107"/>
      <point x="319" y="1101"/>
      <point x="335" y="1095" type="curve" smooth="yes"/>
      <point x="367" y="1082"/>
      <point x="402" y="1053"/>
      <point x="405" y="1018" type="curve" smooth="yes"/>
      <point x="408" y="937"/>
      <point x="422" y="881"/>
      <point x="446" y="849" type="curve"/>
      <point x="465" y="810"/>
      <point x="489" y="775"/>
      <point x="518" y="745" type="curve"/>
      <point x="523" y="736"/>
      <point x="531" y="712"/>
      <point x="531" y="692" type="curve" smooth="yes"/>
      <point x="531" y="682"/>
      <point x="529" y="673"/>
      <point x="523" y="667" type="curve"/>
      <point x="517" y="655"/>
      <point x="510" y="635"/>
      <point x="504" y="597" type="curve" smooth="yes"/>
      <point x="502" y="586"/>
      <point x="501" y="573"/>
      <point x="501" y="561" type="curve" smooth="yes"/>
      <point x="501" y="544"/>
      <point x="503" y="526"/>
      <point x="506" y="508" type="curve"/>
      <point x="506" y="416"/>
      <point x="520" y="351"/>
      <point x="547" y="310" type="curve"/>
      <point x="555" y="301"/>
      <point x="561" y="297"/>
    </contour>
    <contour>
      <point x="581" y="332" type="curve"/>
      <point x="581" y="332" type="line"/>
      <point x="581" y="329" type="line"/>
      <point x="558" y="349"/>
      <point x="547" y="459"/>
      <point x="547" y="553" type="curve" smooth="yes"/>
      <point x="547" y="565"/>
      <point x="547" y="577"/>
      <point x="547" y="588" type="curve" smooth="yes"/>
      <point x="547" y="660" type="line"/>
      <point x="554" y="658"/>
      <point x="560" y="657"/>
      <point x="565" y="657" type="curve" smooth="yes"/>
      <point x="584" y="657"/>
      <point x="591" y="671"/>
      <point x="591" y="687" type="curve" smooth="yes"/>
      <point x="591" y="689"/>
      <point x="591" y="692"/>
      <point x="591" y="694" type="curve"/>
      <point x="586" y="713" type="line"/>
      <point x="586" y="874"/>
      <point x="530" y="1007"/>
      <point x="485" y="1049" type="curve" smooth="yes"/>
      <point x="453" y="1080" type="line"/>
      <point x="486" y="1070"/>
      <point x="529" y="1065"/>
      <point x="559" y="1065" type="curve" smooth="yes"/>
      <point x="566" y="1065"/>
      <point x="573" y="1065"/>
      <point x="579" y="1066" type="curve"/>
      <point x="600" y="1066" type="line"/>
      <point x="615" y="1064"/>
      <point x="629" y="1063"/>
      <point x="644" y="1063" type="curve" smooth="yes"/>
      <point x="680" y="1063"/>
      <point x="715" y="1069"/>
      <point x="748" y="1080" type="curve"/>
      <point x="738" y="1074"/>
      <point x="726" y="1063"/>
      <point x="711" y="1047" type="curve" smooth="yes"/>
      <point x="683" y="1015"/>
      <point x="615" y="874"/>
      <point x="615" y="713" type="curve"/>
      <point x="613" y="707"/>
      <point x="612" y="699"/>
      <point x="612" y="692" type="curve" smooth="yes"/>
      <point x="612" y="675"/>
      <point x="619" y="657"/>
      <point x="637" y="657" type="curve" smooth="yes"/>
      <point x="642" y="657"/>
      <point x="648" y="658"/>
      <point x="654" y="660" type="curve"/>
      <point x="654" y="631"/>
      <point x="655" y="603"/>
      <point x="655" y="578" type="curve" smooth="yes"/>
      <point x="655" y="434"/>
      <point x="643" y="351"/>
      <point x="620" y="329" type="curve"/>
      <point x="600" y="341" type="line"/>
      <point x="591" y="341"/>
      <point x="584" y="338"/>
    </contour>
    <contour>
      <point x="952" y="837" type="curve"/>
      <point x="952" y="837" type="line"/>
      <point x="975" y="837"/>
      <point x="1001" y="844"/>
      <point x="1025" y="859" type="curve" smooth="yes"/>
      <point x="1047" y="874"/>
      <point x="1057" y="891"/>
      <point x="1057" y="908" type="curve" smooth="yes"/>
      <point x="1057" y="948"/>
      <point x="1008" y="987"/>
      <point x="951" y="987" type="curve" smooth="yes"/>
      <point x="927" y="987"/>
      <point x="901" y="980"/>
      <point x="877" y="963" type="curve" smooth="yes"/>
      <point x="855" y="949"/>
      <point x="846" y="931"/>
      <point x="846" y="914" type="curve" smooth="yes"/>
      <point x="846" y="874"/>
      <point x="894" y="837"/>
    </contour>
    <contour>
      <point x="250" y="836" type="curve"/>
      <point x="250" y="836" type="line"/>
      <point x="274" y="836"/>
      <point x="300" y="843"/>
      <point x="324" y="859" type="curve" smooth="yes"/>
      <point x="346" y="874"/>
      <point x="355" y="891"/>
      <point x="355" y="909" type="curve" smooth="yes"/>
      <point x="355" y="948"/>
      <point x="306" y="986"/>
      <point x="249" y="986" type="curve" smooth="yes"/>
      <point x="226" y="986"/>
      <point x="200" y="979"/>
      <point x="175" y="963" type="curve" smooth="yes"/>
      <point x="154" y="949"/>
      <point x="144" y="931"/>
      <point x="144" y="914" type="curve" smooth="yes"/>
      <point x="144" y="874"/>
      <point x="193" y="836"/>
    </contour>
  </outline>
</glyph>
<glyph name="uniE212" format="2">
  <advance width="1200"/>
  <unicode hex="E212"/>
  <note>
uniE212
</note>
  <outline>
    <contour>
      <point x="603" y="181" type="curve"/>
      <point x="603" y="181" type="line"/>
      <point x="610" y="181"/>
      <point x="615" y="182"/>
      <point x="617" y="184" type="curve"/>
      <point x="1163" y="391" type="line" smooth="yes"/>
      <point x="1171" y="394"/>
      <point x="1177" y="400"/>
      <point x="1182" y="408" type="curve" smooth="yes"/>
      <point x="1187" y="416"/>
      <point x="1189" y="423"/>
      <point x="1189" y="430" type="curve" smooth="yes"/>
      <point x="1189" y="1275" type="line" smooth="yes"/>
      <point x="1189" y="1288"/>
      <point x="1185" y="1297"/>
      <point x="1177" y="1304" type="curve"/>
      <point x="1171" y="1312"/>
      <point x="1161" y="1316"/>
      <point x="1148" y="1316" type="curve" smooth="yes"/>
      <point x="52" y="1316" type="line" smooth="yes"/>
      <point x="39" y="1316"/>
      <point x="30" y="1312"/>
      <point x="23" y="1304" type="curve" smooth="yes"/>
      <point x="15" y="1296"/>
      <point x="11" y="1286"/>
      <point x="11" y="1275" type="curve" smooth="yes"/>
      <point x="11" y="430" type="line" smooth="yes"/>
      <point x="11" y="423"/>
      <point x="13" y="416"/>
      <point x="18" y="408" type="curve" smooth="yes"/>
      <point x="21" y="403"/>
      <point x="28" y="398"/>
      <point x="38" y="391" type="curve"/>
      <point x="588" y="184" type="line"/>
      <point x="590" y="182"/>
      <point x="595" y="181"/>
    </contour>
    <contour>
      <point x="943" y="633" type="curve"/>
      <point x="943" y="633" type="line"/>
      <point x="898" y="633"/>
      <point x="861" y="650"/>
      <point x="832" y="683" type="curve" smooth="yes"/>
      <point x="803" y="720"/>
      <point x="788" y="766"/>
      <point x="788" y="821" type="curve" smooth="yes"/>
      <point x="788" y="876"/>
      <point x="803" y="922"/>
      <point x="832" y="959" type="curve" smooth="yes"/>
      <point x="863" y="994"/>
      <point x="900" y="1012"/>
      <point x="943" y="1012" type="curve" smooth="yes"/>
      <point x="996" y="1012"/>
      <point x="1037" y="983"/>
      <point x="1064" y="927" type="curve" smooth="yes"/>
      <point x="1066" y="923"/>
      <point x="1067" y="919"/>
      <point x="1067" y="915" type="curve" smooth="yes"/>
      <point x="1067" y="913"/>
      <point x="1067" y="912"/>
      <point x="1066" y="910" type="curve" smooth="yes"/>
      <point x="1063" y="906"/>
      <point x="1059" y="901"/>
      <point x="1054" y="898" type="curve"/>
      <point x="1011" y="879" type="line"/>
      <point x="1008" y="877"/>
      <point x="1005" y="877"/>
      <point x="1002" y="877" type="curve" smooth="yes"/>
      <point x="999" y="877"/>
      <point x="996" y="877"/>
      <point x="994" y="879" type="curve"/>
      <point x="987" y="882"/>
      <point x="984" y="886"/>
      <point x="984" y="889" type="curve"/>
      <point x="970" y="910" type="line"/>
      <point x="962" y="918"/>
      <point x="953" y="922"/>
      <point x="943" y="922" type="curve" smooth="yes"/>
      <point x="925" y="922"/>
      <point x="912" y="913"/>
      <point x="902" y="893" type="curve"/>
      <point x="890" y="876"/>
      <point x="885" y="852"/>
      <point x="885" y="821" type="curve" smooth="yes"/>
      <point x="885" y="790"/>
      <point x="890" y="766"/>
      <point x="902" y="749" type="curve"/>
      <point x="910" y="731"/>
      <point x="924" y="722"/>
      <point x="943" y="722" type="curve" smooth="yes"/>
      <point x="956" y="722"/>
      <point x="965" y="726"/>
      <point x="972" y="734" type="curve"/>
      <point x="976" y="741"/>
      <point x="986" y="761"/>
      <point x="994" y="768" type="curve" smooth="yes"/>
      <point x="996" y="770"/>
      <point x="999" y="770"/>
      <point x="1002" y="770" type="curve" smooth="yes"/>
      <point x="1005" y="770"/>
      <point x="1008" y="770"/>
      <point x="1011" y="768" type="curve" smooth="yes"/>
      <point x="1054" y="746" type="line"/>
      <point x="1064" y="744"/>
      <point x="1067" y="737"/>
      <point x="1067" y="729" type="curve" smooth="yes"/>
      <point x="1067" y="726"/>
      <point x="1067" y="723"/>
      <point x="1066" y="720" type="curve" smooth="yes"/>
      <point x="1039" y="662"/>
      <point x="998" y="633"/>
    </contour>
    <contour>
      <point x="636" y="633" type="curve"/>
      <point x="636" y="633" type="line"/>
      <point x="610" y="633"/>
      <point x="587" y="638"/>
      <point x="566" y="647" type="curve"/>
      <point x="544" y="660"/>
      <point x="527" y="676"/>
      <point x="516" y="693" type="curve" smooth="yes"/>
      <point x="512" y="698"/>
      <point x="510" y="703"/>
      <point x="510" y="707" type="curve" smooth="yes"/>
      <point x="510" y="712"/>
      <point x="513" y="716"/>
      <point x="518" y="720" type="curve" smooth="yes"/>
      <point x="552" y="753" type="line"/>
      <point x="555" y="757"/>
      <point x="559" y="759"/>
      <point x="563" y="759" type="curve" smooth="yes"/>
      <point x="564" y="759"/>
      <point x="565" y="759"/>
      <point x="566" y="758" type="curve"/>
      <point x="573" y="758"/>
      <point x="578" y="756"/>
      <point x="583" y="751" type="curve"/>
      <point x="595" y="732"/>
      <point x="612" y="722"/>
      <point x="636" y="722" type="curve" smooth="yes"/>
      <point x="659" y="722"/>
      <point x="670" y="732"/>
      <point x="670" y="751" type="curve" smooth="yes"/>
      <point x="670" y="754"/>
      <point x="668" y="761"/>
      <point x="665" y="770" type="curve"/>
      <point x="660" y="777"/>
      <point x="649" y="780"/>
      <point x="632" y="780" type="curve" smooth="yes"/>
      <point x="607" y="780" type="line"/>
      <point x="605" y="779"/>
      <point x="603" y="778"/>
      <point x="600" y="778" type="curve" smooth="yes"/>
      <point x="596" y="778"/>
      <point x="593" y="781"/>
      <point x="590" y="785" type="curve" smooth="yes"/>
      <point x="586" y="790"/>
      <point x="583" y="794"/>
      <point x="583" y="799" type="curve" smooth="yes"/>
      <point x="583" y="850" type="line" smooth="yes"/>
      <point x="583" y="855"/>
      <point x="586" y="860"/>
      <point x="590" y="865" type="curve" smooth="yes"/>
      <point x="593" y="868"/>
      <point x="600" y="869"/>
      <point x="607" y="869" type="curve" smooth="yes"/>
      <point x="632" y="869" type="line" smooth="yes"/>
      <point x="649" y="869"/>
      <point x="659" y="872"/>
      <point x="660" y="879" type="curve" smooth="yes"/>
      <point x="660" y="891"/>
      <point x="664" y="892"/>
      <point x="664" y="897" type="curve" smooth="yes"/>
      <point x="664" y="900"/>
      <point x="663" y="903"/>
      <point x="660" y="910" type="curve" smooth="yes"/>
      <point x="657" y="918"/>
      <point x="648" y="922"/>
      <point x="634" y="922" type="curve" smooth="yes"/>
      <point x="615" y="922"/>
      <point x="598" y="913"/>
      <point x="586" y="893" type="curve"/>
      <point x="581" y="889"/>
      <point x="575" y="886"/>
      <point x="569" y="886" type="curve" smooth="yes"/>
      <point x="566" y="886"/>
      <point x="561" y="888"/>
      <point x="554" y="891" type="curve"/>
      <point x="520" y="922" type="line"/>
      <point x="517" y="926"/>
      <point x="515" y="930"/>
      <point x="515" y="936" type="curve" smooth="yes"/>
      <point x="515" y="940"/>
      <point x="516" y="944"/>
      <point x="518" y="949" type="curve"/>
      <point x="547" y="989"/>
      <point x="586" y="1009"/>
      <point x="636" y="1009" type="curve" smooth="yes"/>
      <point x="711" y="1009"/>
      <point x="759" y="968"/>
      <point x="759" y="901" type="curve" smooth="yes"/>
      <point x="759" y="889"/>
      <point x="756" y="876"/>
      <point x="750" y="860" type="curve"/>
      <point x="740" y="843"/>
      <point x="732" y="833"/>
      <point x="726" y="828" type="curve"/>
      <point x="735" y="819"/>
      <point x="744" y="807"/>
      <point x="752" y="794" type="curve" smooth="yes"/>
      <point x="760" y="778"/>
      <point x="764" y="762"/>
      <point x="764" y="746" type="curve" smooth="yes"/>
      <point x="764" y="712"/>
      <point x="752" y="685"/>
      <point x="728" y="664" type="curve" smooth="yes"/>
      <point x="707" y="643"/>
      <point x="677" y="633"/>
    </contour>
    <contour>
      <point x="260" y="638" type="curve"/>
      <point x="260" y="638" type="line"/>
      <point x="204" y="638" type="line" smooth="yes"/>
      <point x="191" y="638"/>
      <point x="184" y="643"/>
      <point x="182" y="654" type="curve" smooth="yes"/>
      <point x="110" y="980" type="line"/>
      <point x="108" y="983"/>
      <point x="109" y="989"/>
      <point x="112" y="997" type="curve"/>
      <point x="117" y="1002"/>
      <point x="123" y="1005"/>
      <point x="129" y="1005" type="curve" smooth="yes"/>
      <point x="187" y="1005" type="line" smooth="yes"/>
      <point x="200" y="1005"/>
      <point x="207" y="1000"/>
      <point x="207" y="990" type="curve"/>
      <point x="236" y="845" type="line"/>
      <point x="265" y="990" type="line"/>
      <point x="266" y="1000"/>
      <point x="274" y="1005"/>
      <point x="286" y="1005" type="curve" smooth="yes"/>
      <point x="330" y="1005" type="line" smooth="yes"/>
      <point x="339" y="1005"/>
      <point x="346" y="1000"/>
      <point x="349" y="990" type="curve"/>
      <point x="378" y="845" type="line"/>
      <point x="407" y="990" type="line"/>
      <point x="410" y="1000"/>
      <point x="417" y="1005"/>
      <point x="426" y="1005" type="curve" smooth="yes"/>
      <point x="484" y="1005" type="line" smooth="yes"/>
      <point x="491" y="1005"/>
      <point x="496" y="1002"/>
      <point x="499" y="997" type="curve"/>
      <point x="502" y="994"/>
      <point x="504" y="989"/>
      <point x="504" y="985" type="curve" smooth="yes"/>
      <point x="504" y="983"/>
      <point x="504" y="982"/>
      <point x="504" y="980" type="curve"/>
      <point x="431" y="654" type="line" smooth="yes"/>
      <point x="429" y="643"/>
      <point x="423" y="638"/>
      <point x="412" y="638" type="curve" smooth="yes"/>
      <point x="354" y="638" type="line" smooth="yes"/>
      <point x="342" y="638"/>
      <point x="336" y="643"/>
      <point x="335" y="654" type="curve"/>
      <point x="308" y="787" type="line"/>
      <point x="279" y="654" type="line" smooth="yes"/>
      <point x="277" y="643"/>
      <point x="271" y="638"/>
    </contour>
  </outline>
</glyph>
<glyph name="uniE213" format="2">
  <advance width="1200"/>
  <unicode hex="E213"/>
  <note>
uniE213
</note>
  <outline>
    <contour>
      <point x="571" y="1149" type="curve"/>
      <point x="571" y="1149" type="line"/>
      <point x="623" y="1149"/>
      <point x="663" y="1200"/>
      <point x="663" y="1248" type="curve"/>
      <point x="660" y="1276"/>
      <point x="650" y="1297"/>
      <point x="634" y="1314" type="curve" smooth="yes"/>
      <point x="615" y="1333"/>
      <point x="592" y="1342"/>
      <point x="566" y="1340" type="curve" smooth="yes"/>
      <point x="540" y="1340"/>
      <point x="519" y="1331"/>
      <point x="501" y="1311" type="curve" smooth="yes"/>
      <point x="484" y="1290"/>
      <point x="475" y="1268"/>
      <point x="475" y="1244" type="curve" smooth="yes"/>
      <point x="475" y="1218"/>
      <point x="484" y="1195"/>
      <point x="504" y="1176" type="curve" smooth="yes"/>
      <point x="521" y="1159"/>
      <point x="544" y="1149"/>
    </contour>
    <contour>
      <point x="361" y="157" type="curve"/>
      <point x="361" y="157" type="line"/>
      <point x="385" y="157"/>
      <point x="404" y="169"/>
      <point x="417" y="193" type="curve"/>
      <point x="523" y="428" type="line"/>
      <point x="523" y="431"/>
      <point x="524" y="434"/>
      <point x="525" y="437" type="curve"/>
      <point x="525" y="439"/>
      <point x="527" y="443"/>
      <point x="530" y="449" type="curve"/>
      <point x="532" y="451"/>
      <point x="533" y="454"/>
      <point x="533" y="459" type="curve" smooth="yes"/>
      <point x="545" y="565" type="line"/>
      <point x="549" y="560" type="line"/>
      <point x="612" y="459" type="line"/>
      <point x="673" y="227" type="line"/>
      <point x="679" y="214"/>
      <point x="684" y="206"/>
      <point x="687" y="203" type="curve"/>
      <point x="697" y="189"/>
      <point x="711" y="179"/>
      <point x="731" y="176" type="curve"/>
      <point x="747" y="176"/>
      <point x="760" y="181"/>
      <point x="769" y="189" type="curve" smooth="yes"/>
      <point x="772" y="191" type="line"/>
      <point x="773" y="193"/>
      <point x="775" y="193"/>
      <point x="776" y="193" type="curve"/>
      <point x="792" y="206"/>
      <point x="799" y="222"/>
      <point x="799" y="241" type="curve" smooth="yes"/>
      <point x="799" y="246"/>
      <point x="799" y="251"/>
      <point x="798" y="256" type="curve" smooth="yes"/>
      <point x="735" y="490" type="line"/>
      <point x="731" y="502" type="line" smooth="yes"/>
      <point x="729" y="509"/>
      <point x="728" y="513"/>
      <point x="728" y="514" type="curve"/>
      <point x="726" y="518"/>
      <point x="726" y="522"/>
      <point x="726" y="527" type="curve"/>
      <point x="726" y="527"/>
      <point x="724" y="530"/>
      <point x="721" y="536" type="curve"/>
      <point x="706" y="558" type="line"/>
      <point x="702" y="568" type="line"/>
      <point x="675" y="606" type="line"/>
      <point x="651" y="640" type="line"/>
      <point x="619" y="688" type="line"/>
      <point x="624" y="751" type="line"/>
      <point x="632" y="807" type="line"/>
      <point x="644" y="920" type="line"/>
      <point x="687" y="853" type="line"/>
      <point x="687" y="851"/>
      <point x="691" y="846"/>
      <point x="699" y="838" type="curve"/>
      <point x="846" y="756" type="line"/>
      <point x="866" y="751" type="line"/>
      <point x="878" y="751"/>
      <point x="889" y="756"/>
      <point x="897" y="766" type="curve"/>
      <point x="905" y="773"/>
      <point x="909" y="784"/>
      <point x="909" y="797" type="curve" smooth="yes"/>
      <point x="909" y="811"/>
      <point x="903" y="823"/>
      <point x="890" y="831" type="curve" smooth="yes"/>
      <point x="752" y="906" type="line"/>
      <point x="721" y="954" type="line"/>
      <point x="673" y="1034" type="line"/>
      <point x="639" y="1087" type="line"/>
      <point x="618" y="1114"/>
      <point x="591" y="1128"/>
      <point x="557" y="1128" type="curve" smooth="yes"/>
      <point x="537" y="1128"/>
      <point x="516" y="1119"/>
      <point x="494" y="1101" type="curve"/>
      <point x="467" y="1072" type="line"/>
      <point x="323" y="927" type="line"/>
      <point x="319" y="921"/>
      <point x="316" y="913"/>
      <point x="313" y="903" type="curve"/>
      <point x="291" y="712" type="line"/>
      <point x="291" y="705" type="line" smooth="yes"/>
      <point x="291" y="694"/>
      <point x="295" y="684"/>
      <point x="303" y="676" type="curve"/>
      <point x="305" y="673"/>
      <point x="310" y="669"/>
      <point x="320" y="664" type="curve"/>
      <point x="322" y="664"/>
      <point x="324" y="664"/>
      <point x="327" y="663" type="curve" smooth="yes"/>
      <point x="330" y="662"/>
      <point x="333" y="662"/>
      <point x="335" y="662" type="curve" smooth="yes"/>
      <point x="344" y="662"/>
      <point x="354" y="667"/>
      <point x="364" y="676" type="curve" smooth="yes"/>
      <point x="371" y="684"/>
      <point x="376" y="693"/>
      <point x="376" y="703" type="curve"/>
      <point x="380" y="732" type="line"/>
      <point x="388" y="814" type="line"/>
      <point x="395" y="869" type="line"/>
      <point x="455" y="930" type="line"/>
      <point x="431" y="744" type="line"/>
      <point x="422" y="664" type="line"/>
      <point x="409" y="560" type="line"/>
      <point x="400" y="466" type="line"/>
      <point x="301" y="246" type="line"/>
      <point x="298" y="234"/>
      <point x="296" y="225"/>
      <point x="296" y="220" type="curve" smooth="yes"/>
      <point x="296" y="202"/>
      <point x="303" y="187"/>
      <point x="315" y="174" type="curve" smooth="yes"/>
      <point x="327" y="161"/>
      <point x="342" y="155"/>
    </contour>
  </outline>
</glyph>
<glyph name="uniE214" format="2">
  <advance width="1200"/>
  <unicode hex="E214"/>
  <note>
uniE214
</note>
  <outline>
    <contour>
      <point x="601" y="161" type="curve"/>
      <point x="601" y="161" type="line"/>
      <point x="607" y="161"/>
      <point x="613" y="167"/>
      <point x="619" y="177" type="curve" smooth="yes"/>
      <point x="677" y="278" type="line"/>
      <point x="692" y="299"/>
      <point x="709" y="312"/>
      <point x="728" y="317" type="curve" smooth="yes"/>
      <point x="760" y="327"/>
      <point x="790" y="339"/>
      <point x="817" y="356" type="curve"/>
      <point x="831" y="363"/>
      <point x="844" y="366"/>
      <point x="858" y="366" type="curve" smooth="yes"/>
      <point x="866" y="366"/>
      <point x="874" y="365"/>
      <point x="882" y="363" type="curve" smooth="yes"/>
      <point x="993" y="334" type="line" smooth="yes"/>
      <point x="997" y="333"/>
      <point x="1001" y="333"/>
      <point x="1004" y="333" type="curve" smooth="yes"/>
      <point x="1014" y="333"/>
      <point x="1019" y="337"/>
      <point x="1019" y="348" type="curve" smooth="yes"/>
      <point x="1019" y="351"/>
      <point x="1019" y="354"/>
      <point x="1018" y="358" type="curve" smooth="yes"/>
      <point x="989" y="469" type="line"/>
      <point x="986" y="477"/>
      <point x="985" y="485"/>
      <point x="985" y="493" type="curve" smooth="yes"/>
      <point x="985" y="506"/>
      <point x="989" y="520"/>
      <point x="996" y="532" type="curve"/>
      <point x="996" y="534" type="line"/>
      <point x="1010" y="560"/>
      <point x="1023" y="590"/>
      <point x="1035" y="626" type="curve"/>
      <point x="1039" y="647"/>
      <point x="1053" y="664"/>
      <point x="1076" y="677" type="curve" smooth="yes"/>
      <point x="1124" y="706" type="line"/>
      <point x="1172" y="732" type="line" smooth="yes"/>
      <point x="1182" y="738"/>
      <point x="1188" y="744"/>
      <point x="1188" y="750" type="curve" smooth="yes"/>
      <point x="1188" y="756"/>
      <point x="1182" y="762"/>
      <point x="1172" y="768" type="curve" smooth="yes"/>
      <point x="1124" y="795" type="line"/>
      <point x="1073" y="824" type="line" smooth="yes"/>
      <point x="1052" y="838"/>
      <point x="1039" y="855"/>
      <point x="1035" y="875" type="curve"/>
      <point x="1025" y="905"/>
      <point x="1011" y="937"/>
      <point x="993" y="969" type="curve"/>
      <point x="987" y="984"/>
      <point x="984" y="998"/>
      <point x="984" y="1013" type="curve" smooth="yes"/>
      <point x="984" y="1020"/>
      <point x="984" y="1027"/>
      <point x="986" y="1034" type="curve" smooth="yes"/>
      <point x="1001" y="1087" type="line"/>
      <point x="1015" y="1143" type="line" smooth="yes"/>
      <point x="1016" y="1146"/>
      <point x="1017" y="1149"/>
      <point x="1017" y="1151" type="curve" smooth="yes"/>
      <point x="1017" y="1161"/>
      <point x="1010" y="1167"/>
      <point x="998" y="1167" type="curve" smooth="yes"/>
      <point x="995" y="1167"/>
      <point x="993" y="1167"/>
      <point x="991" y="1167" type="curve"/>
      <point x="936" y="1152" type="line"/>
      <point x="882" y="1138" type="line" smooth="yes"/>
      <point x="873" y="1135"/>
      <point x="865" y="1134"/>
      <point x="857" y="1134" type="curve" smooth="yes"/>
      <point x="843" y="1134"/>
      <point x="829" y="1138"/>
      <point x="817" y="1145" type="curve" smooth="yes"/>
      <point x="786" y="1161"/>
      <point x="755" y="1174"/>
      <point x="723" y="1184" type="curve" smooth="yes"/>
      <point x="701" y="1189"/>
      <point x="684" y="1201"/>
      <point x="672" y="1222" type="curve" smooth="yes"/>
      <point x="643" y="1273" type="line"/>
      <point x="617" y="1321" type="line" smooth="yes"/>
      <point x="611" y="1332"/>
      <point x="605" y="1337"/>
      <point x="599" y="1337" type="curve" smooth="yes"/>
      <point x="593" y="1337"/>
      <point x="587" y="1332"/>
      <point x="581" y="1321" type="curve" smooth="yes"/>
      <point x="552" y="1271" type="line"/>
      <point x="523" y="1222" type="line"/>
      <point x="513" y="1201"/>
      <point x="497" y="1188"/>
      <point x="474" y="1181" type="curve" smooth="yes"/>
      <point x="441" y="1172"/>
      <point x="410" y="1159"/>
      <point x="383" y="1143" type="curve" smooth="yes"/>
      <point x="371" y="1135"/>
      <point x="357" y="1132"/>
      <point x="343" y="1132" type="curve" smooth="yes"/>
      <point x="335" y="1132"/>
      <point x="326" y="1133"/>
      <point x="317" y="1135" type="curve" smooth="yes"/>
      <point x="206" y="1164" type="line"/>
      <point x="203" y="1166"/>
      <point x="200" y="1166"/>
      <point x="198" y="1166" type="curve" smooth="yes"/>
      <point x="188" y="1166"/>
      <point x="182" y="1159"/>
      <point x="182" y="1147" type="curve" smooth="yes"/>
      <point x="182" y="1144"/>
      <point x="182" y="1143"/>
      <point x="182" y="1140" type="curve"/>
      <point x="197" y="1085" type="line"/>
      <point x="214" y="1027" type="line" smooth="yes"/>
      <point x="216" y="1020"/>
      <point x="217" y="1013"/>
      <point x="217" y="1006" type="curve" smooth="yes"/>
      <point x="217" y="992"/>
      <point x="212" y="978"/>
      <point x="204" y="964" type="curve"/>
      <point x="204" y="962" type="line"/>
      <point x="189" y="931"/>
      <point x="177" y="901"/>
      <point x="168" y="872" type="curve" smooth="yes"/>
      <point x="161" y="850"/>
      <point x="148" y="834"/>
      <point x="129" y="824" type="curve" smooth="yes"/>
      <point x="28" y="766" type="line"/>
      <point x="17" y="761"/>
      <point x="12" y="755"/>
      <point x="12" y="749" type="curve" smooth="yes"/>
      <point x="12" y="742"/>
      <point x="17" y="736"/>
      <point x="28" y="730" type="curve" smooth="yes"/>
      <point x="129" y="672" type="line" smooth="yes"/>
      <point x="151" y="659"/>
      <point x="165" y="642"/>
      <point x="170" y="621" type="curve"/>
      <point x="206" y="534" type="line"/>
      <point x="214" y="522"/>
      <point x="217" y="509"/>
      <point x="217" y="494" type="curve" smooth="yes"/>
      <point x="217" y="487"/>
      <point x="216" y="478"/>
      <point x="214" y="469" type="curve" smooth="yes"/>
      <point x="199" y="413" type="line"/>
      <point x="185" y="356" type="line"/>
      <point x="183" y="353"/>
      <point x="183" y="350"/>
      <point x="183" y="347" type="curve" smooth="yes"/>
      <point x="183" y="337"/>
      <point x="190" y="331"/>
      <point x="202" y="331" type="curve" smooth="yes"/>
      <point x="205" y="331"/>
      <point x="206" y="331"/>
      <point x="209" y="331" type="curve"/>
      <point x="264" y="346" type="line"/>
      <point x="322" y="363" type="line" smooth="yes"/>
      <point x="330" y="365"/>
      <point x="336" y="365"/>
      <point x="343" y="365" type="curve" smooth="yes"/>
      <point x="358" y="365"/>
      <point x="372" y="362"/>
      <point x="387" y="356" type="curve"/>
      <point x="387" y="353" type="line"/>
      <point x="418" y="339"/>
      <point x="448" y="327"/>
      <point x="477" y="317" type="curve" smooth="yes"/>
      <point x="498" y="310"/>
      <point x="515" y="298"/>
      <point x="527" y="278" type="curve" smooth="yes"/>
      <point x="554" y="228" type="line"/>
      <point x="583" y="177" type="line" smooth="yes"/>
      <point x="588" y="167"/>
      <point x="594" y="161"/>
    </contour>
  </outline>
</glyph>
<glyph name="uniE215" format="2">
  <advance width="1200"/>
  <unicode hex="E215"/>
  <note>
uniE215
</note>
  <outline>
    <contour>
      <point x="600" y="181" type="curve"/>
      <point x="600" y="181" type="line"/>
      <point x="762" y="181"/>
      <point x="901" y="237"/>
      <point x="1015" y="348" type="curve" smooth="yes"/>
      <point x="1129" y="459"/>
      <point x="1186" y="592"/>
      <point x="1186" y="749" type="curve" smooth="yes"/>
      <point x="1186" y="905"/>
      <point x="1129" y="1038"/>
      <point x="1015" y="1149" type="curve" smooth="yes"/>
      <point x="901" y="1260"/>
      <point x="762" y="1316"/>
      <point x="600" y="1316" type="curve" smooth="yes"/>
      <point x="437" y="1316"/>
      <point x="299" y="1260"/>
      <point x="184" y="1149" type="curve" smooth="yes"/>
      <point x="70" y="1038"/>
      <point x="13" y="905"/>
      <point x="13" y="749" type="curve" smooth="yes"/>
      <point x="13" y="592"/>
      <point x="70" y="459"/>
      <point x="184" y="348" type="curve" smooth="yes"/>
      <point x="299" y="237"/>
      <point x="437" y="181"/>
    </contour>
    <contour>
      <point x="743" y="459" type="curve"/>
      <point x="743" y="459" type="line"/>
      <point x="737" y="459"/>
      <point x="731" y="460"/>
      <point x="725" y="464" type="curve" smooth="yes"/>
      <point x="576" y="575" type="line"/>
      <point x="481" y="490" type="line"/>
      <point x="469" y="488" type="line"/>
      <point x="467" y="485" type="line"/>
      <point x="465" y="485" type="line" smooth="yes"/>
      <point x="458" y="485"/>
      <point x="452" y="495"/>
      <point x="445" y="514" type="curve"/>
      <point x="414" y="627"/>
      <point x="397" y="683"/>
      <point x="392" y="683" type="curve"/>
      <point x="392" y="686" type="line"/>
      <point x="247" y="734" type="line" smooth="yes"/>
      <point x="233" y="739"/>
      <point x="225" y="747"/>
      <point x="223" y="758" type="curve"/>
      <point x="223" y="768"/>
      <point x="233" y="779"/>
      <point x="242" y="782" type="curve" smooth="yes"/>
      <point x="250" y="785" type="line"/>
      <point x="836" y="1007" type="line" smooth="yes"/>
      <point x="849" y="1012"/>
      <point x="859" y="1015"/>
      <point x="867" y="1015" type="curve" smooth="yes"/>
      <point x="879" y="1015"/>
      <point x="885" y="1009"/>
      <point x="885" y="995" type="curve"/>
      <point x="781" y="483" type="line"/>
      <point x="781" y="479"/>
      <point x="769" y="466"/>
      <point x="763" y="464" type="curve" smooth="yes"/>
      <point x="758" y="462"/>
      <point x="751" y="459"/>
    </contour>
    <contour>
      <point x="462" y="495" type="curve"/>
      <point x="462" y="495" type="line"/>
      <point x="479" y="642" type="line"/>
      <point x="484" y="647" type="line" smooth="yes"/>
      <point x="662" y="804"/>
      <point x="756" y="884"/>
      <point x="764" y="891" type="curve"/>
      <point x="771" y="903" type="line"/>
      <point x="771" y="907"/>
      <point x="770" y="910"/>
      <point x="767" y="910" type="curve" smooth="yes"/>
      <point x="766" y="910"/>
      <point x="764" y="909"/>
      <point x="761" y="908" type="curve"/>
      <point x="752" y="903" type="line"/>
      <point x="399" y="686" type="line"/>
      <point x="402" y="679" type="line" smooth="yes"/>
      <point x="416" y="635"/>
      <point x="433" y="581"/>
      <point x="452" y="517" type="curve" smooth="yes"/>
      <point x="457" y="504"/>
      <point x="460" y="497"/>
    </contour>
  </outline>
</glyph>
<glyph name="uniE216" format="2">
  <advance width="1200"/>
  <unicode hex="E216"/>
  <note>
uniE216
</note>
  <outline>
    <contour>
      <point x="356" y="160" type="curve"/>
      <point x="356" y="160" type="line"/>
      <point x="364" y="160"/>
      <point x="372" y="165"/>
      <point x="380" y="174" type="curve"/>
      <point x="421" y="252" type="line" smooth="yes"/>
      <point x="463" y="329"/>
      <point x="618" y="607"/>
      <point x="699" y="749" type="curve" smooth="yes"/>
      <point x="816" y="962"/>
      <point x="909" y="1128"/>
      <point x="976" y="1246" type="curve"/>
      <point x="976" y="1254" type="line" smooth="yes"/>
      <point x="976" y="1263"/>
      <point x="971" y="1271"/>
      <point x="962" y="1278" type="curve"/>
      <point x="959" y="1278"/>
      <point x="953" y="1281"/>
      <point x="945" y="1288" type="curve"/>
      <point x="932" y="1294"/>
      <point x="923" y="1299"/>
      <point x="918" y="1302" type="curve" smooth="yes"/>
      <point x="912" y="1307"/>
      <point x="902" y="1312"/>
      <point x="889" y="1319" type="curve" smooth="yes"/>
      <point x="860" y="1333" type="line"/>
      <point x="859" y="1333"/>
      <point x="856" y="1334"/>
      <point x="853" y="1336" type="curve" smooth="yes"/>
      <point x="850" y="1338"/>
      <point x="848" y="1338"/>
      <point x="846" y="1338" type="curve" smooth="yes"/>
      <point x="834" y="1338"/>
      <point x="827" y="1333"/>
      <point x="822" y="1324" type="curve" smooth="yes"/>
      <point x="774" y="1239" type="line"/>
      <point x="262" y="322" type="line"/>
      <point x="236" y="280"/>
      <point x="223" y="255"/>
      <point x="223" y="247" type="curve" smooth="yes"/>
      <point x="223" y="237"/>
      <point x="228" y="228"/>
      <point x="237" y="220" type="curve"/>
      <point x="307" y="180"/>
      <point x="346" y="160"/>
    </contour>
  </outline>
</glyph>
<glyph name="uniE217" format="2">
  <advance width="1200"/>
  <unicode hex="E217"/>
  <note>
uniE217
</note>
  <outline>
    <contour>
      <point x="944" y="240" type="curve"/>
      <point x="944" y="240" type="line"/>
      <point x="968" y="240"/>
      <point x="985" y="251"/>
      <point x="994" y="264" type="curve"/>
      <point x="1003" y="281" type="line"/>
      <point x="1189" y="1221" type="line"/>
      <point x="1189" y="1248"/>
      <point x="1171" y="1259"/>
      <point x="1149" y="1259" type="curve" smooth="yes"/>
      <point x="1141" y="1259"/>
      <point x="1132" y="1257"/>
      <point x="1124" y="1254" type="curve" smooth="yes"/>
      <point x="1102" y="1245" type="line"/>
      <point x="57" y="834" type="line" smooth="yes"/>
      <point x="42" y="827"/>
      <point x="11" y="814"/>
      <point x="11" y="786" type="curve"/>
      <point x="14" y="767"/>
      <point x="32" y="752"/>
      <point x="45" y="745" type="curve" smooth="yes"/>
      <point x="57" y="740" type="line"/>
      <point x="313" y="656" type="line"/>
      <point x="313" y="651" type="line"/>
      <point x="335" y="583" type="line" smooth="yes"/>
      <point x="360" y="496"/>
      <point x="400" y="368"/>
      <point x="409" y="339" type="curve" smooth="yes"/>
      <point x="421" y="304"/>
      <point x="431" y="286"/>
      <point x="441" y="286" type="curve" smooth="yes"/>
      <point x="448" y="286" type="line"/>
      <point x="448" y="289" type="line"/>
      <point x="470" y="296" type="line"/>
      <point x="641" y="450" type="line"/>
      <point x="904" y="248" type="line"/>
      <point x="919" y="243"/>
      <point x="932" y="240"/>
    </contour>
    <contour>
      <point x="467" y="573" type="line"/>
      <point x="467" y="573" type="line"/>
      <point x="438" y="303" type="line"/>
      <point x="432" y="310"/>
      <point x="426" y="323"/>
      <point x="419" y="344" type="curve" smooth="yes"/>
      <point x="406" y="389"/>
      <point x="376" y="488"/>
      <point x="327" y="641" type="curve"/>
      <point x="325" y="656" type="line"/>
      <point x="950" y="1054" type="line" smooth="yes"/>
      <point x="962" y="1061"/>
      <point x="971" y="1065"/>
      <point x="977" y="1065" type="curve" smooth="yes"/>
      <point x="983" y="1065"/>
      <point x="986" y="1061"/>
      <point x="986" y="1054" type="curve"/>
      <point x="989" y="1051"/>
      <point x="985" y="1044"/>
      <point x="972" y="1032" type="curve" smooth="yes"/>
      <point x="477" y="586" type="line"/>
      <point x="477" y="583" type="line"/>
      <point x="475" y="583" type="line"/>
    </contour>
  </outline>
</glyph>
<glyph name="uniE218" format="2">
  <advance width="1200"/>
  <unicode hex="E218"/>
  <note>
uniE218
</note>
  <outline>
    <contour>
      <point x="291" y="276" type="curve"/>
      <point x="291" y="276" type="line"/>
      <point x="909" y="276" type="line" smooth="yes"/>
      <point x="930" y="276"/>
      <point x="940" y="286"/>
      <point x="940" y="307" type="curve" smooth="yes"/>
      <point x="940" y="822" type="line"/>
      <point x="1095" y="822" type="line" smooth="yes"/>
      <point x="1112" y="822"/>
      <point x="1123" y="829"/>
      <point x="1126" y="846" type="curve"/>
      <point x="1187" y="1075" type="line"/>
      <point x="1187" y="1078"/>
      <point x="1187" y="1081"/>
      <point x="1187" y="1084" type="curve" smooth="yes"/>
      <point x="1187" y="1099"/>
      <point x="1179" y="1109"/>
      <point x="1163" y="1114" type="curve" smooth="yes"/>
      <point x="745" y="1222" type="line"/>
      <point x="735" y="1222" type="line" smooth="yes"/>
      <point x="718" y="1222"/>
      <point x="707" y="1213"/>
      <point x="704" y="1196" type="curve" smooth="yes"/>
      <point x="702" y="1175"/>
      <point x="690" y="1157"/>
      <point x="668" y="1143" type="curve" smooth="yes"/>
      <point x="648" y="1128"/>
      <point x="626" y="1121"/>
      <point x="600" y="1121" type="curve" smooth="yes"/>
      <point x="574" y="1121"/>
      <point x="552" y="1128"/>
      <point x="532" y="1143" type="curve" smooth="yes"/>
      <point x="510" y="1157"/>
      <point x="498" y="1175"/>
      <point x="496" y="1196" type="curve" smooth="yes"/>
      <point x="493" y="1213"/>
      <point x="482" y="1222"/>
      <point x="465" y="1222" type="curve" smooth="yes"/>
      <point x="453" y="1222" type="line"/>
      <point x="37" y="1114" type="line"/>
      <point x="21" y="1111"/>
      <point x="13" y="1101"/>
      <point x="13" y="1084" type="curve" smooth="yes"/>
      <point x="13" y="1081"/>
      <point x="13" y="1078"/>
      <point x="13" y="1075" type="curve"/>
      <point x="71" y="846" type="line" smooth="yes"/>
      <point x="76" y="829"/>
      <point x="87" y="822"/>
      <point x="105" y="822" type="curve" smooth="yes"/>
      <point x="259" y="822" type="line"/>
      <point x="259" y="307" type="line" smooth="yes"/>
      <point x="259" y="286"/>
      <point x="270" y="276"/>
    </contour>
  </outline>
</glyph>
<glyph name="uniE219" format="2">
  <advance width="1200"/>
  <unicode hex="E219"/>
  <note>
uniE219
</note>
  <outline>
    <contour>
      <point x="971" y="322" type="line"/>
      <point x="971" y="322" type="line"/>
      <point x="981" y="320" type="line"/>
      <point x="991" y="330" type="line" smooth="yes"/>
      <point x="1016" y="355"/>
      <point x="1028" y="368"/>
      <point x="1028" y="383" type="curve" smooth="yes"/>
      <point x="1028" y="395"/>
      <point x="1020" y="408"/>
      <point x="1008" y="431" type="curve" smooth="yes"/>
      <point x="991" y="467"/>
      <point x="965" y="484"/>
      <point x="928" y="484" type="curve" smooth="yes"/>
      <point x="926" y="484" type="line"/>
      <point x="928" y="486" type="line" smooth="yes"/>
      <point x="967" y="518"/>
      <point x="986" y="546"/>
      <point x="986" y="573" type="curve" smooth="yes"/>
      <point x="986" y="581"/>
      <point x="984" y="588"/>
      <point x="981" y="595" type="curve" smooth="yes"/>
      <point x="973" y="611"/>
      <point x="959" y="619"/>
      <point x="940" y="619" type="curve" smooth="yes"/>
      <point x="924" y="619"/>
      <point x="901" y="612"/>
      <point x="872" y="598" type="curve"/>
      <point x="870" y="595" type="line"/>
      <point x="870" y="597"/>
      <point x="871" y="598"/>
      <point x="872" y="598" type="curve"/>
      <point x="879" y="615"/>
      <point x="883" y="630"/>
      <point x="883" y="643" type="curve" smooth="yes"/>
      <point x="883" y="657"/>
      <point x="878" y="667"/>
      <point x="870" y="675" type="curve" smooth="yes"/>
      <point x="848" y="696"/>
      <point x="824" y="706"/>
      <point x="798" y="706" type="curve" smooth="yes"/>
      <point x="788" y="706" type="line"/>
      <point x="788" y="711" type="line"/>
      <point x="790" y="716" type="line" smooth="yes"/>
      <point x="792" y="723"/>
      <point x="793" y="730"/>
      <point x="793" y="737" type="curve" smooth="yes"/>
      <point x="793" y="788"/>
      <point x="743" y="817"/>
      <point x="706" y="817" type="curve" smooth="yes"/>
      <point x="698" y="817"/>
      <point x="684" y="815"/>
      <point x="665" y="812" type="curve" smooth="yes"/>
      <point x="626" y="803" type="line"/>
      <point x="621" y="803" type="line"/>
      <point x="621" y="805" type="line" smooth="yes"/>
      <point x="621" y="817"/>
      <point x="620" y="828"/>
      <point x="617" y="839" type="curve"/>
      <point x="607" y="858" type="line" smooth="yes"/>
      <point x="588" y="894"/>
      <point x="556" y="916"/>
      <point x="513" y="926" type="curve"/>
      <point x="505" y="929"/>
      <point x="493" y="931"/>
      <point x="476" y="931" type="curve" smooth="yes"/>
      <point x="422" y="931"/>
      <point x="365" y="895"/>
      <point x="339" y="866" type="curve" smooth="yes"/>
      <point x="320" y="844" type="line"/>
      <point x="289" y="861"/>
      <point x="261" y="870"/>
      <point x="235" y="870" type="curve" smooth="yes"/>
      <point x="190" y="870"/>
      <point x="149" y="837"/>
      <point x="136" y="808" type="curve" smooth="yes"/>
      <point x="126" y="788" type="line"/>
      <point x="114" y="791"/>
      <point x="105" y="793"/>
      <point x="100" y="793" type="curve" smooth="yes"/>
      <point x="68" y="793"/>
      <point x="55" y="769"/>
      <point x="55" y="741" type="curve" smooth="yes"/>
      <point x="55" y="730"/>
      <point x="58" y="718"/>
      <point x="61" y="706" type="curve"/>
      <point x="71" y="680" type="line"/>
      <point x="21" y="659"/>
      <point x="0" y="634"/>
      <point x="0" y="610" type="curve" smooth="yes"/>
      <point x="0" y="604"/>
      <point x="1" y="598"/>
      <point x="3" y="593" type="curve" smooth="yes"/>
      <point x="16" y="564"/>
      <point x="29" y="552"/>
      <point x="42" y="542" type="curve"/>
      <point x="119" y="690"/>
      <point x="248" y="767"/>
      <point x="428" y="774" type="curve" smooth="yes"/>
      <point x="457" y="774" type="line" smooth="yes"/>
      <point x="644" y="774"/>
      <point x="803" y="636"/>
      <point x="935" y="361" type="curve" smooth="yes"/>
      <point x="942" y="346" type="line" smooth="yes"/>
      <point x="944" y="342"/>
      <point x="948" y="334"/>
      <point x="955" y="325" type="curve"/>
    </contour>
    <contour>
      <point x="1119" y="259" type="curve"/>
      <point x="1119" y="259" type="line"/>
      <point x="1141" y="259"/>
      <point x="1160" y="269"/>
      <point x="1177" y="288" type="curve"/>
      <point x="1192" y="309"/>
      <point x="1200" y="336"/>
      <point x="1200" y="371" type="curve" smooth="yes"/>
      <point x="1200" y="401"/>
      <point x="1194" y="438"/>
      <point x="1181" y="479" type="curve" smooth="yes"/>
      <point x="1143" y="617"/>
      <point x="994" y="754"/>
      <point x="817" y="803" type="curve"/>
      <point x="830" y="783"/>
      <point x="836" y="764"/>
      <point x="836" y="745" type="curve"/>
      <point x="862" y="735"/>
      <point x="883" y="723"/>
      <point x="899" y="709" type="curve" smooth="yes"/>
      <point x="912" y="696"/>
      <point x="921" y="680"/>
      <point x="926" y="663" type="curve"/>
      <point x="940" y="663" type="line" smooth="yes"/>
      <point x="979" y="663"/>
      <point x="1005" y="646"/>
      <point x="1020" y="614" type="curve"/>
      <point x="1028" y="601"/>
      <point x="1031" y="585"/>
      <point x="1031" y="571" type="curve" smooth="yes"/>
      <point x="1031" y="549"/>
      <point x="1023" y="525"/>
      <point x="1005" y="501" type="curve"/>
      <point x="1025" y="485"/>
      <point x="1039" y="468"/>
      <point x="1049" y="450" type="curve" smooth="yes"/>
      <point x="1063" y="419"/>
      <point x="1070" y="398"/>
      <point x="1070" y="380" type="curve" smooth="yes"/>
      <point x="1070" y="351"/>
      <point x="1052" y="330"/>
      <point x="1012" y="288" type="curve" smooth="yes"/>
      <point x="1010" y="286" type="line"/>
      <point x="1025" y="269"/>
      <point x="1061" y="259"/>
    </contour>
    <contour>
      <point x="10" y="267" type="curve"/>
      <point x="10" y="267" type="line"/>
      <point x="950" y="267" type="line"/>
      <point x="930" y="286" type="line"/>
      <point x="921" y="299"/>
      <point x="914" y="308"/>
      <point x="911" y="315" type="curve"/>
      <point x="906" y="320"/>
      <point x="904" y="324"/>
      <point x="904" y="327" type="curve"/>
      <point x="901" y="334"/>
      <point x="898" y="337"/>
      <point x="897" y="339" type="curve" smooth="yes"/>
      <point x="803" y="545"/>
      <point x="653" y="730"/>
      <point x="457" y="730" type="curve" smooth="yes"/>
      <point x="431" y="730" type="line" smooth="yes"/>
      <point x="273" y="724"/>
      <point x="158" y="657"/>
      <point x="85" y="530" type="curve"/>
      <point x="85" y="528"/>
      <point x="85" y="527"/>
      <point x="83" y="525" type="curve"/>
      <point x="80" y="518"/>
      <point x="77" y="514"/>
      <point x="76" y="511" type="curve"/>
      <point x="73" y="508"/>
      <point x="66" y="494"/>
      <point x="66" y="491" type="curve"/>
      <point x="35" y="422"/>
      <point x="17" y="347"/>
    </contour>
    <contour>
      <point x="498" y="512" type="curve"/>
      <point x="498" y="512" type="line"/>
      <point x="488" y="512"/>
      <point x="478" y="516"/>
      <point x="469" y="525" type="curve" smooth="yes"/>
      <point x="460" y="534"/>
      <point x="457" y="544"/>
      <point x="457" y="553" type="curve" smooth="yes"/>
      <point x="457" y="576"/>
      <point x="477" y="596"/>
      <point x="499" y="596" type="curve" smooth="yes"/>
      <point x="508" y="596"/>
      <point x="518" y="592"/>
      <point x="527" y="583" type="curve" smooth="yes"/>
      <point x="536" y="574"/>
      <point x="540" y="564"/>
      <point x="540" y="555" type="curve" smooth="yes"/>
      <point x="540" y="532"/>
      <point x="519" y="512"/>
    </contour>
    <contour>
      <point x="635" y="457" type="curve"/>
      <point x="635" y="457" type="line"/>
      <point x="626" y="457"/>
      <point x="615" y="461"/>
      <point x="607" y="470" type="curve" smooth="yes"/>
      <point x="598" y="478"/>
      <point x="595" y="488"/>
      <point x="595" y="498" type="curve" smooth="yes"/>
      <point x="595" y="519"/>
      <point x="611" y="540"/>
      <point x="636" y="540" type="curve" smooth="yes"/>
      <point x="663" y="540"/>
      <point x="677" y="526"/>
      <point x="677" y="499" type="curve" smooth="yes"/>
      <point x="677" y="474"/>
      <point x="656" y="457"/>
    </contour>
    <contour>
      <point x="554" y="346" type="curve"/>
      <point x="554" y="346" type="line"/>
      <point x="531" y="346"/>
      <point x="513" y="363"/>
      <point x="513" y="385" type="curve" smooth="yes"/>
      <point x="513" y="390" type="line" smooth="yes"/>
      <point x="513" y="398"/>
      <point x="513" y="404"/>
      <point x="515" y="407" type="curve" smooth="yes"/>
      <point x="520" y="415"/>
      <point x="527" y="421"/>
      <point x="534" y="426" type="curve"/>
      <point x="541" y="429"/>
      <point x="547" y="431"/>
      <point x="554" y="431" type="curve" smooth="yes"/>
      <point x="568" y="431"/>
      <point x="580" y="424"/>
      <point x="588" y="412" type="curve" smooth="yes"/>
      <point x="592" y="407"/>
      <point x="595" y="400"/>
      <point x="595" y="390" type="curve" smooth="yes"/>
      <point x="595" y="387" type="line" smooth="yes"/>
      <point x="595" y="380"/>
      <point x="592" y="373"/>
      <point x="588" y="368" type="curve"/>
      <point x="580" y="354"/>
      <point x="568" y="346"/>
    </contour>
  </outline>
</glyph>
<glyph name="uniE21A" format="2">
  <advance width="1200"/>
  <unicode hex="E21A"/>
  <note>
uniE21A
</note>
  <outline>
    <contour>
      <point x="428" y="943" type="line"/>
      <point x="428" y="943" type="line"/>
      <point x="708" y="610" type="line"/>
      <point x="710" y="616"/>
      <point x="716" y="621"/>
      <point x="727" y="624" type="curve"/>
      <point x="370" y="1286" type="line" smooth="yes"/>
      <point x="357" y="1311"/>
      <point x="337" y="1321"/>
      <point x="317" y="1321" type="curve" smooth="yes"/>
      <point x="283" y="1321"/>
      <point x="249" y="1292"/>
      <point x="249" y="1255" type="curve" smooth="yes"/>
      <point x="249" y="1246"/>
      <point x="251" y="1236"/>
      <point x="256" y="1225" type="curve"/>
    </contour>
    <contour>
      <point x="850" y="315" type="curve"/>
      <point x="850" y="315" type="line"/>
      <point x="858" y="315"/>
      <point x="867" y="318"/>
      <point x="874" y="325" type="curve"/>
      <point x="876" y="328"/>
      <point x="879" y="331"/>
      <point x="882" y="334" type="curve"/>
      <point x="885" y="339"/>
      <point x="887" y="343"/>
      <point x="887" y="349" type="curve" smooth="yes"/>
      <point x="887" y="361"/>
      <point x="877" y="378"/>
      <point x="858" y="397" type="curve"/>
      <point x="853" y="404" type="line"/>
      <point x="850" y="407" type="line"/>
      <point x="845" y="414" type="line"/>
      <point x="836" y="424" type="line"/>
      <point x="831" y="431" type="line"/>
      <point x="708" y="576" type="line"/>
      <point x="698" y="590" type="line"/>
      <point x="686" y="602" type="line"/>
      <point x="126" y="1269" type="line" smooth="yes"/>
      <point x="113" y="1283"/>
      <point x="98" y="1290"/>
      <point x="80" y="1290" type="curve" smooth="yes"/>
      <point x="63" y="1290"/>
      <point x="48" y="1285"/>
      <point x="37" y="1274" type="curve" smooth="yes"/>
      <point x="23" y="1261"/>
      <point x="16" y="1244"/>
      <point x="16" y="1227" type="curve" smooth="yes"/>
      <point x="16" y="1211"/>
      <point x="22" y="1196"/>
      <point x="32" y="1184" type="curve" smooth="yes"/>
      <point x="597" y="573" type="line"/>
      <point x="614" y="556" type="line"/>
      <point x="759" y="400" type="line"/>
      <point x="775" y="383" type="line"/>
      <point x="775" y="380" type="line"/>
      <point x="804" y="349" type="line" smooth="yes"/>
      <point x="827" y="326"/>
      <point x="842" y="315"/>
    </contour>
    <contour>
      <point x="1174" y="414" type="curve"/>
      <point x="1174" y="414" type="line"/>
      <point x="1180" y="414"/>
      <point x="1184" y="416"/>
      <point x="1184" y="421" type="curve"/>
      <point x="1176" y="433" type="line" smooth="yes"/>
      <point x="1160" y="462"/>
      <point x="1142" y="489"/>
      <point x="1121" y="513" type="curve" smooth="yes"/>
      <point x="1111" y="523" type="line"/>
      <point x="1109" y="523"/>
      <point x="1107" y="521"/>
      <point x="1107" y="518" type="curve" smooth="yes"/>
      <point x="1107" y="515"/>
      <point x="1109" y="511"/>
      <point x="1111" y="506" type="curve" smooth="yes"/>
      <point x="1114" y="499"/>
      <point x="1116" y="494"/>
      <point x="1116" y="489" type="curve" smooth="yes"/>
      <point x="1118" y="474" type="line"/>
      <point x="1117" y="474"/>
      <point x="1114" y="479"/>
      <point x="1111" y="486" type="curve" smooth="yes"/>
      <point x="1097" y="515"/>
      <point x="1088" y="532"/>
      <point x="1085" y="537" type="curve" smooth="yes"/>
      <point x="1070" y="558"/>
      <point x="1054" y="573"/>
      <point x="1036" y="581" type="curve" smooth="yes"/>
      <point x="1022" y="587"/>
      <point x="1013" y="591"/>
      <point x="1010" y="593" type="curve" smooth="yes"/>
      <point x="1003" y="596"/>
      <point x="999" y="598"/>
      <point x="998" y="598" type="curve" smooth="yes"/>
      <point x="995" y="598"/>
      <point x="993" y="596"/>
      <point x="993" y="594" type="curve" smooth="yes"/>
      <point x="993" y="591"/>
      <point x="996" y="587"/>
      <point x="1000" y="581" type="curve" smooth="yes"/>
      <point x="1010" y="566"/>
      <point x="1024" y="542"/>
      <point x="1041" y="508" type="curve" smooth="yes"/>
      <point x="1043" y="503"/>
      <point x="1044" y="499"/>
      <point x="1044" y="497" type="curve"/>
      <point x="1044" y="497"/>
      <point x="1044" y="496"/>
      <point x="1043" y="496" type="curve" smooth="yes"/>
      <point x="1042" y="496"/>
      <point x="1039" y="499"/>
      <point x="1034" y="506" type="curve"/>
      <point x="1013" y="543"/>
      <point x="987" y="573"/>
      <point x="957" y="598" type="curve" smooth="yes"/>
      <point x="940" y="610"/>
      <point x="920" y="619"/>
      <point x="896" y="622" type="curve"/>
      <point x="872" y="622" type="line" smooth="yes"/>
      <point x="864" y="622"/>
      <point x="859" y="620"/>
      <point x="859" y="617" type="curve" smooth="yes"/>
      <point x="859" y="615"/>
      <point x="863" y="612"/>
      <point x="870" y="607" type="curve" smooth="yes"/>
      <point x="906" y="585"/>
      <point x="934" y="553"/>
      <point x="952" y="513" type="curve" smooth="yes"/>
      <point x="955" y="507"/>
      <point x="956" y="503"/>
      <point x="956" y="501" type="curve" smooth="yes"/>
      <point x="956" y="499"/>
      <point x="955" y="499"/>
      <point x="954" y="499" type="curve"/>
      <point x="951" y="502"/>
      <point x="947" y="506"/>
      <point x="944" y="511" type="curve" smooth="yes"/>
      <point x="914" y="554"/>
      <point x="876" y="585"/>
      <point x="831" y="605" type="curve" smooth="yes"/>
      <point x="815" y="613"/>
      <point x="801" y="617"/>
      <point x="790" y="617" type="curve" smooth="yes"/>
      <point x="788" y="617"/>
      <point x="786" y="616"/>
      <point x="783" y="614" type="curve"/>
      <point x="768" y="612" type="line"/>
      <point x="739" y="605" type="line"/>
      <point x="737" y="605" type="line"/>
      <point x="730" y="602"/>
      <point x="726" y="600"/>
      <point x="726" y="598" type="curve" smooth="yes"/>
      <point x="726" y="594"/>
      <point x="731" y="591"/>
      <point x="742" y="588" type="curve"/>
      <point x="743" y="586"/>
      <point x="745" y="585"/>
      <point x="746" y="585" type="curve"/>
      <point x="785" y="569"/>
      <point x="820" y="540"/>
      <point x="850" y="499" type="curve"/>
      <point x="855" y="486" type="line"/>
      <point x="853" y="486"/>
      <point x="850" y="489"/>
      <point x="843" y="496" type="curve" smooth="yes"/>
      <point x="817" y="525"/>
      <point x="790" y="545"/>
      <point x="761" y="556" type="curve"/>
      <point x="746" y="564" type="line"/>
      <point x="778" y="527" type="line"/>
      <point x="860" y="428" type="line"/>
      <point x="891" y="435"/>
      <point x="934" y="440"/>
      <point x="990" y="443" type="curve" smooth="yes"/>
      <point x="998" y="443" type="line" smooth="yes"/>
      <point x="1028" y="443"/>
      <point x="1062" y="439"/>
      <point x="1099" y="431" type="curve"/>
      <point x="1102" y="431"/>
      <point x="1106" y="430"/>
      <point x="1109" y="428" type="curve"/>
      <point x="1113" y="428"/>
      <point x="1129" y="425"/>
      <point x="1155" y="419" type="curve" smooth="yes"/>
      <point x="1164" y="416"/>
      <point x="1171" y="414"/>
    </contour>
    <contour>
      <point x="447" y="235" type="curve"/>
      <point x="447" y="235" type="line"/>
      <point x="459" y="235" type="line" smooth="yes"/>
      <point x="464" y="235"/>
      <point x="471" y="237"/>
      <point x="481" y="240" type="curve" smooth="yes"/>
      <point x="486" y="242"/>
      <point x="493" y="246"/>
      <point x="503" y="251" type="curve" smooth="yes"/>
      <point x="522" y="262" type="line" smooth="yes"/>
      <point x="535" y="270"/>
      <point x="556" y="282"/>
      <point x="585" y="298" type="curve" smooth="yes"/>
      <point x="590" y="301"/>
      <point x="603" y="310"/>
      <point x="627" y="325" type="curve" smooth="yes"/>
      <point x="681" y="358" type="line" smooth="yes"/>
      <point x="701" y="370"/>
      <point x="719" y="380"/>
      <point x="737" y="390" type="curve"/>
      <point x="626" y="511" type="line"/>
      <point x="603" y="514"/>
      <point x="587" y="515"/>
      <point x="577" y="515" type="curve" smooth="yes"/>
      <point x="553" y="515"/>
      <point x="534" y="508"/>
      <point x="520" y="494" type="curve" smooth="yes"/>
      <point x="512" y="487"/>
      <point x="502" y="479"/>
      <point x="491" y="467" type="curve"/>
      <point x="484" y="462"/>
      <point x="480" y="457"/>
      <point x="480" y="455" type="curve" smooth="yes"/>
      <point x="480" y="452"/>
      <point x="485" y="450"/>
      <point x="493" y="450" type="curve" smooth="yes"/>
      <point x="500" y="450" type="line"/>
      <point x="508" y="452"/>
      <point x="519" y="453"/>
      <point x="532" y="453" type="curve" smooth="yes"/>
      <point x="587" y="453"/>
      <point x="635" y="435"/>
      <point x="676" y="400" type="curve"/>
      <point x="681" y="397" type="line"/>
      <point x="681" y="395" type="line"/>
      <point x="679" y="395" type="line"/>
      <point x="674" y="400" type="line"/>
      <point x="624" y="422"/>
      <point x="578" y="433"/>
      <point x="536" y="433" type="curve" smooth="yes"/>
      <point x="530" y="433"/>
      <point x="510" y="431"/>
      <point x="476" y="426" type="curve"/>
      <point x="457" y="421"/>
      <point x="439" y="409"/>
      <point x="423" y="390" type="curve"/>
      <point x="420" y="383"/>
      <point x="415" y="375"/>
      <point x="408" y="366" type="curve"/>
      <point x="405" y="358"/>
      <point x="403" y="353"/>
      <point x="403" y="349" type="curve" smooth="yes"/>
      <point x="403" y="344"/>
      <point x="405" y="342"/>
      <point x="411" y="342" type="curve"/>
      <point x="413" y="343"/>
      <point x="414" y="344"/>
      <point x="416" y="344" type="curve"/>
      <point x="425" y="347"/>
      <point x="433" y="349"/>
      <point x="440" y="349" type="curve"/>
      <point x="462" y="354"/>
      <point x="483" y="356"/>
      <point x="503" y="356" type="curve" smooth="yes"/>
      <point x="536" y="356"/>
      <point x="564" y="352"/>
      <point x="585" y="344" type="curve"/>
      <point x="597" y="337" type="line"/>
      <point x="594" y="337" type="line" smooth="yes"/>
      <point x="590" y="337"/>
      <point x="585" y="337"/>
      <point x="582" y="339" type="curve"/>
      <point x="577" y="339"/>
      <point x="571" y="340"/>
      <point x="563" y="340" type="curve" smooth="yes"/>
      <point x="555" y="341"/>
      <point x="548" y="342"/>
      <point x="544" y="342" type="curve" smooth="yes"/>
      <point x="515" y="342"/>
      <point x="481" y="337"/>
      <point x="442" y="327" type="curve" smooth="yes"/>
      <point x="434" y="325"/>
      <point x="422" y="322"/>
      <point x="406" y="315" type="curve"/>
      <point x="389" y="310"/>
      <point x="373" y="298"/>
      <point x="360" y="279" type="curve" smooth="yes"/>
      <point x="357" y="274"/>
      <point x="355" y="270"/>
      <point x="355" y="266" type="curve" smooth="yes"/>
      <point x="355" y="258"/>
      <point x="362" y="252"/>
      <point x="375" y="247" type="curve"/>
      <point x="415" y="240"/>
      <point x="439" y="235"/>
    </contour>
    <contour>
      <point x="556" y="180" type="curve"/>
      <point x="556" y="180" type="line"/>
      <point x="593" y="180"/>
      <point x="654" y="194"/>
      <point x="676" y="202" type="curve"/>
      <point x="686" y="204" type="line"/>
      <point x="843" y="240" type="line"/>
      <point x="1041" y="257" type="line"/>
      <point x="1053" y="259"/>
      <point x="1063" y="264"/>
      <point x="1072" y="272" type="curve" smooth="yes"/>
      <point x="1090" y="286"/>
      <point x="1099" y="301"/>
      <point x="1099" y="315" type="curve"/>
      <point x="1104" y="329"/>
      <point x="1106" y="345"/>
      <point x="1106" y="361" type="curve"/>
      <point x="1108" y="372"/>
      <point x="1109" y="387"/>
      <point x="1109" y="407" type="curve"/>
      <point x="1104" y="407" type="line"/>
      <point x="1099" y="409" type="line"/>
      <point x="1094" y="409" type="line"/>
      <point x="1067" y="416"/>
      <point x="1034" y="419"/>
      <point x="998" y="419" type="curve" smooth="yes"/>
      <point x="990" y="419" type="line" smooth="yes"/>
      <point x="947" y="419"/>
      <point x="909" y="416"/>
      <point x="877" y="409" type="curve"/>
      <point x="897" y="387"/>
      <point x="908" y="366"/>
      <point x="908" y="348" type="curve" smooth="yes"/>
      <point x="908" y="334"/>
      <point x="902" y="322"/>
      <point x="889" y="310" type="curve" smooth="yes"/>
      <point x="887" y="308" type="line" smooth="yes"/>
      <point x="875" y="298"/>
      <point x="863" y="293"/>
      <point x="850" y="293" type="curve" smooth="yes"/>
      <point x="841" y="293"/>
      <point x="829" y="298"/>
      <point x="817" y="308" type="curve" smooth="yes"/>
      <point x="810" y="313"/>
      <point x="800" y="322"/>
      <point x="788" y="334" type="curve" smooth="yes"/>
      <point x="754" y="373" type="line"/>
      <point x="730" y="363"/>
      <point x="710" y="353"/>
      <point x="693" y="342" type="curve" smooth="yes"/>
      <point x="650" y="313" type="line" smooth="yes"/>
      <point x="638" y="306"/>
      <point x="620" y="295"/>
      <point x="594" y="279" type="curve"/>
      <point x="592" y="276"/>
      <point x="534" y="244"/>
      <point x="532" y="243" type="curve" smooth="yes"/>
      <point x="510" y="231"/>
      <point x="497" y="224"/>
      <point x="491" y="221" type="curve"/>
      <point x="491" y="218"/>
      <point x="493" y="214"/>
      <point x="498" y="209" type="curve" smooth="yes"/>
      <point x="510" y="196"/>
      <point x="521" y="188"/>
      <point x="529" y="185" type="curve" smooth="yes"/>
      <point x="539" y="182"/>
      <point x="548" y="180"/>
    </contour>
  </outline>
</glyph>
<glyph name="uniE21B" format="2">
  <advance width="1200"/>
  <unicode hex="E21B"/>
  <note>
uniE21B
</note>
  <outline>
    <contour>
      <point x="44" y="159" type="curve"/>
      <point x="44" y="159" type="line"/>
      <point x="1155" y="159" type="line" smooth="yes"/>
      <point x="1175" y="159"/>
      <point x="1189" y="176"/>
      <point x="1189" y="194" type="curve" smooth="yes"/>
      <point x="1189" y="202"/>
      <point x="1186" y="210"/>
      <point x="1179" y="217" type="curve" smooth="yes"/>
      <point x="68" y="1328" type="line" smooth="yes"/>
      <point x="61" y="1335"/>
      <point x="53" y="1338"/>
      <point x="45" y="1338" type="curve" smooth="yes"/>
      <point x="27" y="1338"/>
      <point x="11" y="1324"/>
      <point x="11" y="1304" type="curve" smooth="yes"/>
      <point x="11" y="1007" type="line"/>
      <point x="100" y="1007" type="line" smooth="yes"/>
      <point x="127" y="1007"/>
      <point x="140" y="986"/>
      <point x="140" y="966" type="curve" smooth="yes"/>
      <point x="140" y="945"/>
      <point x="127" y="925"/>
      <point x="100" y="925" type="curve" smooth="yes"/>
      <point x="11" y="925" type="line"/>
      <point x="11" y="797" type="line"/>
      <point x="100" y="797" type="line" smooth="yes"/>
      <point x="127" y="797"/>
      <point x="140" y="776"/>
      <point x="140" y="756" type="curve" smooth="yes"/>
      <point x="140" y="735"/>
      <point x="127" y="715"/>
      <point x="100" y="715" type="curve" smooth="yes"/>
      <point x="11" y="715" type="line"/>
      <point x="11" y="587" type="line"/>
      <point x="100" y="587" type="line" smooth="yes"/>
      <point x="127" y="587"/>
      <point x="140" y="566"/>
      <point x="140" y="546" type="curve" smooth="yes"/>
      <point x="140" y="525"/>
      <point x="127" y="505"/>
      <point x="100" y="505" type="curve" smooth="yes"/>
      <point x="11" y="505" type="line"/>
      <point x="11" y="374" type="line"/>
      <point x="100" y="374" type="line" smooth="yes"/>
      <point x="127" y="374"/>
      <point x="140" y="354"/>
      <point x="140" y="334" type="curve" smooth="yes"/>
      <point x="140" y="315"/>
      <point x="127" y="295"/>
      <point x="100" y="295" type="curve" smooth="yes"/>
      <point x="11" y="295" type="line"/>
      <point x="11" y="193" type="line" smooth="yes"/>
      <point x="11" y="174"/>
      <point x="28" y="159"/>
    </contour>
    <contour>
      <point x="648" y="403" type="line"/>
      <point x="648" y="403" type="line"/>
      <point x="254" y="403" type="line"/>
      <point x="254" y="797" type="line"/>
    </contour>
  </outline>
</glyph>
<glyph name="uniE21C" format="2">
  <advance width="1200"/>
  <unicode hex="E21C"/>
  <note>
uniE21C
</note>
  <outline>
    <contour>
      <point x="583" y="570" type="curve"/>
      <point x="583" y="570" type="line"/>
      <point x="616" y="570"/>
      <point x="654" y="576"/>
      <point x="696" y="587" type="curve" smooth="yes"/>
      <point x="722" y="595"/>
      <point x="745" y="605"/>
      <point x="766" y="616" type="curve"/>
      <point x="793" y="607"/>
      <point x="822" y="602"/>
      <point x="853" y="602" type="curve" smooth="yes"/>
      <point x="1001" y="602"/>
      <point x="1121" y="722"/>
      <point x="1121" y="870" type="curve" smooth="yes"/>
      <point x="1121" y="992"/>
      <point x="1039" y="1096"/>
      <point x="923" y="1128" type="curve"/>
      <point x="858" y="1254"/>
      <point x="731" y="1336"/>
      <point x="583" y="1336" type="curve" smooth="yes"/>
      <point x="415" y="1336"/>
      <point x="267" y="1225"/>
      <point x="216" y="1068" type="curve"/>
      <point x="216" y="1063"/>
      <point x="214" y="1056"/>
      <point x="211" y="1046" type="curve"/>
      <point x="209" y="1044"/>
      <point x="208" y="1041"/>
      <point x="208" y="1036" type="curve" smooth="yes"/>
      <point x="208" y="1032"/>
      <point x="208" y="1027"/>
      <point x="206" y="1024" type="curve"/>
      <point x="201" y="1000"/>
      <point x="199" y="977"/>
      <point x="199" y="954" type="curve" smooth="yes"/>
      <point x="199" y="784"/>
      <point x="312" y="636"/>
      <point x="469" y="587" type="curve"/>
      <point x="476" y="584"/>
      <point x="494" y="580"/>
      <point x="501" y="580" type="curve"/>
      <point x="510" y="577"/>
      <point x="517" y="575"/>
      <point x="522" y="575" type="curve"/>
      <point x="527" y="573"/>
      <point x="534" y="573"/>
      <point x="544" y="573" type="curve"/>
      <point x="552" y="571"/>
      <point x="565" y="570"/>
    </contour>
    <contour>
      <point x="346" y="529" type="curve"/>
      <point x="346" y="529" type="line"/>
      <point x="385" y="529"/>
      <point x="423" y="538"/>
      <point x="462" y="556" type="curve"/>
      <point x="288" y="607"/>
      <point x="167" y="768"/>
      <point x="167" y="954" type="curve" smooth="yes"/>
      <point x="167" y="974"/>
      <point x="168" y="988"/>
      <point x="170" y="998" type="curve"/>
      <point x="109" y="942"/>
      <point x="78" y="874"/>
      <point x="78" y="795" type="curve" smooth="yes"/>
      <point x="78" y="647"/>
      <point x="198" y="529"/>
    </contour>
    <contour>
      <point x="469" y="522" type="curve"/>
      <point x="469" y="522" type="line"/>
      <point x="469" y="162" type="line"/>
      <point x="696" y="162" type="line"/>
      <point x="696" y="554" type="line"/>
      <point x="654" y="542"/>
      <point x="616" y="537"/>
      <point x="583" y="537" type="curve" smooth="yes"/>
      <point x="557" y="537"/>
      <point x="532" y="539"/>
      <point x="508" y="544" type="curve"/>
      <point x="501" y="537"/>
      <point x="479" y="525"/>
    </contour>
  </outline>
</glyph>
<glyph name="uniE21D" format="2">
  <advance width="1200"/>
  <unicode hex="E21D"/>
  <note>
uniE21D
</note>
  <outline>
    <contour>
      <point x="139" y="264" type="curve"/>
      <point x="139" y="264" type="line"/>
      <point x="970" y="264" type="line" smooth="yes"/>
      <point x="1088" y="264"/>
      <point x="1189" y="361"/>
      <point x="1189" y="484" type="curve" smooth="yes"/>
      <point x="1189" y="606"/>
      <point x="1092" y="706"/>
      <point x="970" y="706" type="curve" smooth="yes"/>
      <point x="941" y="706"/>
      <point x="914" y="701"/>
      <point x="890" y="691" type="curve"/>
      <point x="885" y="725"/>
      <point x="875" y="755"/>
      <point x="861" y="781" type="curve"/>
      <point x="938" y="889" type="line" smooth="yes"/>
      <point x="941" y="893"/>
      <point x="941" y="897"/>
      <point x="941" y="900" type="curve" smooth="yes"/>
      <point x="941" y="901"/>
      <point x="941" y="902"/>
      <point x="941" y="904" type="curve"/>
      <point x="938" y="910"/>
      <point x="934" y="914"/>
      <point x="931" y="916" type="curve"/>
      <point x="774" y="966" type="line"/>
      <point x="774" y="1131" type="line" smooth="yes"/>
      <point x="774" y="1135"/>
      <point x="772" y="1140"/>
      <point x="767" y="1145" type="curve"/>
      <point x="764" y="1146"/>
      <point x="762" y="1146"/>
      <point x="759" y="1146" type="curve" smooth="yes"/>
      <point x="756" y="1146"/>
      <point x="753" y="1146"/>
      <point x="750" y="1145" type="curve" smooth="yes"/>
      <point x="595" y="1097" type="line"/>
      <point x="499" y="1230" type="line"/>
      <point x="496" y="1233"/>
      <point x="491" y="1234"/>
      <point x="484" y="1234" type="curve" smooth="yes"/>
      <point x="481" y="1234"/>
      <point x="476" y="1233"/>
      <point x="470" y="1230" type="curve"/>
      <point x="373" y="1097" type="line"/>
      <point x="219" y="1145" type="line"/>
      <point x="216" y="1147"/>
      <point x="213" y="1148"/>
      <point x="210" y="1148" type="curve" smooth="yes"/>
      <point x="207" y="1148"/>
      <point x="204" y="1147"/>
      <point x="202" y="1145" type="curve" smooth="yes"/>
      <point x="197" y="1140"/>
      <point x="195" y="1135"/>
      <point x="195" y="1131" type="curve" smooth="yes"/>
      <point x="195" y="966" type="line"/>
      <point x="40" y="916" type="line" smooth="yes"/>
      <point x="35" y="914"/>
      <point x="31" y="910"/>
      <point x="28" y="904" type="curve" smooth="yes"/>
      <point x="26" y="901"/>
      <point x="27" y="896"/>
      <point x="30" y="889" type="curve"/>
      <point x="127" y="756" type="line"/>
      <point x="30" y="624" type="line"/>
      <point x="28" y="619"/>
      <point x="27" y="615"/>
      <point x="27" y="611" type="curve" smooth="yes"/>
      <point x="27" y="604"/>
      <point x="32" y="599"/>
      <point x="40" y="597" type="curve" smooth="yes"/>
      <point x="190" y="549" type="line"/>
      <point x="182" y="532"/>
      <point x="178" y="512"/>
      <point x="178" y="488" type="curve" smooth="yes"/>
      <point x="178" y="484" type="line"/>
      <point x="165" y="488"/>
      <point x="152" y="491"/>
      <point x="139" y="491" type="curve" smooth="yes"/>
      <point x="68" y="491"/>
      <point x="11" y="431"/>
      <point x="11" y="360" type="curve" smooth="yes"/>
      <point x="11" y="296"/>
      <point x="54" y="264"/>
    </contour>
    <contour>
      <point x="223" y="595" type="curve"/>
      <point x="223" y="595" type="line"/>
      <point x="212" y="611"/>
      <point x="205" y="624"/>
      <point x="202" y="636" type="curve"/>
      <point x="184" y="676"/>
      <point x="175" y="716"/>
      <point x="175" y="756" type="curve" smooth="yes"/>
      <point x="175" y="797"/>
      <point x="184" y="836"/>
      <point x="202" y="875" type="curve"/>
      <point x="216" y="915"/>
      <point x="238" y="948"/>
      <point x="267" y="974" type="curve"/>
      <point x="293" y="1003"/>
      <point x="325" y="1024"/>
      <point x="366" y="1039" type="curve" smooth="yes"/>
      <point x="405" y="1056"/>
      <point x="444" y="1065"/>
      <point x="484" y="1065" type="curve" smooth="yes"/>
      <point x="525" y="1065"/>
      <point x="565" y="1056"/>
      <point x="605" y="1039" type="curve" smooth="yes"/>
      <point x="644" y="1023"/>
      <point x="676" y="1001"/>
      <point x="702" y="974" type="curve" smooth="yes"/>
      <point x="731" y="945"/>
      <point x="752" y="914"/>
      <point x="764" y="882" type="curve"/>
      <point x="721" y="911"/>
      <point x="671" y="925"/>
      <point x="615" y="925" type="curve" smooth="yes"/>
      <point x="460" y="925"/>
      <point x="337" y="802"/>
      <point x="337" y="648" type="curve" smooth="yes"/>
      <point x="337" y="636" type="line"/>
      <point x="335" y="637"/>
      <point x="332" y="638"/>
      <point x="327" y="638" type="curve" smooth="yes"/>
      <point x="287" y="638"/>
      <point x="252" y="624"/>
    </contour>
  </outline>
</glyph>
<glyph name="uniE21E" format="2">
  <advance width="1200"/>
  <unicode hex="E21E"/>
  <note>
uniE21E
</note>
  <outline>
    <contour>
      <point x="609" y="259" type="curve"/>
      <point x="609" y="259" type="line"/>
      <point x="614" y="259"/>
      <point x="617" y="260"/>
      <point x="619" y="261" type="curve"/>
      <point x="622" y="261" type="line"/>
      <point x="624" y="261" type="line"/>
      <point x="629" y="264" type="line"/>
      <point x="629" y="266"/>
      <point x="629" y="266"/>
      <point x="631" y="266" type="curve"/>
      <point x="636" y="271" type="line"/>
      <point x="1177" y="877" type="line"/>
      <point x="1177" y="879"/>
      <point x="1177" y="880"/>
      <point x="1179" y="882" type="curve"/>
      <point x="1179" y="884"/>
      <point x="1180" y="885"/>
      <point x="1182" y="887" type="curve"/>
      <point x="1182" y="889"/>
      <point x="1182" y="890"/>
      <point x="1184" y="892" type="curve"/>
      <point x="1184" y="911" type="line"/>
      <point x="1182" y="913"/>
      <point x="1182" y="914"/>
      <point x="1182" y="916" type="curve"/>
      <point x="1179" y="918" type="line"/>
      <point x="1179" y="920"/>
      <point x="1179" y="921"/>
      <point x="1177" y="923" type="curve" smooth="yes"/>
      <point x="947" y="1225" type="line"/>
      <point x="940" y="1232" type="line"/>
      <point x="939" y="1232"/>
      <point x="933" y="1236"/>
      <point x="933" y="1237" type="curve"/>
      <point x="928" y="1237" type="line"/>
      <point x="926" y="1239" type="line"/>
      <point x="286" y="1239" type="line" smooth="yes"/>
      <point x="273" y="1239"/>
      <point x="264" y="1234"/>
      <point x="257" y="1225" type="curve" smooth="yes"/>
      <point x="23" y="923" type="line"/>
      <point x="21" y="923"/>
      <point x="20" y="921"/>
      <point x="20" y="918" type="curve"/>
      <point x="18" y="916" type="line"/>
      <point x="18" y="914"/>
      <point x="17" y="911"/>
      <point x="16" y="908" type="curve"/>
      <point x="16" y="892" type="line"/>
      <point x="17" y="890"/>
      <point x="18" y="889"/>
      <point x="18" y="887" type="curve"/>
      <point x="20" y="884"/>
      <point x="22" y="880"/>
      <point x="25" y="877" type="curve" smooth="yes"/>
      <point x="583" y="271" type="line" smooth="yes"/>
      <point x="586" y="268"/>
      <point x="588" y="266"/>
      <point x="590" y="266" type="curve"/>
      <point x="593" y="263"/>
      <point x="596" y="261"/>
      <point x="597" y="261" type="curve" smooth="yes"/>
      <point x="600" y="261" type="line"/>
      <point x="602" y="260"/>
      <point x="605" y="259"/>
    </contour>
    <contour>
      <point x="537" y="1169" type="line"/>
      <point x="537" y="1169" type="line"/>
      <point x="399" y="974" type="line"/>
      <point x="337" y="1169" type="line"/>
    </contour>
    <contour>
      <point x="873" y="1169" type="line"/>
      <point x="873" y="1169" type="line"/>
      <point x="829" y="976" type="line"/>
      <point x="679" y="1169" type="line"/>
    </contour>
    <contour>
      <point x="769" y="937" type="line"/>
      <point x="769" y="937" type="line"/>
      <point x="460" y="937" type="line"/>
      <point x="607" y="1145" type="line"/>
    </contour>
    <contour>
      <point x="337" y="937" type="line"/>
      <point x="337" y="937" type="line"/>
      <point x="124" y="937" type="line"/>
      <point x="274" y="1131" type="line"/>
    </contour>
    <contour>
      <point x="1078" y="937" type="line"/>
      <point x="1078" y="937" type="line"/>
      <point x="894" y="937" type="line"/>
      <point x="935" y="1121" type="line"/>
    </contour>
    <contour>
      <point x="361" y="865" type="line"/>
      <point x="361" y="865" type="line"/>
      <point x="513" y="452" type="line"/>
      <point x="131" y="865" type="line"/>
    </contour>
    <contour>
      <point x="798" y="865" type="line"/>
      <point x="798" y="865" type="line"/>
      <point x="612" y="394" type="line"/>
      <point x="436" y="865" type="line"/>
    </contour>
    <contour>
      <point x="1071" y="865" type="line"/>
      <point x="1071" y="865" type="line"/>
      <point x="716" y="469" type="line"/>
      <point x="873" y="865" type="line"/>
    </contour>
  </outline>
</glyph>
<glyph name="uniE21F" format="2">
  <advance width="1200"/>
  <unicode hex="E21F"/>
  <note>
uniE21F
</note>
  <outline>
    <contour>
      <point x="301" y="160" type="curve"/>
      <point x="301" y="160" type="line"/>
      <point x="307" y="160"/>
      <point x="313" y="162"/>
      <point x="320" y="167" type="curve"/>
      <point x="1182" y="1029" type="line"/>
      <point x="1187" y="1036"/>
      <point x="1189" y="1042"/>
      <point x="1189" y="1049" type="curve" smooth="yes"/>
      <point x="1189" y="1055"/>
      <point x="1187" y="1061"/>
      <point x="1182" y="1068" type="curve"/>
      <point x="919" y="1331" type="line"/>
      <point x="912" y="1336"/>
      <point x="906" y="1338"/>
      <point x="900" y="1338" type="curve" smooth="yes"/>
      <point x="893" y="1338"/>
      <point x="887" y="1336"/>
      <point x="880" y="1331" type="curve"/>
      <point x="830" y="1278" type="line" smooth="yes"/>
      <point x="825" y="1273"/>
      <point x="822" y="1268"/>
      <point x="822" y="1261" type="curve" smooth="yes"/>
      <point x="822" y="1253"/>
      <point x="825" y="1246"/>
      <point x="830" y="1242" type="curve" smooth="yes"/>
      <point x="948" y="1126" type="line"/>
      <point x="914" y="1092" type="line"/>
      <point x="796" y="1208" type="line" smooth="yes"/>
      <point x="790" y="1215"/>
      <point x="784" y="1219"/>
      <point x="778" y="1219" type="curve" smooth="yes"/>
      <point x="772" y="1219"/>
      <point x="766" y="1215"/>
      <point x="759" y="1208" type="curve" smooth="yes"/>
      <point x="716" y="1164" type="line"/>
      <point x="711" y="1160"/>
      <point x="709" y="1153"/>
      <point x="709" y="1145" type="curve" smooth="yes"/>
      <point x="709" y="1138"/>
      <point x="711" y="1133"/>
      <point x="716" y="1128" type="curve" smooth="yes"/>
      <point x="786" y="1056" type="line"/>
      <point x="752" y="1024" type="line"/>
      <point x="682" y="1094" type="line" smooth="yes"/>
      <point x="676" y="1100"/>
      <point x="670" y="1103"/>
      <point x="664" y="1103" type="curve" smooth="yes"/>
      <point x="657" y="1103"/>
      <point x="651" y="1100"/>
      <point x="646" y="1094" type="curve"/>
      <point x="600" y="1049" type="line" smooth="yes"/>
      <point x="595" y="1044"/>
      <point x="593" y="1038"/>
      <point x="593" y="1032" type="curve" smooth="yes"/>
      <point x="593" y="1024"/>
      <point x="595" y="1017"/>
      <point x="600" y="1012" type="curve" smooth="yes"/>
      <point x="718" y="894" type="line"/>
      <point x="685" y="860" type="line"/>
      <point x="566" y="978" type="line" smooth="yes"/>
      <point x="560" y="984"/>
      <point x="554" y="987"/>
      <point x="548" y="987" type="curve" smooth="yes"/>
      <point x="542" y="987"/>
      <point x="536" y="984"/>
      <point x="530" y="978" type="curve" smooth="yes"/>
      <point x="487" y="935" type="line" smooth="yes"/>
      <point x="480" y="928"/>
      <point x="477" y="922"/>
      <point x="477" y="916" type="curve" smooth="yes"/>
      <point x="477" y="909"/>
      <point x="480" y="903"/>
      <point x="487" y="896" type="curve" smooth="yes"/>
      <point x="557" y="826" type="line"/>
      <point x="523" y="793" type="line"/>
      <point x="453" y="863" type="line" smooth="yes"/>
      <point x="446" y="869"/>
      <point x="440" y="872"/>
      <point x="434" y="872" type="curve" smooth="yes"/>
      <point x="427" y="872"/>
      <point x="421" y="869"/>
      <point x="414" y="863" type="curve" smooth="yes"/>
      <point x="371" y="819" type="line" smooth="yes"/>
      <point x="366" y="814"/>
      <point x="364" y="808"/>
      <point x="364" y="800" type="curve" smooth="yes"/>
      <point x="364" y="793"/>
      <point x="366" y="788"/>
      <point x="371" y="783" type="curve" smooth="yes"/>
      <point x="489" y="665" type="line"/>
      <point x="455" y="631" type="line"/>
      <point x="337" y="749" type="line"/>
      <point x="332" y="756"/>
      <point x="325" y="759"/>
      <point x="319" y="759" type="curve" smooth="yes"/>
      <point x="313" y="759"/>
      <point x="307" y="756"/>
      <point x="301" y="749" type="curve" smooth="yes"/>
      <point x="255" y="703" type="line" smooth="yes"/>
      <point x="249" y="698"/>
      <point x="246" y="692"/>
      <point x="246" y="686" type="curve" smooth="yes"/>
      <point x="246" y="680"/>
      <point x="249" y="674"/>
      <point x="255" y="667" type="curve"/>
      <point x="327" y="597" type="line"/>
      <point x="291" y="563" type="line"/>
      <point x="221" y="633" type="line" smooth="yes"/>
      <point x="216" y="638"/>
      <point x="211" y="640"/>
      <point x="204" y="640" type="curve" smooth="yes"/>
      <point x="196" y="640"/>
      <point x="190" y="638"/>
      <point x="185" y="633" type="curve" smooth="yes"/>
      <point x="141" y="590" type="line" smooth="yes"/>
      <point x="134" y="583"/>
      <point x="131" y="577"/>
      <point x="131" y="571" type="curve" smooth="yes"/>
      <point x="131" y="565"/>
      <point x="134" y="559"/>
      <point x="141" y="554" type="curve"/>
      <point x="257" y="435" type="line"/>
      <point x="223" y="401" type="line"/>
      <point x="108" y="520" type="line" smooth="yes"/>
      <point x="103" y="525"/>
      <point x="96" y="527"/>
      <point x="88" y="527" type="curve" smooth="yes"/>
      <point x="82" y="527"/>
      <point x="76" y="525"/>
      <point x="71" y="520" type="curve" smooth="yes"/>
      <point x="18" y="469" type="line"/>
      <point x="13" y="462"/>
      <point x="11" y="456"/>
      <point x="11" y="450" type="curve" smooth="yes"/>
      <point x="11" y="443"/>
      <point x="13" y="437"/>
      <point x="18" y="430" type="curve"/>
      <point x="281" y="167" type="line" smooth="yes"/>
      <point x="286" y="162"/>
      <point x="293" y="160"/>
    </contour>
  </outline>
</glyph>
